<svg xmlns="http://www.w3.org/2000/svg" viewBox="0 0 20 20">
  <g>
    <path d="M2.4 1c-1 .8-.8 2.2-.8 3.3.1 1-.5 2.6.6 3.1 1.2.4 1.9-.8 1.7-1.8 0-.7-.2-2 1-1.6 1 .3 2.7-.3 2.2-1.6s-2-.5-3-.8c-.6 0-1-.5-1.7-.6ZM17.2 1.4c-1 .2-2.6-.4-3 .8-.4 1.2 1 1.8 2 1.5 1.3 0 0 1.6.4 2.3-.2 1.2 1.2 2.4 2.2 1.3.5-.7 0-1.6.1-2.3 0-.8.4-1.5.5-2.2.1-1-.9-1.6-1.8-1.4h-.4zM17.6 12c-1.3.2-1.2 1.8-1.3 2.7 0 .7.6 2.2-.7 1.9-1-.3-2.8 0-2.4 1.4.4 1 1.5.9 2.3.9 1 0 1.9 0 2.7-.3 1-.6.6-1.9.5-2.8v-3c0-.5-.6-.8-1.1-.7zM3 12.2c-1.1 0-1.3 1.4-1.1 2.2l.1 3.2c.6 1 2 .7 3 .9 1 0 2.8.5 3.1-.8.2-1.4-1.4-1.6-2.5-1.5-.8.1-1.7-.4-1.4-1.4 0-.9.2-2.6-1.2-2.6ZM10 5.3c-.7.3-1.7 0-2.4.7-1-.4-2 0-2 1.1 0 2.1-.2 4.3.2 6.4.5.8 1.6.7 2.4 1h3.3c1 0 1.8 0 2.4-.7 1.2 0 1.4-1.2 1.1-2.2-.2-1.4 0-2.9-.3-4.3-.4-1-.9-2-2-1.9-.8-.1-2.2.4-2.6-.1ZM8 7.8h4.4c0 1.5 0 2.9.2 4.3H8V7.9zm4.3 4.3z" style="fill:#000"/>
    <path d="M11.8 8.6c-1 0-1.8.2-2.7.3.2.7-.2 2 .6 2.3h2V8.6z" style="fill:#000"/>
  </g>
</svg>