<svg xmlns="http://www.w3.org/2000/svg" viewBox="0 0 29 29"><rect width="29" height="29" fill="#ffffff"></rect><g stroke="#000000"><line x1="2.5" y1="2.5" x2="8.5" y2="8.5" stroke-width="0.41"></line><line x1="8.5" y1="2.5" x2="2.5" y2="8.5" stroke-width="0.32"></line><line x1="20.5" y1="2.5" x2="26.5" y2="8.5" stroke-width="0.54"></line><line x1="26.5" y1="2.5" x2="20.5" y2="8.5" stroke-width="0.51"></line><line x1="2.5" y1="20.5" x2="8.5" y2="26.5" stroke-width="0.34"></line><line x1="8.5" y1="20.5" x2="2.5" y2="26.5" stroke-width="0.45"></line><line x1="15.5" y1="2.5" x2="14.5" y2="3.5" stroke-width="0.26"></line><line x1="16.5" y1="2.5" x2="17.5" y2="3.5" stroke-width="0.22"></line><line x1="18.5" y1="2.5" x2="15.5" y2="5.5" stroke-width="0.23"></line><line x1="11.5" y1="3.5" x2="12.5" y2="4.5" stroke-width="0.27"></line><line x1="11.5" y1="3.5" x2="10.5" y2="4.5" stroke-width="0.23"></line><line x1="10.5" y1="4.5" x2="12.5" y2="6.5" stroke-width="0.24"></line><line x1="11.5" y1="4.5" x2="10.5" y2="5.5" stroke-width="0.23"></line><line x1="12.5" y1="4.5" x2="10.5" y2="6.5" stroke-width="0.18"></line><line x1="16.5" y1="5.5" x2="15.5" y2="6.5" stroke-width="0.22"></line><line x1="13.5" y1="6.5" x2="12.5" y2="7.5" stroke-width="0.12"></line><line x1="15.5" y1="6.5" x2="16.5" y2="7.5" stroke-width="0.15"></line><line x1="18.5" y1="6.5" x2="16.5" y2="8.5" stroke-width="0.29"></line><line x1="17.5" y1="7.5" x2="18.5" y2="8.5" stroke-width="0.11"></line><line x1="10.5" y1="8.5" x2="12.5" y2="10.5" stroke-width="0.16"></line><line x1="12.5" y1="8.5" x2="11.5" y2="9.5" stroke-width="0.17"></line><line x1="12.5" y1="9.5" x2="14.5" y2="11.5" stroke-width="0.24"></line><line x1="5.5" y1="10.5" x2="3.5" y2="12.5" stroke-width="0.29"></line><line x1="6.5" y1="10.5" x2="9.5" y2="13.5" stroke-width="0.13"></line><line x1="8.5" y1="10.5" x2="9.5" y2="11.5" stroke-width="0.12"></line><line x1="8.5" y1="10.5" x2="4.5" y2="14.5" stroke-width="0.23"></line><line x1="15.5" y1="10.5" x2="14.5" y2="11.5" stroke-width="0.22"></line><line x1="20.5" y1="10.5" x2="21.5" y2="11.5" stroke-width="0.21"></line><line x1="20.5" y1="10.5" x2="15.5" y2="15.5" stroke-width="0.12"></line><line x1="22.5" y1="10.5" x2="20.5" y2="12.5" stroke-width="0.23"></line><line x1="24.5" y1="10.5" x2="26.5" y2="12.5" stroke-width="0.13"></line><line x1="9.5" y1="11.5" x2="7.5" y2="13.5" stroke-width="0.16"></line><line x1="10.5" y1="11.5" x2="11.5" y2="12.5" stroke-width="0.23"></line><line x1="19.5" y1="11.5" x2="20.5" y2="12.5" stroke-width="0.1"></line><line x1="2.5" y1="12.5" x2="4.5" y2="14.5" stroke-width="0.22"></line><line x1="4.5" y1="12.5" x2="5.5" y2="13.5" stroke-width="0.23"></line><line x1="4.5" y1="12.5" x2="3.5" y2="13.5" stroke-width="0.26"></line><line x1="6.5" y1="12.5" x2="8.5" y2="14.5" stroke-width="0.16"></line><line x1="12.5" y1="12.5" x2="15.5" y2="15.5" stroke-width="0.27"></line><line x1="12.5" y1="12.5" x2="11.5" y2="13.5" stroke-width="0.17"></line><line x1="16.5" y1="12.5" x2="17.5" y2="13.5" stroke-width="0.13"></line><line x1="17.5" y1="12.5" x2="19.5" y2="14.5" stroke-width="0.14"></line><line x1="17.5" y1="12.5" x2="14.5" y2="15.5" stroke-width="0.15"></line><line x1="25.5" y1="12.5" x2="26.5" y2="13.5" stroke-width="0.29"></line><line x1="9.5" y1="13.5" x2="7.5" y2="15.5" stroke-width="0.17"></line><line x1="11.5" y1="13.5" x2="12.5" y2="14.5" stroke-width="0.24"></line><line x1="13.5" y1="13.5" x2="11.5" y2="15.5" stroke-width="0.26"></line><line x1="16.5" y1="13.5" x2="19.5" y2="16.5" stroke-width="0.15"></line><line x1="18.5" y1="13.5" x2="15.5" y2="16.5" stroke-width="0.17"></line><line x1="26.5" y1="13.5" x2="25.5" y2="14.5" stroke-width="0.24"></line><line x1="7.5" y1="14.5" x2="5.5" y2="16.5" stroke-width="0.16"></line><line x1="13.5" y1="14.5" x2="15.5" y2="16.5" stroke-width="0.21"></line><line x1="15.5" y1="14.5" x2="19.5" y2="18.5" stroke-width="0.27"></line><line x1="19.5" y1="14.5" x2="17.5" y2="16.5" stroke-width="0.1"></line><line x1="20.5" y1="14.5" x2="22.5" y2="16.5" stroke-width="0.18"></line><line x1="22.5" y1="14.5" x2="23.5" y2="15.5" stroke-width="0.15"></line><line x1="22.5" y1="14.5" x2="20.5" y2="16.5" stroke-width="0.27"></line><line x1="24.5" y1="14.5" x2="26.5" y2="16.5" stroke-width="0.23"></line><line x1="24.5" y1="14.5" x2="20.5" y2="18.5" stroke-width="0.1"></line><line x1="26.5" y1="14.5" x2="25.5" y2="15.5" stroke-width="0.11"></line><line x1="4.5" y1="15.5" x2="6.5" y2="17.5" stroke-width="0.26"></line><line x1="7.5" y1="15.5" x2="8.5" y2="16.5" stroke-width="0.11"></line><line x1="11.5" y1="16.5" x2="12.5" y2="17.5" stroke-width="0.24"></line><line x1="18.5" y1="16.5" x2="12.5" y2="22.5" stroke-width="0.23"></line><line x1="19.5" y1="16.5" x2="18.5" y2="17.5" stroke-width="0.2"></line><line x1="20.5" y1="16.5" x2="24.5" y2="20.5" stroke-width="0.19"></line><line x1="21.5" y1="16.5" x2="22.5" y2="17.5" stroke-width="0.24"></line><line x1="23.5" y1="16.5" x2="21.5" y2="18.5" stroke-width="0.23"></line><line x1="25.5" y1="16.5" x2="26.5" y2="17.5" stroke-width="0.19"></line><line x1="6.5" y1="17.5" x2="5.5" y2="18.5" stroke-width="0.24"></line><line x1="13.5" y1="17.5" x2="15.5" y2="19.5" stroke-width="0.29"></line><line x1="13.5" y1="17.5" x2="11.5" y2="19.5" stroke-width="0.19"></line><line x1="17.5" y1="17.5" x2="18.5" y2="18.5" stroke-width="0.12"></line><line x1="9.5" y1="18.5" x2="13.5" y2="22.5" stroke-width="0.28"></line><line x1="10.5" y1="18.5" x2="11.5" y2="19.5" stroke-width="0.14"></line><line x1="12.5" y1="18.5" x2="14.5" y2="20.5" stroke-width="0.25"></line><line x1="14.5" y1="18.5" x2="13.5" y2="19.5" stroke-width="0.26"></line><line x1="16.5" y1="18.5" x2="18.5" y2="20.5" stroke-width="0.13"></line><line x1="18.5" y1="18.5" x2="17.5" y2="19.5" stroke-width="0.25"></line><line x1="19.5" y1="18.5" x2="18.5" y2="19.5" stroke-width="0.17"></line><line x1="21.5" y1="18.5" x2="22.5" y2="19.5" stroke-width="0.27"></line><line x1="24.5" y1="18.5" x2="22.5" y2="20.5" stroke-width="0.16"></line><line x1="12.5" y1="19.5" x2="10.5" y2="21.5" stroke-width="0.25"></line><line x1="22.5" y1="20.5" x2="26.5" y2="24.5" stroke-width="0.11"></line><line x1="24.5" y1="20.5" x2="22.5" y2="22.5" stroke-width="0.28"></line><line x1="10.5" y1="21.5" x2="12.5" y2="23.5" stroke-width="0.23"></line><line x1="12.5" y1="21.5" x2="10.5" y2="23.5" stroke-width="0.25"></line><line x1="13.5" y1="21.5" x2="14.5" y2="22.5" stroke-width="0.24"></line><line x1="18.5" y1="21.5" x2="20.5" y2="23.5" stroke-width="0.17"></line><line x1="18.5" y1="21.5" x2="17.5" y2="22.5" stroke-width="0.28"></line><line x1="22.5" y1="21.5" x2="18.5" y2="25.5" stroke-width="0.14"></line><line x1="12.5" y1="22.5" x2="14.5" y2="24.5" stroke-width="0.16"></line><line x1="13.5" y1="22.5" x2="11.5" y2="24.5" stroke-width="0.14"></line><line x1="14.5" y1="22.5" x2="13.5" y2="23.5" stroke-width="0.2"></line><line x1="18.5" y1="22.5" x2="19.5" y2="23.5" stroke-width="0.25"></line><line x1="20.5" y1="22.5" x2="19.5" y2="23.5" stroke-width="0.16"></line><line x1="21.5" y1="22.5" x2="23.5" y2="24.5" stroke-width="0.2"></line><line x1="22.5" y1="22.5" x2="24.5" y2="24.5" stroke-width="0.16"></line><line x1="24.5" y1="22.5" x2="23.5" y2="23.5" stroke-width="0.22"></line><line x1="10.5" y1="23.5" x2="13.5" y2="26.5" stroke-width="0.19"></line><line x1="24.5" y1="23.5" x2="21.5" y2="26.5" stroke-width="0.15"></line><line x1="25.5" y1="23.5" x2="22.5" y2="26.5" stroke-width="0.19"></line><line x1="10.5" y1="24.5" x2="12.5" y2="26.5" stroke-width="0.27"></line><line x1="14.5" y1="24.5" x2="12.5" y2="26.5" stroke-width="0.13"></line><line x1="16.5" y1="24.5" x2="17.5" y2="25.5" stroke-width="0.17"></line><line x1="17.5" y1="24.5" x2="18.5" y2="25.5" stroke-width="0.14"></line><line x1="17.5" y1="24.5" x2="15.5" y2="26.5" stroke-width="0.27"></line><line x1="19.5" y1="24.5" x2="21.5" y2="26.5" stroke-width="0.26"></line><line x1="11.5" y1="25.5" x2="10.5" y2="26.5" stroke-width="0.22"></line><line x1="13.5" y1="25.5" x2="14.5" y2="26.5" stroke-width="0.17"></line><line x1="21.5" y1="25.5" x2="22.5" y2="26.5" stroke-width="0.14"></line><line x1="22.5" y1="25.5" x2="23.5" y2="26.5" stroke-width="0.18"></line><line x1="23.5" y1="25.5" x2="24.5" y2="26.5" stroke-width="0.2"></line><line x1="26.5" y1="25.5" x2="25.5" y2="26.5" stroke-width="0.27"></line></g><g fill="#000000"><circle cx="5.5" cy="5.5" r="1.5"></circle><circle cx="2.5" cy="2.5" r="0.5"></circle><circle cx="5.5" cy="2.5" r="0.5"></circle><circle cx="8.5" cy="2.5" r="0.5"></circle><circle cx="2.5" cy="5.5" r="0.5"></circle><circle cx="8.5" cy="5.5" r="0.5"></circle><circle cx="2.5" cy="8.5" r="0.5"></circle><circle cx="5.5" cy="8.5" r="0.5"></circle><circle cx="8.5" cy="8.5" r="0.5"></circle><circle cx="23.5" cy="5.5" r="1.5"></circle><circle cx="20.5" cy="2.5" r="0.5"></circle><circle cx="23.5" cy="2.5" r="0.5"></circle><circle cx="26.5" cy="2.5" r="0.5"></circle><circle cx="20.5" cy="5.5" r="0.5"></circle><circle cx="26.5" cy="5.5" r="0.5"></circle><circle cx="20.5" cy="8.5" r="0.5"></circle><circle cx="23.5" cy="8.5" r="0.5"></circle><circle cx="26.5" cy="8.5" r="0.5"></circle><circle cx="5.5" cy="23.5" r="1.5"></circle><circle cx="2.5" cy="20.5" r="0.5"></circle><circle cx="5.5" cy="20.5" r="0.5"></circle><circle cx="8.5" cy="20.5" r="0.5"></circle><circle cx="2.5" cy="23.5" r="0.5"></circle><circle cx="8.5" cy="23.5" r="0.5"></circle><circle cx="2.5" cy="26.5" r="0.5"></circle><circle cx="5.5" cy="26.5" r="0.5"></circle><circle cx="8.5" cy="26.5" r="0.5"></circle><circle cx="15.5" cy="2.5" r="0.3"></circle><circle cx="16.5" cy="2.5" r="0.37"></circle><circle cx="18.5" cy="2.5" r="0.31"></circle><circle cx="11.5" cy="3.5" r="0.22"></circle><circle cx="14.5" cy="3.5" r="0.27"></circle><circle cx="17.5" cy="3.5" r="0.22"></circle><circle cx="18.5" cy="3.5" r="0.28"></circle><circle cx="10.5" cy="4.5" r="0.32"></circle><circle cx="11.5" cy="4.5" r="0.28"></circle><circle cx="12.5" cy="4.5" r="0.37"></circle><circle cx="16.5" cy="4.5" r="0.21"></circle><circle cx="10.5" cy="5.5" r="0.31"></circle><circle cx="11.5" cy="5.5" r="0.39"></circle><circle cx="15.5" cy="5.5" r="0.27"></circle><circle cx="16.5" cy="5.5" r="0.3"></circle><circle cx="10.5" cy="6.5" r="0.35"></circle><circle cx="12.5" cy="6.5" r="0.25"></circle><circle cx="13.5" cy="6.5" r="0.27"></circle><circle cx="15.5" cy="6.5" r="0.36"></circle><circle cx="18.5" cy="6.5" r="0.23"></circle><circle cx="10.5" cy="7.5" r="0.21"></circle><circle cx="12.5" cy="7.5" r="0.39"></circle><circle cx="16.5" cy="7.5" r="0.25"></circle><circle cx="17.5" cy="7.5" r="0.31"></circle><circle cx="10.5" cy="8.5" r="0.27"></circle><circle cx="12.5" cy="8.5" r="0.27"></circle><circle cx="14.5" cy="8.5" r="0.36"></circle><circle cx="16.5" cy="8.5" r="0.31"></circle><circle cx="18.5" cy="8.5" r="0.27"></circle><circle cx="10.5" cy="9.5" r="0.25"></circle><circle cx="11.5" cy="9.5" r="0.34"></circle><circle cx="12.5" cy="9.5" r="0.35"></circle><circle cx="18.5" cy="9.5" r="0.28"></circle><circle cx="2.5" cy="10.5" r="0.24"></circle><circle cx="4.5" cy="10.5" r="0.28"></circle><circle cx="5.5" cy="10.5" r="0.34"></circle><circle cx="6.5" cy="10.5" r="0.33"></circle><circle cx="7.5" cy="10.5" r="0.35"></circle><circle cx="8.5" cy="10.5" r="0.37"></circle><circle cx="12.5" cy="10.5" r="0.2"></circle><circle cx="13.5" cy="10.5" r="0.37"></circle><circle cx="15.5" cy="10.5" r="0.3"></circle><circle cx="16.5" cy="10.5" r="0.24"></circle><circle cx="20.5" cy="10.5" r="0.29"></circle><circle cx="21.5" cy="10.5" r="0.25"></circle><circle cx="22.5" cy="10.5" r="0.24"></circle><circle cx="23.5" cy="10.5" r="0.36"></circle><circle cx="24.5" cy="10.5" r="0.27"></circle><circle cx="4.5" cy="11.5" r="0.3"></circle><circle cx="7.5" cy="11.5" r="0.23"></circle><circle cx="9.5" cy="11.5" r="0.37"></circle><circle cx="10.5" cy="11.5" r="0.33"></circle><circle cx="14.5" cy="11.5" r="0.35"></circle><circle cx="19.5" cy="11.5" r="0.2"></circle><circle cx="21.5" cy="11.5" r="0.32"></circle><circle cx="25.5" cy="11.5" r="0.31"></circle><circle cx="2.5" cy="12.5" r="0.27"></circle><circle cx="3.5" cy="12.5" r="0.39"></circle><circle cx="4.5" cy="12.5" r="0.34"></circle><circle cx="6.5" cy="12.5" r="0.27"></circle><circle cx="8.5" cy="12.5" r="0.36"></circle><circle cx="11.5" cy="12.5" r="0.38"></circle><circle cx="12.5" cy="12.5" r="0.36"></circle><circle cx="16.5" cy="12.5" r="0.27"></circle><circle cx="17.5" cy="12.5" r="0.31"></circle><circle cx="18.5" cy="12.5" r="0.37"></circle><circle cx="20.5" cy="12.5" r="0.24"></circle><circle cx="21.5" cy="12.5" r="0.37"></circle><circle cx="23.5" cy="12.5" r="0.2"></circle><circle cx="25.5" cy="12.5" r="0.22"></circle><circle cx="26.5" cy="12.5" r="0.38"></circle><circle cx="3.5" cy="13.5" r="0.31"></circle><circle cx="5.5" cy="13.5" r="0.34"></circle><circle cx="7.5" cy="13.5" r="0.23"></circle><circle cx="9.5" cy="13.5" r="0.25"></circle><circle cx="11.5" cy="13.5" r="0.32"></circle><circle cx="13.5" cy="13.5" r="0.24"></circle><circle cx="16.5" cy="13.5" r="0.2"></circle><circle cx="17.5" cy="13.5" r="0.23"></circle><circle cx="18.5" cy="13.5" r="0.32"></circle><circle cx="26.5" cy="13.5" r="0.37"></circle><circle cx="4.5" cy="14.5" r="0.24"></circle><circle cx="7.5" cy="14.5" r="0.2"></circle><circle cx="8.5" cy="14.5" r="0.35"></circle><circle cx="9.5" cy="14.5" r="0.33"></circle><circle cx="12.5" cy="14.5" r="0.21"></circle><circle cx="13.5" cy="14.5" r="0.29"></circle><circle cx="14.5" cy="14.5" r="0.39"></circle><circle cx="15.5" cy="14.5" r="0.2"></circle><circle cx="16.5" cy="14.5" r="0.26"></circle><circle cx="17.5" cy="14.5" r="0.39"></circle><circle cx="19.5" cy="14.5" r="0.22"></circle><circle cx="20.5" cy="14.5" r="0.35"></circle><circle cx="21.5" cy="14.5" r="0.38"></circle><circle cx="22.5" cy="14.5" r="0.21"></circle><circle cx="24.5" cy="14.5" r="0.22"></circle><circle cx="25.5" cy="14.5" r="0.2"></circle><circle cx="26.5" cy="14.5" r="0.28"></circle><circle cx="2.5" cy="15.5" r="0.38"></circle><circle cx="4.5" cy="15.5" r="0.21"></circle><circle cx="6.5" cy="15.5" r="0.35"></circle><circle cx="7.5" cy="15.5" r="0.38"></circle><circle cx="11.5" cy="15.5" r="0.24"></circle><circle cx="14.5" cy="15.5" r="0.32"></circle><circle cx="15.5" cy="15.5" r="0.33"></circle><circle cx="16.5" cy="15.5" r="0.38"></circle><circle cx="18.5" cy="15.5" r="0.22"></circle><circle cx="21.5" cy="15.5" r="0.31"></circle><circle cx="23.5" cy="15.5" r="0.25"></circle><circle cx="25.5" cy="15.5" r="0.39"></circle><circle cx="2.5" cy="16.5" r="0.26"></circle><circle cx="4.5" cy="16.5" r="0.24"></circle><circle cx="5.5" cy="16.5" r="0.34"></circle><circle cx="8.5" cy="16.5" r="0.34"></circle><circle cx="11.5" cy="16.5" r="0.38"></circle><circle cx="15.5" cy="16.5" r="0.29"></circle><circle cx="17.5" cy="16.5" r="0.34"></circle><circle cx="18.5" cy="16.5" r="0.25"></circle><circle cx="19.5" cy="16.5" r="0.34"></circle><circle cx="20.5" cy="16.5" r="0.37"></circle><circle cx="21.5" cy="16.5" r="0.21"></circle><circle cx="22.5" cy="16.5" r="0.36"></circle><circle cx="23.5" cy="16.5" r="0.28"></circle><circle cx="25.5" cy="16.5" r="0.27"></circle><circle cx="26.5" cy="16.5" r="0.35"></circle><circle cx="2.5" cy="17.5" r="0.2"></circle><circle cx="6.5" cy="17.5" r="0.37"></circle><circle cx="12.5" cy="17.5" r="0.3"></circle><circle cx="13.5" cy="17.5" r="0.33"></circle><circle cx="17.5" cy="17.5" r="0.32"></circle><circle cx="18.5" cy="17.5" r="0.39"></circle><circle cx="21.5" cy="17.5" r="0.26"></circle><circle cx="22.5" cy="17.5" r="0.31"></circle><circle cx="26.5" cy="17.5" r="0.39"></circle><circle cx="2.5" cy="18.5" r="0.33"></circle><circle cx="4.5" cy="18.5" r="0.21"></circle><circle cx="5.5" cy="18.5" r="0.32"></circle><circle cx="6.5" cy="18.5" r="0.34"></circle><circle cx="8.5" cy="18.5" r="0.35"></circle><circle cx="9.5" cy="18.5" r="0.24"></circle><circle cx="10.5" cy="18.5" r="0.31"></circle><circle cx="12.5" cy="18.5" r="0.33"></circle><circle cx="14.5" cy="18.5" r="0.23"></circle><circle cx="15.5" cy="18.5" r="0.2"></circle><circle cx="16.5" cy="18.5" r="0.2"></circle><circle cx="18.5" cy="18.5" r="0.39"></circle><circle cx="19.5" cy="18.5" r="0.28"></circle><circle cx="20.5" cy="18.5" r="0.29"></circle><circle cx="21.5" cy="18.5" r="0.21"></circle><circle cx="22.5" cy="18.5" r="0.36"></circle><circle cx="24.5" cy="18.5" r="0.2"></circle><circle cx="10.5" cy="19.5" r="0.29"></circle><circle cx="11.5" cy="19.5" r="0.22"></circle><circle cx="12.5" cy="19.5" r="0.36"></circle><circle cx="13.5" cy="19.5" r="0.31"></circle><circle cx="15.5" cy="19.5" r="0.35"></circle><circle cx="17.5" cy="19.5" r="0.36"></circle><circle cx="18.5" cy="19.5" r="0.3"></circle><circle cx="22.5" cy="19.5" r="0.33"></circle><circle cx="23.5" cy="19.5" r="0.37"></circle><circle cx="11.5" cy="20.5" r="0.25"></circle><circle cx="14.5" cy="20.5" r="0.39"></circle><circle cx="18.5" cy="20.5" r="0.37"></circle><circle cx="20.5" cy="20.5" r="0.27"></circle><circle cx="22.5" cy="20.5" r="0.26"></circle><circle cx="24.5" cy="20.5" r="0.37"></circle><circle cx="25.5" cy="20.5" r="0.36"></circle><circle cx="26.5" cy="20.5" r="0.31"></circle><circle cx="10.5" cy="21.5" r="0.29"></circle><circle cx="12.5" cy="21.5" r="0.37"></circle><circle cx="13.5" cy="21.5" r="0.26"></circle><circle cx="18.5" cy="21.5" r="0.24"></circle><circle cx="22.5" cy="21.5" r="0.29"></circle><circle cx="23.5" cy="21.5" r="0.21"></circle><circle cx="10.5" cy="22.5" r="0.3"></circle><circle cx="11.5" cy="22.5" r="0.26"></circle><circle cx="12.5" cy="22.5" r="0.25"></circle><circle cx="13.5" cy="22.5" r="0.39"></circle><circle cx="14.5" cy="22.5" r="0.35"></circle><circle cx="15.5" cy="22.5" r="0.24"></circle><circle cx="16.5" cy="22.5" r="0.2"></circle><circle cx="17.5" cy="22.5" r="0.36"></circle><circle cx="18.5" cy="22.5" r="0.27"></circle><circle cx="19.5" cy="22.5" r="0.25"></circle><circle cx="20.5" cy="22.5" r="0.29"></circle><circle cx="21.5" cy="22.5" r="0.38"></circle><circle cx="22.5" cy="22.5" r="0.27"></circle><circle cx="24.5" cy="22.5" r="0.28"></circle><circle cx="10.5" cy="23.5" r="0.34"></circle><circle cx="12.5" cy="23.5" r="0.33"></circle><circle cx="13.5" cy="23.5" r="0.32"></circle><circle cx="19.5" cy="23.5" r="0.22"></circle><circle cx="20.5" cy="23.5" r="0.27"></circle><circle cx="22.5" cy="23.5" r="0.34"></circle><circle cx="23.5" cy="23.5" r="0.39"></circle><circle cx="24.5" cy="23.5" r="0.21"></circle><circle cx="25.5" cy="23.5" r="0.29"></circle><circle cx="26.5" cy="23.5" r="0.35"></circle><circle cx="10.5" cy="24.5" r="0.37"></circle><circle cx="11.5" cy="24.5" r="0.33"></circle><circle cx="14.5" cy="24.5" r="0.23"></circle><circle cx="16.5" cy="24.5" r="0.21"></circle><circle cx="17.5" cy="24.5" r="0.3"></circle><circle cx="19.5" cy="24.5" r="0.38"></circle><circle cx="23.5" cy="24.5" r="0.25"></circle><circle cx="24.5" cy="24.5" r="0.31"></circle><circle cx="26.5" cy="24.5" r="0.26"></circle><circle cx="11.5" cy="25.5" r="0.23"></circle><circle cx="12.5" cy="25.5" r="0.27"></circle><circle cx="13.5" cy="25.5" r="0.32"></circle><circle cx="16.5" cy="25.5" r="0.36"></circle><circle cx="17.5" cy="25.5" r="0.2"></circle><circle cx="18.5" cy="25.5" r="0.33"></circle><circle cx="20.5" cy="25.5" r="0.39"></circle><circle cx="21.5" cy="25.5" r="0.23"></circle><circle cx="22.5" cy="25.5" r="0.25"></circle><circle cx="23.5" cy="25.5" r="0.23"></circle><circle cx="26.5" cy="25.5" r="0.31"></circle><circle cx="10.5" cy="26.5" r="0.36"></circle><circle cx="12.5" cy="26.5" r="0.22"></circle><circle cx="13.5" cy="26.5" r="0.24"></circle><circle cx="14.5" cy="26.5" r="0.23"></circle><circle cx="15.5" cy="26.5" r="0.35"></circle><circle cx="21.5" cy="26.5" r="0.2"></circle><circle cx="22.5" cy="26.5" r="0.28"></circle><circle cx="23.5" cy="26.5" r="0.25"></circle><circle cx="24.5" cy="26.5" r="0.37"></circle><circle cx="25.5" cy="26.5" r="0.33"></circle><circle cx="26.5" cy="26.5" r="0.26"></circle></g></svg>