<svg xmlns="http://www.w3.org/2000/svg" viewBox="-2 -2 29 29"><rect x="-2" y="-2" width="29" height="29" fill="#ffffff"></rect><g fill="#131d87"><rect x="2" y="0" width="3" height="1"></rect><rect x="2" y="2" width="3" height="3"></rect><rect x="0" y="2" width="1" height="3"></rect><rect x="6" y="2" width="1" height="3"></rect><rect x="2" y="6" width="3" height="1"></rect><rect x="20" y="0" width="3" height="1"></rect><rect x="20" y="2" width="3" height="3"></rect><rect x="18" y="2" width="1" height="3"></rect><rect x="24" y="2" width="1" height="3"></rect><rect x="20" y="6" width="3" height="1"></rect><rect x="2" y="18" width="3" height="1"></rect><rect x="2" y="20" width="3" height="3"></rect><rect x="0" y="20" width="1" height="3"></rect><rect x="6" y="20" width="1" height="3"></rect><rect x="2" y="24" width="3" height="1"></rect></g><g fill="#d21313"><rect x="9.15" y="1.15" width="0.7" height="1.7" fill="#d21313"></rect><rect x="9.15" y="3.15" width="0.7" height="0.7" fill="#d21313"></rect><rect x="8.15" y="2.15" width="0.7" height="4.7" fill="#d21313"></rect><rect x="8.15" y="7.15" width="0.7" height="0.7" fill="#d21313"></rect><rect x="10.15" y="4.15" width="0.7" height="3.7" fill="#d21313"></rect><rect x="10.15" y="8.15" width="0.7" height="0.7" fill="#d21313"></rect><rect x="2.15" y="8.15" width="0.7" height="1.7" fill="#d21313"></rect><rect x="2.15" y="10.15" width="0.7" height="0.7" fill="#d21313"></rect><rect x="2.15" y="12.15" width="0.7" height="1.7" fill="#d21313"></rect><rect x="2.15" y="14.15" width="0.7" height="0.7" fill="#d21313"></rect><rect x="0.15000000000000002" y="13.15" width="0.7" height="2.7" fill="#d21313"></rect><rect x="0.15000000000000002" y="16.15" width="0.7" height="0.7" fill="#d21313"></rect><rect x="16.15" y="13.15" width="0.7" height="6.7" fill="#d21313"></rect><rect x="16.15" y="20.15" width="0.7" height="0.7" fill="#d21313"></rect><rect x="19.15" y="13.15" width="0.7" height="2.7" fill="#d21313"></rect><rect x="19.15" y="16.15" width="0.7" height="0.7" fill="#d21313"></rect><rect x="20.15" y="14.15" width="0.7" height="6.7" fill="#d21313"></rect><rect x="20.15" y="21.15" width="0.7" height="0.7" fill="#d21313"></rect><rect x="10.15" y="15.15" width="0.7" height="1.7" fill="#d21313"></rect><rect x="10.15" y="17.15" width="0.7" height="0.7" fill="#d21313"></rect><rect x="11.15" y="19.15" width="0.7" height="1.7" fill="#d21313"></rect><rect x="11.15" y="21.15" width="0.7" height="0.7" fill="#d21313"></rect><rect x="22.15" y="20.15" width="0.7" height="1.7" fill="#d21313"></rect><rect x="22.15" y="22.15" width="0.7" height="0.7" fill="#d21313"></rect><rect x="21.15" y="21.15" width="0.7" height="2.7" fill="#d21313"></rect><rect x="21.15" y="24.15" width="0.7" height="0.7" fill="#d21313"></rect><rect x="24.15" y="22.15" width="0.7" height="1.7" fill="#d21313"></rect><rect x="24.15" y="24.15" width="0.7" height="0.7" fill="#d21313"></rect></g><g fill="#dc9c07"><rect x="13.15" y="0.15000000000000002" width="1.7" height="0.7" fill="#dc9c07"></rect><rect x="16.15" y="0.15000000000000002" width="0.7" height="0.7" fill="#dc9c07"></rect><rect x="12.15" y="1.15" width="0.7" height="0.7" fill="#dc9c07"></rect><rect x="15.15" y="1.15" width="1.7" height="0.7" fill="#dc9c07"></rect><rect x="10.15" y="2.15" width="0.7" height="0.7" fill="#dc9c07"></rect><rect x="14.15" y="2.15" width="0.7" height="0.7" fill="#dc9c07"></rect><rect x="13.15" y="3.15" width="1.7" height="0.7" fill="#dc9c07"></rect><rect x="11.15" y="4.15" width="0.7" height="0.7" fill="#dc9c07"></rect><rect x="13.15" y="4.15" width="0.7" height="0.7" fill="#dc9c07"></rect><rect x="16.15" y="4.15" width="0.7" height="0.7" fill="#dc9c07"></rect><rect x="14.15" y="5.15" width="1.7" height="0.7" fill="#dc9c07"></rect><rect x="12.15" y="6.15" width="0.7" height="0.7" fill="#dc9c07"></rect><rect x="14.15" y="6.15" width="0.7" height="0.7" fill="#dc9c07"></rect><rect x="16.15" y="6.15" width="0.7" height="0.7" fill="#dc9c07"></rect><rect x="9.15" y="7.15" width="0.7" height="0.7" fill="#dc9c07"></rect><rect x="16.15" y="7.15" width="0.7" height="0.7" fill="#dc9c07"></rect><rect x="0.15000000000000002" y="8.15" width="0.7" height="0.7" fill="#dc9c07"></rect><rect x="3.15" y="8.15" width="3.7" height="0.7" fill="#dc9c07"></rect><rect x="11.15" y="8.15" width="0.7" height="0.7" fill="#dc9c07"></rect><rect x="13.15" y="8.15" width="1.7" height="0.7" fill="#dc9c07"></rect><rect x="18.15" y="8.15" width="4.7" height="0.7" fill="#dc9c07"></rect><rect x="8.15" y="9.15" width="0.7" height="0.7" fill="#dc9c07"></rect><rect x="12.15" y="9.15" width="0.7" height="0.7" fill="#dc9c07"></rect><rect x="17.15" y="9.15" width="0.7" height="0.7" fill="#dc9c07"></rect><rect x="19.15" y="9.15" width="0.7" height="0.7" fill="#dc9c07"></rect><rect x="23.15" y="9.15" width="0.7" height="0.7" fill="#dc9c07"></rect><rect x="0.15000000000000002" y="10.15" width="1.7" height="0.7" fill="#dc9c07"></rect><rect x="4.15" y="10.15" width="0.7" height="0.7" fill="#dc9c07"></rect><rect x="9.15" y="10.15" width="1.7" height="0.7" fill="#dc9c07"></rect><rect x="16.15" y="10.15" width="0.7" height="0.7" fill="#dc9c07"></rect><rect x="18.15" y="10.15" width="1.7" height="0.7" fill="#dc9c07"></rect><rect x="21.15" y="10.15" width="0.7" height="0.7" fill="#dc9c07"></rect><rect x="23.15" y="10.15" width="1.7" height="0.7" fill="#dc9c07"></rect><rect x="1.15" y="11.15" width="0.7" height="0.7" fill="#dc9c07"></rect><rect x="3.15" y="11.15" width="0.7" height="0.7" fill="#dc9c07"></rect><rect x="9.15" y="11.15" width="0.7" height="0.7" fill="#dc9c07"></rect><rect x="11.15" y="11.15" width="0.7" height="0.7" fill="#dc9c07"></rect><rect x="16.15" y="11.15" width="0.7" height="0.7" fill="#dc9c07"></rect><rect x="24.15" y="11.15" width="0.7" height="0.7" fill="#dc9c07"></rect><rect x="5.15" y="12.15" width="2.7" height="0.7" fill="#dc9c07"></rect><rect x="10.15" y="12.15" width="5.7" height="0.7" fill="#dc9c07"></rect><rect x="17.15" y="12.15" width="3.7" height="0.7" fill="#dc9c07"></rect><rect x="22.15" y="12.15" width="2.7" height="0.7" fill="#dc9c07"></rect><rect x="4.15" y="13.15" width="1.7" height="0.7" fill="#dc9c07"></rect><rect x="9.15" y="13.15" width="0.7" height="0.7" fill="#dc9c07"></rect><rect x="12.15" y="13.15" width="2.7" height="0.7" fill="#dc9c07"></rect><rect x="21.15" y="13.15" width="0.7" height="0.7" fill="#dc9c07"></rect><rect x="23.15" y="13.15" width="0.7" height="0.7" fill="#dc9c07"></rect><rect x="3.15" y="14.15" width="0.7" height="0.7" fill="#dc9c07"></rect><rect x="6.15" y="14.15" width="0.7" height="0.7" fill="#dc9c07"></rect><rect x="9.15" y="14.15" width="0.7" height="0.7" fill="#dc9c07"></rect><rect x="13.15" y="14.15" width="0.7" height="0.7" fill="#dc9c07"></rect><rect x="15.15" y="14.15" width="0.7" height="0.7" fill="#dc9c07"></rect><rect x="17.15" y="14.15" width="1.7" height="0.7" fill="#dc9c07"></rect><rect x="21.15" y="14.15" width="0.7" height="0.7" fill="#dc9c07"></rect><rect x="23.15" y="14.15" width="1.7" height="0.7" fill="#dc9c07"></rect><rect x="4.15" y="15.15" width="0.7" height="0.7" fill="#dc9c07"></rect><rect x="11.15" y="15.15" width="0.7" height="0.7" fill="#dc9c07"></rect><rect x="15.15" y="15.15" width="0.7" height="0.7" fill="#dc9c07"></rect><rect x="24.15" y="15.15" width="0.7" height="0.7" fill="#dc9c07"></rect><rect x="2.15" y="16.15" width="2.7" height="0.7" fill="#dc9c07"></rect><rect x="6.15" y="16.15" width="2.7" height="0.7" fill="#dc9c07"></rect><rect x="12.15" y="16.15" width="2.7" height="0.7" fill="#dc9c07"></rect><rect x="17.15" y="16.15" width="1.7" height="0.7" fill="#dc9c07"></rect><rect x="22.15" y="16.15" width="0.7" height="0.7" fill="#dc9c07"></rect><rect x="8.15" y="17.15" width="1.7" height="0.7" fill="#dc9c07"></rect><rect x="11.15" y="17.15" width="0.7" height="0.7" fill="#dc9c07"></rect><rect x="13.15" y="17.15" width="0.7" height="0.7" fill="#dc9c07"></rect><rect x="15.15" y="17.15" width="0.7" height="0.7" fill="#dc9c07"></rect><rect x="21.15" y="17.15" width="0.7" height="0.7" fill="#dc9c07"></rect><rect x="9.15" y="18.15" width="0.7" height="0.7" fill="#dc9c07"></rect><rect x="12.15" y="18.15" width="0.7" height="0.7" fill="#dc9c07"></rect><rect x="18.15" y="18.15" width="0.7" height="0.7" fill="#dc9c07"></rect><rect x="22.15" y="18.15" width="2.7" height="0.7" fill="#dc9c07"></rect><rect x="21.15" y="19.15" width="0.7" height="0.7" fill="#dc9c07"></rect><rect x="8.15" y="20.15" width="0.7" height="0.7" fill="#dc9c07"></rect><rect x="10.15" y="20.15" width="0.7" height="0.7" fill="#dc9c07"></rect><rect x="12.15" y="20.15" width="3.7" height="0.7" fill="#dc9c07"></rect><rect x="19.15" y="20.15" width="0.7" height="0.7" fill="#dc9c07"></rect><rect x="23.15" y="21.15" width="1.7" height="0.7" fill="#dc9c07"></rect><rect x="8.15" y="22.15" width="1.7" height="0.7" fill="#dc9c07"></rect><rect x="12.15" y="22.15" width="0.7" height="0.7" fill="#dc9c07"></rect><rect x="17.15" y="22.15" width="0.7" height="0.7" fill="#dc9c07"></rect><rect x="9.15" y="23.15" width="2.7" height="0.7" fill="#dc9c07"></rect><rect x="16.15" y="23.15" width="0.7" height="0.7" fill="#dc9c07"></rect><rect x="18.15" y="23.15" width="2.7" height="0.7" fill="#dc9c07"></rect><rect x="8.15" y="24.15" width="0.7" height="0.7" fill="#dc9c07"></rect><rect x="10.15" y="24.15" width="3.7" height="0.7" fill="#dc9c07"></rect><rect x="19.15" y="24.15" width="1.7" height="0.7" fill="#dc9c07"></rect><rect x="22.15" y="24.15" width="1.7" height="0.7" fill="#dc9c07"></rect></g><g stroke-width="0.7" stroke="#131d87"><g><line x1="5.247487373415291" y1="9.247487373415291" x2="7.752512626584709" y2="11.752512626584709"></line><line x1="7.752512626584709" y1="9.247487373415291" x2="5.247487373415291" y2="11.752512626584709"></line></g><g><line x1="14.247487373415291" y1="10.247487373415291" x2="15.752512626584709" y2="11.752512626584709"></line><line x1="15.752512626584709" y1="10.247487373415291" x2="14.247487373415291" y2="11.752512626584709"></line></g><g><line x1="8.247487373415291" y1="19.247487373415293" x2="10.752512626584709" y2="21.752512626584707"></line><line x1="10.752512626584709" y1="19.247487373415293" x2="8.247487373415291" y2="21.752512626584707"></line></g><g><line x1="17.247487373415293" y1="20.247487373415293" x2="18.752512626584707" y2="21.752512626584707"></line><line x1="18.752512626584707" y1="20.247487373415293" x2="17.247487373415293" y2="21.752512626584707"></line></g><g><line x1="14.247487373415291" y1="22.247487373415293" x2="15.752512626584709" y2="23.752512626584707"></line><line x1="15.752512626584709" y1="22.247487373415293" x2="14.247487373415291" y2="23.752512626584707"></line></g></g></svg>