<svg xmlns="http://www.w3.org/2000/svg" viewBox="0 0 29 29"><rect width="29" height="29" fill="#ffffff"></rect><rect x="4" y="2" width="3" height="1" fill="#131d87"></rect><rect x="4" y="4" width="3" height="3" fill="#131d87"></rect><rect x="2" y="4" width="1" height="3" fill="#131d87"></rect><rect x="8" y="4" width="1" height="3" fill="#131d87"></rect><rect x="4" y="8" width="3" height="1" fill="#131d87"></rect><rect x="22" y="2" width="3" height="1" fill="#131d87"></rect><rect x="22" y="4" width="3" height="3" fill="#131d87"></rect><rect x="20" y="4" width="1" height="3" fill="#131d87"></rect><rect x="26" y="4" width="1" height="3" fill="#131d87"></rect><rect x="22" y="8" width="3" height="1" fill="#131d87"></rect><rect x="4" y="20" width="3" height="1" fill="#131d87"></rect><rect x="4" y="22" width="3" height="3" fill="#131d87"></rect><rect x="2" y="22" width="1" height="3" fill="#131d87"></rect><rect x="8" y="22" width="1" height="3" fill="#131d87"></rect><rect x="4" y="26" width="3" height="1" fill="#131d87"></rect><rect x="15.15" y="2.15" width="1.7" height="0.7" fill="#dc9c07"></rect><rect x="18.15" y="2.15" width="0.7" height="0.7" fill="#dc9c07"></rect><rect x="11.15" y="3.15" width="0.7" height="1.7" fill="#d21313"></rect><rect x="11.15" y="5.15" width="0.7" height="0.7" fill="#d21313"></rect><rect x="14.15" y="3.15" width="0.7" height="0.7" fill="#dc9c07"></rect><rect x="17.15" y="3.15" width="1.7" height="0.7" fill="#dc9c07"></rect><rect x="10.15" y="4.15" width="0.7" height="4.7" fill="#d21313"></rect><rect x="10.15" y="9.15" width="0.7" height="0.7" fill="#d21313"></rect><rect x="12.15" y="4.15" width="0.7" height="0.7" fill="#dc9c07"></rect><rect x="16.15" y="4.15" width="0.7" height="0.7" fill="#dc9c07"></rect><rect x="15.15" y="5.15" width="1.7" height="0.7" fill="#dc9c07"></rect><rect x="12.15" y="6.15" width="0.7" height="3.7" fill="#d21313"></rect><rect x="12.15" y="10.15" width="0.7" height="0.7" fill="#d21313"></rect><rect x="13.15" y="6.15" width="0.7" height="0.7" fill="#dc9c07"></rect><rect x="15.15" y="6.15" width="0.7" height="0.7" fill="#dc9c07"></rect><rect x="18.15" y="6.15" width="0.7" height="0.7" fill="#dc9c07"></rect><rect x="16.15" y="7.15" width="1.7" height="0.7" fill="#dc9c07"></rect><rect x="14.15" y="8.15" width="0.7" height="0.7" fill="#dc9c07"></rect><rect x="16.15" y="8.15" width="0.7" height="0.7" fill="#dc9c07"></rect><rect x="18.15" y="8.15" width="0.7" height="0.7" fill="#dc9c07"></rect><rect x="11.15" y="9.15" width="0.7" height="0.7" fill="#dc9c07"></rect><rect x="18.15" y="9.15" width="0.7" height="0.7" fill="#dc9c07"></rect><rect x="2.15" y="10.15" width="0.7" height="0.7" fill="#dc9c07"></rect><rect x="4.15" y="10.15" width="0.7" height="1.7" fill="#d21313"></rect><rect x="4.15" y="12.15" width="0.7" height="0.7" fill="#d21313"></rect><rect x="5.15" y="10.15" width="3.7" height="0.7" fill="#dc9c07"></rect><rect x="13.15" y="10.15" width="0.7" height="0.7" fill="#dc9c07"></rect><rect x="15.15" y="10.15" width="1.7" height="0.7" fill="#dc9c07"></rect><rect x="20.15" y="10.15" width="4.7" height="0.7" fill="#dc9c07"></rect><rect x="10.15" y="11.15" width="0.7" height="0.7" fill="#dc9c07"></rect><rect x="14.15" y="11.15" width="0.7" height="0.7" fill="#dc9c07"></rect><rect x="19.15" y="11.15" width="0.7" height="0.7" fill="#dc9c07"></rect><rect x="21.15" y="11.15" width="0.7" height="0.7" fill="#dc9c07"></rect><rect x="25.15" y="11.15" width="0.7" height="0.7" fill="#dc9c07"></rect><rect x="2.15" y="12.15" width="1.7" height="0.7" fill="#dc9c07"></rect><rect x="6.15" y="12.15" width="0.7" height="0.7" fill="#dc9c07"></rect><rect x="11.15" y="12.15" width="1.7" height="0.7" fill="#dc9c07"></rect><rect x="18.15" y="12.15" width="0.7" height="0.7" fill="#dc9c07"></rect><rect x="20.15" y="12.15" width="1.7" height="0.7" fill="#dc9c07"></rect><rect x="23.15" y="12.15" width="0.7" height="0.7" fill="#dc9c07"></rect><rect x="25.15" y="12.15" width="1.7" height="0.7" fill="#dc9c07"></rect><rect x="3.15" y="13.15" width="0.7" height="0.7" fill="#dc9c07"></rect><rect x="5.15" y="13.15" width="0.7" height="0.7" fill="#dc9c07"></rect><rect x="11.15" y="13.15" width="0.7" height="0.7" fill="#dc9c07"></rect><rect x="13.15" y="13.15" width="0.7" height="0.7" fill="#dc9c07"></rect><rect x="18.15" y="13.15" width="0.7" height="0.7" fill="#dc9c07"></rect><rect x="26.15" y="13.15" width="0.7" height="0.7" fill="#dc9c07"></rect><rect x="4.15" y="14.15" width="0.7" height="1.7" fill="#d21313"></rect><rect x="4.15" y="16.15" width="0.7" height="0.7" fill="#d21313"></rect><rect x="7.15" y="14.15" width="2.7" height="0.7" fill="#dc9c07"></rect><rect x="12.15" y="14.15" width="5.7" height="0.7" fill="#dc9c07"></rect><rect x="19.15" y="14.15" width="3.7" height="0.7" fill="#dc9c07"></rect><rect x="24.15" y="14.15" width="2.7" height="0.7" fill="#dc9c07"></rect><rect x="2.15" y="15.15" width="0.7" height="2.7" fill="#d21313"></rect><rect x="2.15" y="18.15" width="0.7" height="0.7" fill="#d21313"></rect><rect x="6.15" y="15.15" width="1.7" height="0.7" fill="#dc9c07"></rect><rect x="11.15" y="15.15" width="0.7" height="0.7" fill="#dc9c07"></rect><rect x="14.15" y="15.15" width="2.7" height="0.7" fill="#dc9c07"></rect><rect x="18.15" y="15.15" width="0.7" height="6.7" fill="#d21313"></rect><rect x="18.15" y="22.15" width="0.7" height="0.7" fill="#d21313"></rect><rect x="21.15" y="15.15" width="0.7" height="2.7" fill="#d21313"></rect><rect x="21.15" y="18.15" width="0.7" height="0.7" fill="#d21313"></rect><rect x="23.15" y="15.15" width="0.7" height="0.7" fill="#dc9c07"></rect><rect x="25.15" y="15.15" width="0.7" height="0.7" fill="#dc9c07"></rect><rect x="5.15" y="16.15" width="0.7" height="0.7" fill="#dc9c07"></rect><rect x="8.15" y="16.15" width="0.7" height="0.7" fill="#dc9c07"></rect><rect x="11.15" y="16.15" width="0.7" height="0.7" fill="#dc9c07"></rect><rect x="15.15" y="16.15" width="0.7" height="0.7" fill="#dc9c07"></rect><rect x="17.15" y="16.15" width="0.7" height="0.7" fill="#dc9c07"></rect><rect x="19.15" y="16.15" width="1.7" height="0.7" fill="#dc9c07"></rect><rect x="22.15" y="16.15" width="0.7" height="6.7" fill="#d21313"></rect><rect x="22.15" y="23.15" width="0.7" height="0.7" fill="#d21313"></rect><rect x="23.15" y="16.15" width="0.7" height="0.7" fill="#dc9c07"></rect><rect x="25.15" y="16.15" width="1.7" height="0.7" fill="#dc9c07"></rect><rect x="6.15" y="17.15" width="0.7" height="0.7" fill="#dc9c07"></rect><rect x="12.15" y="17.15" width="0.7" height="1.7" fill="#d21313"></rect><rect x="12.15" y="19.15" width="0.7" height="0.7" fill="#d21313"></rect><rect x="13.15" y="17.15" width="0.7" height="0.7" fill="#dc9c07"></rect><rect x="17.15" y="17.15" width="0.7" height="0.7" fill="#dc9c07"></rect><rect x="26.15" y="17.15" width="0.7" height="0.7" fill="#dc9c07"></rect><rect x="4.15" y="18.15" width="2.7" height="0.7" fill="#dc9c07"></rect><rect x="8.15" y="18.15" width="2.7" height="0.7" fill="#dc9c07"></rect><rect x="14.15" y="18.15" width="2.7" height="0.7" fill="#dc9c07"></rect><rect x="19.15" y="18.15" width="1.7" height="0.7" fill="#dc9c07"></rect><rect x="24.15" y="18.15" width="0.7" height="0.7" fill="#dc9c07"></rect><rect x="10.15" y="19.15" width="1.7" height="0.7" fill="#dc9c07"></rect><rect x="13.15" y="19.15" width="0.7" height="0.7" fill="#dc9c07"></rect><rect x="15.15" y="19.15" width="0.7" height="0.7" fill="#dc9c07"></rect><rect x="17.15" y="19.15" width="0.7" height="0.7" fill="#dc9c07"></rect><rect x="23.15" y="19.15" width="0.7" height="0.7" fill="#dc9c07"></rect><rect x="11.15" y="20.15" width="0.7" height="0.7" fill="#dc9c07"></rect><rect x="14.15" y="20.15" width="0.7" height="0.7" fill="#dc9c07"></rect><rect x="20.15" y="20.15" width="0.7" height="0.7" fill="#dc9c07"></rect><rect x="24.15" y="20.15" width="2.7" height="0.7" fill="#dc9c07"></rect><rect x="13.15" y="21.15" width="0.7" height="1.7" fill="#d21313"></rect><rect x="13.15" y="23.15" width="0.7" height="0.7" fill="#d21313"></rect><rect x="23.15" y="21.15" width="0.7" height="0.7" fill="#dc9c07"></rect><rect x="10.15" y="22.15" width="0.7" height="0.7" fill="#dc9c07"></rect><rect x="12.15" y="22.15" width="0.7" height="0.7" fill="#dc9c07"></rect><rect x="14.15" y="22.15" width="3.7" height="0.7" fill="#dc9c07"></rect><rect x="21.15" y="22.15" width="0.7" height="0.7" fill="#dc9c07"></rect><rect x="24.15" y="22.15" width="0.7" height="1.7" fill="#d21313"></rect><rect x="24.15" y="24.15" width="0.7" height="0.7" fill="#d21313"></rect><rect x="23.15" y="23.15" width="0.7" height="2.7" fill="#d21313"></rect><rect x="23.15" y="26.15" width="0.7" height="0.7" fill="#d21313"></rect><rect x="25.15" y="23.15" width="1.7" height="0.7" fill="#dc9c07"></rect><rect x="10.15" y="24.15" width="1.7" height="0.7" fill="#dc9c07"></rect><rect x="14.15" y="24.15" width="0.7" height="0.7" fill="#dc9c07"></rect><rect x="19.15" y="24.15" width="0.7" height="0.7" fill="#dc9c07"></rect><rect x="26.15" y="24.15" width="0.7" height="1.7" fill="#d21313"></rect><rect x="26.15" y="26.15" width="0.7" height="0.7" fill="#d21313"></rect><rect x="11.15" y="25.15" width="2.7" height="0.7" fill="#dc9c07"></rect><rect x="18.15" y="25.15" width="0.7" height="0.7" fill="#dc9c07"></rect><rect x="20.15" y="25.15" width="2.7" height="0.7" fill="#dc9c07"></rect><rect x="10.15" y="26.15" width="0.7" height="0.7" fill="#dc9c07"></rect><rect x="12.15" y="26.15" width="3.7" height="0.7" fill="#dc9c07"></rect><rect x="21.15" y="26.15" width="1.7" height="0.7" fill="#dc9c07"></rect><rect x="24.15" y="26.15" width="1.7" height="0.7" fill="#dc9c07"></rect><g><g stroke-width="0.7" stroke="#131d87"><line x1="7.247487373415291" y1="11.247487373415291" x2="9.752512626584709" y2="13.752512626584709"></line><line x1="9.752512626584709" y1="11.247487373415291" x2="7.247487373415291" y2="13.752512626584709"></line></g><g stroke-width="0.7" stroke="#131d87"><line x1="16.247487373415293" y1="12.247487373415291" x2="17.752512626584707" y2="13.752512626584709"></line><line x1="17.752512626584707" y1="12.247487373415291" x2="16.247487373415293" y2="13.752512626584709"></line></g><g stroke-width="0.7" stroke="#131d87"><line x1="10.247487373415291" y1="21.247487373415293" x2="12.752512626584709" y2="23.752512626584707"></line><line x1="12.752512626584709" y1="21.247487373415293" x2="10.247487373415291" y2="23.752512626584707"></line></g><g stroke-width="0.7" stroke="#131d87"><line x1="19.247487373415293" y1="22.247487373415293" x2="20.752512626584707" y2="23.752512626584707"></line><line x1="20.752512626584707" y1="22.247487373415293" x2="19.247487373415293" y2="23.752512626584707"></line></g><g stroke-width="0.7" stroke="#131d87"><line x1="16.247487373415293" y1="24.247487373415293" x2="17.752512626584707" y2="25.752512626584707"></line><line x1="17.752512626584707" y1="24.247487373415293" x2="16.247487373415293" y2="25.752512626584707"></line></g></g></svg>