<svg xmlns="http://www.w3.org/2000/svg" viewBox="0 0 29 29" fill="#012c8f"><rect width="29" height="29" fill="#ffffff"></rect><circle cx="5.5" cy="5.5" r="3" fill="none" stroke="#141e92" stroke-width="1"></circle><circle cx="5.5" cy="5.5" r="1.5" fill="#141e92"></circle><circle cx="23.5" cy="5.5" r="3" fill="none" stroke="#141e92" stroke-width="1"></circle><circle cx="23.5" cy="5.5" r="1.5" fill="#141e92"></circle><circle cx="5.5" cy="23.5" r="3" fill="none" stroke="#141e92" stroke-width="1"></circle><circle cx="5.5" cy="23.5" r="1.5" fill="#141e92"></circle><circle cx="14.5" cy="3.5" r="0.30000000000000004"></circle><circle cx="17.5" cy="3.5" r="0.30000000000000004"></circle><circle cx="11.5" cy="4.5" r="0.30000000000000004"></circle><circle cx="18.5" cy="6.5" r="0.30000000000000004"></circle><circle cx="14.5" cy="8.5" r="0.30000000000000004"></circle><circle cx="16.5" cy="8.5" r="0.30000000000000004"></circle><circle cx="2.5" cy="10.5" r="0.30000000000000004"></circle><circle cx="8.5" cy="10.5" r="0.30000000000000004"></circle><circle cx="13.5" cy="10.5" r="0.30000000000000004"></circle><circle cx="14.5" cy="11.5" r="0.30000000000000004"></circle><circle cx="18.5" cy="12.5" r="0.30000000000000004"></circle><circle cx="21.5" cy="12.5" r="0.30000000000000004"></circle><circle cx="23.5" cy="12.5" r="0.30000000000000004"></circle><circle cx="3.5" cy="13.5" r="0.30000000000000004"></circle><circle cx="5.5" cy="13.5" r="0.30000000000000004"></circle><circle cx="17.5" cy="13.5" r="0.30000000000000004"></circle><circle cx="26.5" cy="14.5" r="0.30000000000000004"></circle><circle cx="14.5" cy="15.5" r="0.30000000000000004"></circle><circle cx="8.5" cy="16.5" r="0.30000000000000004"></circle><circle cx="15.5" cy="16.5" r="0.30000000000000004"></circle><circle cx="18.5" cy="16.5" r="0.30000000000000004"></circle><circle cx="23.5" cy="16.5" r="0.30000000000000004"></circle><circle cx="17.5" cy="17.5" r="0.30000000000000004"></circle><circle cx="20.5" cy="18.5" r="0.30000000000000004"></circle><circle cx="24.5" cy="18.5" r="0.30000000000000004"></circle><circle cx="15.5" cy="19.5" r="0.30000000000000004"></circle><circle cx="14.5" cy="20.5" r="0.30000000000000004"></circle><circle cx="20.5" cy="20.5" r="0.30000000000000004"></circle><circle cx="13.5" cy="23.5" r="0.30000000000000004"></circle><circle cx="22.5" cy="23.5" r="0.30000000000000004"></circle><circle cx="24.5" cy="23.5" r="0.30000000000000004"></circle><circle cx="14.5" cy="24.5" r="0.30000000000000004"></circle><circle cx="19.5" cy="24.5" r="0.30000000000000004"></circle><circle cx="18.5" cy="25.5" r="0.30000000000000004"></circle><circle cx="10.5" cy="26.5" r="0.30000000000000004"></circle><circle cx="12.5" cy="26.5" r="0.30000000000000004"></circle><circle cx="21.5" cy="26.5" r="0.30000000000000004"></circle><circle cx="25.5" cy="26.5" r="0.30000000000000004"></circle><g fill="none" stroke="#10a8e9" stroke-width="0.6"><circle cx="11.5" cy="4.5" r="1"></circle><circle cx="20.5" cy="11.5" r="1"></circle><circle cx="7.5" cy="12.5" r="1"></circle><circle cx="12.5" cy="13.5" r="1"></circle><circle cx="17.5" cy="13.5" r="1"></circle><circle cx="22.5" cy="15.5" r="1"></circle><circle cx="18.5" cy="16.5" r="1"></circle><circle cx="13.5" cy="18.5" r="1"></circle><circle cx="23.5" cy="20.5" r="1"></circle><circle cx="11.5" cy="21.5" r="1"></circle><circle cx="24.5" cy="23.5" r="1"></circle></g><g fill="none" stroke="#1aa8cc" stroke-width="0.5"><circle cx="16" cy="15" r="0.5"></circle><circle cx="22" cy="18" r="0.5"></circle><circle cx="17" cy="25" r="0.5"></circle></g><g fill="none" stroke="#0f8bdd" stroke-width="0.4"><circle cx="16" cy="2.5" r="0.5"></circle><circle cx="18.5" cy="3" r="0.4"></circle><circle cx="16.5" cy="5" r="0.4"></circle><circle cx="10.5" cy="6" r="0.4"></circle><circle cx="15.5" cy="6" r="0.4"></circle><circle cx="13" cy="6.5" r="0.5"></circle><circle cx="10.5" cy="8" r="0.4"></circle><circle cx="12.5" cy="8" r="0.4"></circle><circle cx="17" cy="7.5" r="0.5"></circle><circle cx="18.5" cy="9" r="0.4"></circle><circle cx="11" cy="9.5" r="0.5"></circle><circle cx="12.5" cy="10" r="0.4"></circle><circle cx="5" cy="10.5" r="0.5"></circle><circle cx="7" cy="10.5" r="0.5"></circle><circle cx="16" cy="10.5" r="0.5"></circle><circle cx="22" cy="10.5" r="0.5"></circle><circle cx="24" cy="10.5" r="0.5"></circle><circle cx="4.5" cy="12" r="0.4"></circle><circle cx="10" cy="11.5" r="0.5"></circle><circle cx="25.5" cy="12" r="0.4"></circle><circle cx="3" cy="12.5" r="0.5"></circle><circle cx="26.5" cy="13" r="0.4"></circle><circle cx="9.5" cy="14" r="0.4"></circle><circle cx="4.5" cy="15" r="0.4"></circle><circle cx="8" cy="14.5" r="0.5"></circle><circle cx="14" cy="14.5" r="0.5"></circle><circle cx="20" cy="14.5" r="0.5"></circle><circle cx="25" cy="14.5" r="0.5"></circle><circle cx="2.5" cy="16" r="0.4"></circle><circle cx="7" cy="15.5" r="0.5"></circle><circle cx="11.5" cy="16" r="0.4"></circle><circle cx="25.5" cy="16" r="0.4"></circle><circle cx="5" cy="16.5" r="0.5"></circle><circle cx="21" cy="16.5" r="0.5"></circle><circle cx="26.5" cy="17" r="0.4"></circle><circle cx="2.5" cy="18" r="0.4"></circle><circle cx="6.5" cy="18" r="0.4"></circle><circle cx="5" cy="18.5" r="0.5"></circle><circle cx="9" cy="18.5" r="0.5"></circle><circle cx="10.5" cy="19" r="0.4"></circle><circle cx="16" cy="18.5" r="0.5"></circle><circle cx="19" cy="18.5" r="0.5"></circle><circle cx="12" cy="19.5" r="0.5"></circle><circle cx="18" cy="19.5" r="0.5"></circle><circle cx="18.5" cy="21" r="0.4"></circle><circle cx="26" cy="20.5" r="0.5"></circle><circle cx="13.5" cy="22" r="0.4"></circle><circle cx="22.5" cy="22" r="0.4"></circle><circle cx="10.5" cy="23" r="0.4"></circle><circle cx="12.5" cy="23" r="0.4"></circle><circle cx="15" cy="22.5" r="0.5"></circle><circle cx="17" cy="22.5" r="0.5"></circle><circle cx="19" cy="22.5" r="0.5"></circle><circle cx="21" cy="22.5" r="0.5"></circle><circle cx="20" cy="23.5" r="0.5"></circle><circle cx="26.5" cy="24" r="0.4"></circle><circle cx="11" cy="24.5" r="0.5"></circle><circle cx="23.5" cy="25" r="0.4"></circle><circle cx="12" cy="25.5" r="0.5"></circle><circle cx="13.5" cy="26" r="0.4"></circle><circle cx="21" cy="25.5" r="0.5"></circle><circle cx="22.5" cy="26" r="0.4"></circle><circle cx="26.5" cy="26" r="0.4"></circle><circle cx="15" cy="26.5" r="0.5"></circle><circle cx="24" cy="26.5" r="0.5"></circle></g></svg>