<svg xmlns="http://www.w3.org/2000/svg" viewBox="0 0 31 31"><rect width="31" height="31" fill="#e3d68a"></rect><g fill="#1c4a1a"><path d="M2,0.5a.5.5 0,0,1 .5-.5h1a.5.5 0,0,1 .5.5v1a.5.5 0,0,1 -.5.5h0a.5.5 0,0,1 -.5-.5v0a.5.5 0,0,0 -.5-.5h0a.5.5 0,0,1 -.5-.5z"></path><path d="M5,0.5a.5.5 0,0,1 .5-.5h6a.5.5 0,0,1 .5.5v0a.5.5 0,0,1 -.5.5h0a.5.5 0,0,0 -.5.5v0a.5.5 0,0,1 -.5.5h0a.5.5 0,0,1 -.5-.5v0a.5.5 0,0,0 -.5-.5h0a.5.5 0,0,0 -.5.5v0a.5.5 0,0,1 -.5.5h0a.5.5 0,0,1 -.5-.5v0a.5.5 0,0,0 -.5-.5h0a.5.5 0,0,0 -.5.5v0a.5.5 0,0,1 -.5.5h0a.5.5 0,0,1 -.5-.5v0a.5.5 0,0,0 -.5-.5h0a.5.5 0,0,1 -.5-.5z"></path><path d="M13,0.5a.5.5 0,0,1 .5-.5h1a.5.5 0,0,1 .5.5v0a.5.5 0,0,1 -.5.5h-1a.5.5 0,0,1 -.5-.5z"></path><path d="M18,0.5a.5.5 0,0,1 .5-.5h1a.5.5 0,0,1 .5.5v0a.5.5 0,0,1 -.5.5h-1a.5.5 0,0,1 -.5-.5z"></path><path d="M21,0.5a.5.5 0,0,1 .5-.5h1a.5.5 0,0,1 .5.5v1a.5.5 0,0,1 -.5.5h-2a.5.5 0,0,1 -.5-.5v0a.5.5 0,0,1 .5-.5h0a.5.5 0,0,0 .5-.5z"></path><path d="M25,0.5a.5.5 0,0,1 .5-.5h1a.5.5 0,0,1 .5.5v0a.5.5 0,0,0 .5.5h0a.5.5 0,0,0 .5-.5v0a.5.5 0,0,1 .5-.5h2a.5.5 0,0,1 .5.5v1a.5.5 0,0,1 -.5.5h0a.5.5 0,0,1 -.5-.5v0a.5.5 0,0,0 -.5-.5h0a.5.5 0,0,0 -.5.5v0a.5.5 0,0,1 -.5.5h-2a.5.5 0,0,1 -.5-.5v0a.5.5 0,0,0 -.5-.5h0a.5.5 0,0,1 -.5-.5z"></path><path d="M16,1.5a.5.5 0,0,1 .5-.5h1a.5.5 0,0,1 .5.5v0a.5.5 0,0,1 -.5.5h-1a.5.5 0,0,1 -.5-.5z"></path><path d="M0,2.5a.5.5 0,0,1 .5-.5h0a.5.5 0,0,1 .5.5v0a.5.5 0,0,0 .5.5h0a.5.5 0,0,1 .5.5v4a.5.5 0,0,1 -.5.5h0a.5.5 0,0,1 -.5-.5v-3a.5.5 0,0,0 -.5-.5h0a.5.5 0,0,1 -.5-.5z"></path><path d="M29,2.5a.5.5 0,0,1 .5-.5h0a.5.5 0,0,1 .5.5v1a.5.5 0,0,1 -.5.5h0a.5.5 0,0,1 -.5-.5z"></path><path d="M3,3.5a.5.5 0,0,1 .5-.5h6a.5.5 0,0,1 .5.5v6a.5.5 0,0,1 -.5.5h-6a.5.5 0,0,1 -.5-.5zM4.5,4a.5.5 0,0,0 -.5.5v4a.5.5 0,0,0 .5.5h4a.5.5 0,0,0 .5-.5v-4a.5.5 0,0,0 -.5-.5z"></path><path d="M16,3.5a.5.5 0,0,1 .5-.5h1a.5.5 0,0,1 .5.5v0a.5.5 0,0,1 -.5.5h-1a.5.5 0,0,1 -.5-.5z"></path><path d="M19,3.5a.5.5 0,0,1 .5-.5h0a.5.5 0,0,1 .5.5v1a.5.5 0,0,1 -.5.5h-1a.5.5 0,0,1 -.5-.5v0a.5.5 0,0,1 .5-.5h0a.5.5 0,0,0 .5-.5z"></path><path d="M21,3.5a.5.5 0,0,1 .5-.5h6a.5.5 0,0,1 .5.5v6a.5.5 0,0,1 -.5.5h-6a.5.5 0,0,1 -.5-.5zM22.5,4a.5.5 0,0,0 -.5.5v4a.5.5 0,0,0 .5.5h4a.5.5 0,0,0 .5-.5v-4a.5.5 0,0,0 -.5-.5z"></path><path d="M12,4.5a.5.5 0,0,1 .5-.5h0a.5.5 0,0,1 .5.5v0a.5.5 0,0,0 .5.5h0a.5.5 0,0,1 .5.5v0a.5.5 0,0,1 -.5.5h0a.5.5 0,0,0 -.5.5v0a.5.5 0,0,1 -.5.5h0a.5.5 0,0,0 -.5.5v2a.5.5 0,0,0 .5.5h0a.5.5 0,0,0 .5-.5v-2a.5.5 0,0,1 .5-.5h1a.5.5 0,0,1 .5.5v0a.5.5 0,0,1 -.5.5h0a.5.5 0,0,0 -.5.5v2a.5.5 0,0,0 .5.5h0a.5.5 0,0,1 .5.5v0a.5.5 0,0,1 -.5.5h-1a.5.5 0,0,1 -.5-.5v0a.5.5 0,0,0 -.5-.5h-1a.5.5 0,0,1 -.5-.5v-5a.5.5 0,0,1 .5-.5h0a.5.5 0,0,0 .5-.5z"></path><path d="M15,4.5a.5.5 0,0,1 .5-.5h0a.5.5 0,0,1 .5.5v0a.5.5 0,0,1 -.5.5h0a.5.5 0,0,1 -.5-.5z"></path><path d="M5,5.5a.5.5 0,0,1 .5-.5h2a.5.5 0,0,1 .5.5v2a.5.5 0,0,1 -.5.5h-2a.5.5 0,0,1 -.5-.5z"></path><path d="M17,5.5a.5.5 0,0,1 .5-.5h0a.5.5 0,0,1 .5.5v1a.5.5 0,0,1 -.5.5h0a.5.5 0,0,0 -.5.5v0a.5.5 0,0,1 -.5.5h0a.5.5 0,0,1 -.5-.5v-1a.5.5 0,0,1 .5-.5h0a.5.5 0,0,0 .5-.5z"></path><path d="M23,5.5a.5.5 0,0,1 .5-.5h2a.5.5 0,0,1 .5.5v2a.5.5 0,0,1 -.5.5h-2a.5.5 0,0,1 -.5-.5z"></path><path d="M29,5.5a.5.5 0,0,1 .5-.5h0a.5.5 0,0,1 .5.5v0a.5.5 0,0,1 -.5.5h0a.5.5 0,0,1 -.5-.5z"></path><path d="M30,6.5a.5.5 0,0,1 .5-.5h0a.5.5 0,0,1 .5.5v3a.5.5 0,0,1 -.5.5h-1a.5.5 0,0,1 -.5-.5v-2a.5.5 0,0,1 .5-.5h0a.5.5 0,0,0 .5-.5z"></path><path d="M19,7.5a.5.5 0,0,1 .5-.5h0a.5.5 0,0,1 .5.5v0a.5.5 0,0,1 -.5.5h0a.5.5 0,0,1 -.5-.5z"></path><path d="M17,8.5a.5.5 0,0,1 .5-.5h1a.5.5 0,0,1 .5.5v0a.5.5 0,0,1 -.5.5h0a.5.5 0,0,0 -.5.5v0a.5.5 0,0,1 -.5.5h0a.5.5 0,0,1 -.5-.5z"></path><path d="M1,9.5a.5.5 0,0,1 .5-.5h0a.5.5 0,0,1 .5.5v2a.5.5 0,0,1 -.5.5h-1a.5.5 0,0,1 -.5-.5v-1a.5.5 0,0,1 .5-.5h0a.5.5 0,0,0 .5-.5z"></path><path d="M15,9.5a.5.5 0,0,1 .5-.5h0a.5.5 0,0,1 .5.5v0a.5.5 0,0,1 -.5.5h0a.5.5 0,0,1 -.5-.5z"></path><path d="M19,9.5a.5.5 0,0,1 .5-.5h0a.5.5 0,0,1 .5.5v1a.5.5 0,0,1 -.5.5h0a.5.5 0,0,1 -.5-.5z"></path><path d="M3,11.5a.5.5 0,0,1 .5-.5h0a.5.5 0,0,1 .5.5v0a.5.5 0,0,1 -.5.5h0a.5.5 0,0,1 -.5-.5z"></path><path d="M5,11.5a.5.5 0,0,1 .5-.5h4a.5.5 0,0,1 .5.5v0a.5.5 0,0,1 -.5.5h0a.5.5 0,0,0 -.5.5v0a.5.5 0,0,1 -.5.5h0a.5.5 0,0,1 -.5-.5v0a.5.5 0,0,0 -.5-.5h-1a.5.5 0,0,0 -.5.5v1a.5.5 0,0,1 -.5.5h0a.5.5 0,0,0 -.5.5v0a.5.5 0,0,1 -.5.5h0a.5.5 0,0,1 -.5-.5v0a.5.5 0,0,0 -.5-.5h0a.5.5 0,0,1 -.5-.5v0a.5.5 0,0,1 .5-.5h1a.5.5 0,0,0 .5-.5z"></path><path d="M16,11.5a.5.5 0,0,1 .5-.5h1a.5.5 0,0,1 .5.5v0a.5.5 0,0,1 -.5.5h-1a.5.5 0,0,1 -.5-.5z"></path><path d="M21,11.5a.5.5 0,0,1 .5-.5h4a.5.5 0,0,1 .5.5v0a.5.5 0,0,1 -.5.5h-2a.5.5 0,0,0 -.5.5v1a.5.5 0,0,1 -.5.5h-1a.5.5 0,0,1 -.5-.5v0a.5.5 0,0,1 .5-.5h0a.5.5 0,0,0 .5-.5v0a.5.5 0,0,0 -.5-.5h0a.5.5 0,0,1 -.5-.5z"></path><path d="M29,11.5a.5.5 0,0,1 .5-.5h1a.5.5 0,0,1 .5.5v1a.5.5 0,0,1 -.5.5h0a.5.5 0,0,1 -.5-.5v0a.5.5 0,0,0 -.5-.5h0a.5.5 0,0,1 -.5-.5z"></path><path d="M10,12.5a.5.5 0,0,1 .5-.5h1a.5.5 0,0,1 .5.5v0a.5.5 0,0,1 -.5.5h-1a.5.5 0,0,1 -.5-.5z"></path><path d="M15,12.5a.5.5 0,0,1 .5-.5h0a.5.5 0,0,1 .5.5v0a.5.5 0,0,1 -.5.5h0a.5.5 0,0,1 -.5-.5z"></path><path d="M20,12.5a.5.5 0,0,1 .5-.5h0a.5.5 0,0,1 .5.5v0a.5.5 0,0,1 -.5.5h0a.5.5 0,0,1 -.5-.5z"></path><path d="M26,12.5a.5.5 0,0,1 .5-.5h0a.5.5 0,0,1 .5.5v0a.5.5 0,0,0 .5.5h0a.5.5 0,0,1 .5.5v2a.5.5 0,0,1 -.5.5h0a.5.5 0,0,0 -.5.5v0a.5.5 0,0,0 .5.5h0a.5.5 0,0,1 .5.5v1a.5.5 0,0,1 -.5.5h0a.5.5 0,0,1 -.5-.5v0a.5.5 0,0,0 -.5-.5h0a.5.5 0,0,1 -.5-.5v-1a.5.5 0,0,0 -.5-.5h0a.5.5 0,0,1 -.5-.5v0a.5.5 0,0,1 .5-.5h1a.5.5 0,0,0 .5-.5v0a.5.5 0,0,0 -.5-.5h0a.5.5 0,0,1 -.5-.5z"></path><path d="M7,13.5a.5.5 0,0,1 .5-.5h0a.5.5 0,0,1 .5.5v0a.5.5 0,0,1 -.5.5h0a.5.5 0,0,1 -.5-.5z"></path><path d="M9,13.5a.5.5 0,0,1 .5-.5h0a.5.5 0,0,1 .5.5v0a.5.5 0,0,1 -.5.5h0a.5.5 0,0,1 -.5-.5z"></path><path d="M12,13.5a.5.5 0,0,1 .5-.5h1a.5.5 0,0,1 .5.5v0a.5.5 0,0,1 -.5.5h0a.5.5 0,0,0 -.5.5v0a.5.5 0,0,1 -.5.5h0a.5.5 0,0,1 -.5-.5z"></path><path d="M17,13.5a.5.5 0,0,1 .5-.5h2a.5.5 0,0,1 .5.5v1a.5.5 0,0,1 -.5.5h0a.5.5 0,0,0 -.5.5v0a.5.5 0,0,1 -.5.5h0a.5.5 0,0,0 -.5.5v0a.5.5 0,0,1 -.5.5h0a.5.5 0,0,0 -.5.5v0a.5.5 0,0,1 -.5.5h0a.5.5 0,0,1 -.5-.5v0a.5.5 0,0,0 -.5-.5h0a.5.5 0,0,1 -.5-.5v0a.5.5 0,0,0 -.5-.5h-1a.5.5 0,0,1 -.5-.5v0a.5.5 0,0,1 .5-.5h0a.5.5 0,0,0 .5-.5v0a.5.5 0,0,1 .5-.5h0a.5.5 0,0,1 .5.5v0a.5.5 0,0,0 .5.5h1a.5.5 0,0,0 .5-.5z"></path><path d="M24,13.5a.5.5 0,0,1 .5-.5h0a.5.5 0,0,1 .5.5v0a.5.5 0,0,1 -.5.5h0a.5.5 0,0,1 -.5-.5z"></path><path d="M29,13.5a.5.5 0,0,1 .5-.5h0a.5.5 0,0,1 .5.5v0a.5.5 0,0,1 -.5.5h0a.5.5 0,0,1 -.5-.5z"></path><path d="M0,14.5a.5.5 0,0,1 .5-.5h0a.5.5 0,0,1 .5.5v0a.5.5 0,0,0 .5.5h0a.5.5 0,0,1 .5.5v0a.5.5 0,0,1 -.5.5h-1a.5.5 0,0,1 -.5-.5z"></path><path d="M6,14.5a.5.5 0,0,1 .5-.5h0a.5.5 0,0,1 .5.5v0a.5.5 0,0,1 -.5.5h0a.5.5 0,0,1 -.5-.5z"></path><path d="M8,14.5a.5.5 0,0,1 .5-.5h0a.5.5 0,0,1 .5.5v0a.5.5 0,0,0 .5.5h0a.5.5 0,0,0 .5-.5v0a.5.5 0,0,1 .5-.5h0a.5.5 0,0,1 .5.5v1a.5.5 0,0,1 -.5.5h-1a.5.5 0,0,0 -.5.5v0a.5.5 0,0,1 -.5.5h-1a.5.5 0,0,1 -.5-.5v0a.5.5 0,0,1 .5-.5h0a.5.5 0,0,0 .5-.5z"></path><path d="M30,14.5a.5.5 0,0,1 .5-.5h0a.5.5 0,0,1 .5.5v0a.5.5 0,0,1 -.5.5h0a.5.5 0,0,1 -.5-.5z"></path><path d="M5,15.5a.5.5 0,0,1 .5-.5h0a.5.5 0,0,1 .5.5v1a.5.5 0,0,0 .5.5h0a.5.5 0,0,1 .5.5v0a.5.5 0,0,1 -.5.5h-1a.5.5 0,0,1 -.5-.5z"></path><path d="M20,15.5a.5.5 0,0,1 .5-.5h3a.5.5 0,0,1 .5.5v0a.5.5 0,0,1 -.5.5h0a.5.5 0,0,0 -.5.5v0a.5.5 0,0,0 .5.5h0a.5.5 0,0,0 .5-.5v0a.5.5 0,0,1 .5-.5h0a.5.5 0,0,1 .5.5v1a.5.5 0,0,1 -.5.5h0a.5.5 0,0,0 -.5.5v1a.5.5 0,0,0 .5.5h0a.5.5 0,0,1 .5.5v0a.5.5 0,0,1 -.5.5h0a.5.5 0,0,0 -.5.5v0a.5.5 0,0,0 .5.5h0a.5.5 0,0,1 .5.5v0a.5.5 0,0,1 -.5.5h0a.5.5 0,0,0 -.5.5v0a.5.5 0,0,0 .5.5h0a.5.5 0,0,0 .5-.5v0a.5.5 0,0,1 .5-.5h0a.5.5 0,0,1 .5.5v0a.5.5 0,0,0 .5.5h1a.5.5 0,0,1 .5.5v3a.5.5 0,0,1 -.5.5h-5a.5.5 0,0,1 -.5-.5v0a.5.5 0,0,0 -.5-.5h0a.5.5 0,0,1 -.5-.5v0a.5.5 0,0,1 .5-.5h2a.5.5 0,0,0 .5-.5v0a.5.5 0,0,0 -.5-.5h0a.5.5 0,0,1 -.5-.5v0a.5.5 0,0,0 -.5-.5h0a.5.5 0,0,0 -.5.5v0a.5.5 0,0,1 -.5.5h0a.5.5 0,0,0 -.5.5v0a.5.5 0,0,1 -.5.5h0a.5.5 0,0,1 -.5-.5v-1a.5.5 0,0,0 -.5-.5h-4a.5.5 0,0,0 -.5.5v0a.5.5 0,0,1 -.5.5h-1a.5.5 0,0,1 -.5-.5v0a.5.5 0,0,0 -.5-.5h0a.5.5 0,0,0 -.5.5v0a.5.5 0,0,0 .5.5h0a.5.5 0,0,1 .5.5v0a.5.5 0,0,0 .5.5h1a.5.5 0,0,1 .5.5v0a.5.5 0,0,0 .5.5h1a.5.5 0,0,1 .5.5v0a.5.5 0,0,1 -.5.5h-3a.5.5 0,0,1 -.5-.5v0a.5.5 0,0,0 -.5-.5h0a.5.5 0,0,1 -.5-.5v0a.5.5 0,0,0 -.5-.5h0a.5.5 0,0,1 -.5-.5v-3a.5.5 0,0,1 .5-.5h0a.5.5 0,0,1 .5.5v0a.5.5 0,0,0 .5.5h0a.5.5 0,0,0 .5-.5v0a.5.5 0,0,1 .5-.5h1a.5.5 0,0,1 .5.5v0a.5.5 0,0,0 .5.5h3a.5.5 0,0,0 .5-.5v-1a.5.5 0,0,0 -.5-.5h0a.5.5 0,0,1 -.5-.5v0a.5.5 0,0,1 .5-.5h0a.5.5 0,0,0 .5-.5v0a.5.5 0,0,0 -.5-.5h0a.5.5 0,0,1 -.5-.5v-1a.5.5 0,0,1 .5-.5h0a.5.5 0,0,0 .5-.5v0a.5.5 0,0,1 .5-.5h0a.5.5 0,0,1 .5.5v0a.5.5 0,0,0 .5.5h1a.5.5 0,0,0 .5-.5v0a.5.5 0,0,0 -.5-.5h-1a.5.5 0,0,1 -.5-.5zM20.5,18a.5.5 0,0,0 -.5.5v0a.5.5 0,0,0 .5.5h1a.5.5 0,0,0 .5-.5v0a.5.5 0,0,0 -.5-.5zM20.5,20a.5.5 0,0,0 -.5.5v2a.5.5 0,0,0 .5.5h2a.5.5 0,0,0 .5-.5v-2a.5.5 0,0,0 -.5-.5zM26.5,25a.5.5 0,0,0 -.5.5v0a.5.5 0,0,1 -.5.5h0a.5.5 0,0,0 -.5.5v0a.5.5 0,0,0 .5.5h1a.5.5 0,0,0 .5-.5v-1a.5.5 0,0,0 -.5-.5z"></path><path d="M29,15.5a.5.5 0,0,1 .5-.5h0a.5.5 0,0,1 .5.5v0a.5.5 0,0,0 .5.5h0a.5.5 0,0,1 .5.5v0a.5.5 0,0,1 -.5.5h-1a.5.5 0,0,1 -.5-.5z"></path><path d="M3,16.5a.5.5 0,0,1 .5-.5h0a.5.5 0,0,1 .5.5v3a.5.5 0,0,1 -.5.5h0a.5.5 0,0,1 -.5-.5z"></path><path d="M12,16.5a.5.5 0,0,1 .5-.5h0a.5.5 0,0,1 .5.5v1a.5.5 0,0,1 -.5.5h0a.5.5 0,0,1 -.5-.5z"></path><path d="M1,17.5a.5.5 0,0,1 .5-.5h0a.5.5 0,0,1 .5.5v1a.5.5 0,0,1 -.5.5h0a.5.5 0,0,1 -.5-.5z"></path><path d="M9,17.5a.5.5 0,0,1 .5-.5h0a.5.5 0,0,1 .5.5v0a.5.5 0,0,1 -.5.5h0a.5.5 0,0,1 -.5-.5z"></path><path d="M7,18.5a.5.5 0,0,1 .5-.5h0a.5.5 0,0,1 .5.5v1a.5.5 0,0,1 -.5.5h-2a.5.5 0,0,1 -.5-.5v0a.5.5 0,0,1 .5-.5h1a.5.5 0,0,0 .5-.5z"></path><path d="M13,18.5a.5.5 0,0,1 .5-.5h1a.5.5 0,0,1 .5.5v0a.5.5 0,0,1 -.5.5h0a.5.5 0,0,0 -.5.5v0a.5.5 0,0,0 .5.5h0a.5.5 0,0,1 .5.5v0a.5.5 0,0,1 -.5.5h-1a.5.5 0,0,0 -.5.5v0a.5.5 0,0,1 -.5.5h0a.5.5 0,0,1 -.5-.5v0a.5.5 0,0,0 -.5-.5h0a.5.5 0,0,1 -.5-.5v0a.5.5 0,0,0 -.5-.5h-1a.5.5 0,0,1 -.5-.5v0a.5.5 0,0,1 .5-.5h2a.5.5 0,0,1 .5.5v0a.5.5 0,0,0 .5.5h0a.5.5 0,0,0 .5-.5z"></path><path d="M30,18.5a.5.5 0,0,1 .5-.5h0a.5.5 0,0,1 .5.5v0a.5.5 0,0,1 -.5.5h0a.5.5 0,0,1 -.5-.5z"></path><path d="M0,19.5a.5.5 0,0,1 .5-.5h0a.5.5 0,0,1 .5.5v0a.5.5 0,0,0 .5.5h0a.5.5 0,0,1 .5.5v2a.5.5 0,0,1 -.5.5h0a.5.5 0,0,1 -.5-.5v0a.5.5 0,0,0 -.5-.5h0a.5.5 0,0,1 -.5-.5z"></path><path d="M15,19.5a.5.5 0,0,1 .5-.5h2a.5.5 0,0,1 .5.5v0a.5.5 0,0,1 -.5.5h0a.5.5 0,0,0 -.5.5v0a.5.5 0,0,1 -.5.5h0a.5.5 0,0,1 -.5-.5v0a.5.5 0,0,0 -.5-.5h0a.5.5 0,0,1 -.5-.5z"></path><path d="M25,19.5a.5.5 0,0,1 .5-.5h0a.5.5 0,0,1 .5.5v0a.5.5 0,0,1 -.5.5h0a.5.5 0,0,1 -.5-.5z"></path><path d="M3,21.5a.5.5 0,0,1 .5-.5h6a.5.5 0,0,1 .5.5v6a.5.5 0,0,1 -.5.5h-6a.5.5 0,0,1 -.5-.5zM4.5,22a.5.5 0,0,0 -.5.5v4a.5.5 0,0,0 .5.5h4a.5.5 0,0,0 .5-.5v-4a.5.5 0,0,0 -.5-.5z"></path><path d="M15,21.5a.5.5 0,0,1 .5-.5h0a.5.5 0,0,1 .5.5v0a.5.5 0,0,1 -.5.5h0a.5.5 0,0,1 -.5-.5z"></path><path d="M21,21.5a.5.5 0,0,1 .5-.5h0a.5.5 0,0,1 .5.5v0a.5.5 0,0,1 -.5.5h0a.5.5 0,0,1 -.5-.5z"></path><path d="M25,21.5a.5.5 0,0,1 .5-.5h2a.5.5 0,0,1 .5.5v0a.5.5 0,0,1 -.5.5h-2a.5.5 0,0,1 -.5-.5z"></path><path d="M30,21.5a.5.5 0,0,1 .5-.5h0a.5.5 0,0,1 .5.5v0a.5.5 0,0,1 -.5.5h0a.5.5 0,0,1 -.5-.5z"></path><path d="M0,23.5a.5.5 0,0,1 .5-.5h0a.5.5 0,0,1 .5.5v0a.5.5 0,0,1 -.5.5h0a.5.5 0,0,1 -.5-.5z"></path><path d="M5,23.5a.5.5 0,0,1 .5-.5h2a.5.5 0,0,1 .5.5v2a.5.5 0,0,1 -.5.5h-2a.5.5 0,0,1 -.5-.5z"></path><path d="M29,23.5a.5.5 0,0,1 .5-.5h0a.5.5 0,0,1 .5.5v0a.5.5 0,0,1 -.5.5h0a.5.5 0,0,1 -.5-.5z"></path><path d="M1,24.5a.5.5 0,0,1 .5-.5h0a.5.5 0,0,1 .5.5v0a.5.5 0,0,1 -.5.5h0a.5.5 0,0,1 -.5-.5z"></path><path d="M30,24.5a.5.5 0,0,1 .5-.5h0a.5.5 0,0,1 .5.5v0a.5.5 0,0,1 -.5.5h0a.5.5 0,0,1 -.5-.5z"></path><path d="M15,25.5a.5.5 0,0,1 .5-.5h0a.5.5 0,0,1 .5.5v0a.5.5 0,0,1 -.5.5h0a.5.5 0,0,1 -.5-.5z"></path><path d="M17,25.5a.5.5 0,0,1 .5-.5h1a.5.5 0,0,1 .5.5v0a.5.5 0,0,0 .5.5h0a.5.5 0,0,1 .5.5v0a.5.5 0,0,1 -.5.5h-2a.5.5 0,0,1 -.5-.5z"></path><path d="M0,26.5a.5.5 0,0,1 .5-.5h0a.5.5 0,0,1 .5.5v1a.5.5 0,0,0 .5.5h0a.5.5 0,0,1 .5.5v1a.5.5 0,0,1 -.5.5h0a.5.5 0,0,1 -.5-.5v0a.5.5 0,0,0 -.5-.5h0a.5.5 0,0,1 -.5-.5z"></path><path d="M29,26.5a.5.5 0,0,1 .5-.5h1a.5.5 0,0,1 .5.5v2a.5.5 0,0,1 -.5.5h0a.5.5 0,0,1 -.5-.5v-1a.5.5 0,0,0 -.5-.5h0a.5.5 0,0,1 -.5-.5z"></path><path d="M11,27.5a.5.5 0,0,1 .5-.5h0a.5.5 0,0,1 .5.5v0a.5.5 0,0,1 -.5.5h0a.5.5 0,0,1 -.5-.5z"></path><path d="M4,29.5a.5.5 0,0,1 .5-.5h3a.5.5 0,0,1 .5.5v0a.5.5 0,0,1 -.5.5h0a.5.5 0,0,0 -.5.5v0a.5.5 0,0,1 -.5.5h-2a.5.5 0,0,1 -.5-.5z"></path><path d="M9,29.5a.5.5 0,0,1 .5-.5h0a.5.5 0,0,1 .5.5v0a.5.5 0,0,0 .5.5h0a.5.5 0,0,1 .5.5v0a.5.5 0,0,1 -.5.5h-2a.5.5 0,0,1 -.5-.5v0a.5.5 0,0,1 .5-.5h0a.5.5 0,0,0 .5-.5z"></path><path d="M11,29.5a.5.5 0,0,1 .5-.5h3a.5.5 0,0,1 .5.5v0a.5.5 0,0,1 -.5.5h0a.5.5 0,0,0 -.5.5v0a.5.5 0,0,1 -.5.5h-1a.5.5 0,0,1 -.5-.5v0a.5.5 0,0,0 -.5-.5h0a.5.5 0,0,1 -.5-.5z"></path><path d="M17,29.5a.5.5 0,0,1 .5-.5h1a.5.5 0,0,1 .5.5v1a.5.5 0,0,1 -.5.5h0a.5.5 0,0,1 -.5-.5v0a.5.5 0,0,0 -.5-.5h0a.5.5 0,0,1 -.5-.5z"></path><path d="M20,29.5a.5.5 0,0,1 .5-.5h0a.5.5 0,0,1 .5.5v0a.5.5 0,0,1 -.5.5h0a.5.5 0,0,1 -.5-.5z"></path><path d="M23,29.5a.5.5 0,0,1 .5-.5h0a.5.5 0,0,1 .5.5v1a.5.5 0,0,1 -.5.5h-1a.5.5 0,0,1 -.5-.5v0a.5.5 0,0,1 .5-.5h0a.5.5 0,0,0 .5-.5z"></path><path d="M25,29.5a.5.5 0,0,1 .5-.5h4a.5.5 0,0,1 .5.5v1a.5.5 0,0,1 -.5.5h-1a.5.5 0,0,1 -.5-.5v0a.5.5 0,0,0 -.5-.5h-2a.5.5 0,0,1 -.5-.5z"></path><path d="M0,30.5a.5.5 0,0,1 .5-.5h0a.5.5 0,0,1 .5.5v0a.5.5 0,0,1 -.5.5h0a.5.5 0,0,1 -.5-.5z"></path><path d="M2,30.5a.5.5 0,0,1 .5-.5h0a.5.5 0,0,1 .5.5v0a.5.5 0,0,1 -.5.5h0a.5.5 0,0,1 -.5-.5z"></path><path d="M15,30.5a.5.5 0,0,1 .5-.5h1a.5.5 0,0,1 .5.5v0a.5.5 0,0,1 -.5.5h-1a.5.5 0,0,1 -.5-.5z"></path></g></svg>