<svg xmlns="http://www.w3.org/2000/svg" viewBox="0 0 31 31"><rect width="31" height="31" fill="#fcf0c6"></rect><g><path d="M0 0.5 L30.5 0 L31 30.5 L0.5 31 L0 0.5 M2.5 2 L2 28.5 L28.5 29 L29 2.5 L2.5 2" stroke="none" stroke-width="0" fill="#780b60"></path></g><g><path d="M3 3.5 L9.5 3 L10 9.5 L3.5 10 L3 3.5 M4.5 4 L4 8.5 L8.5 9 L9 4.5 L4.5 4" stroke="none" stroke-width="0" fill="#780b60"></path></g><g><path d="M16 3.5 C16 3.22, 16.22 3, 16.5 3 C16.85 3, 17.2 3, 17.5 3 C17.78 3, 18 3.22, 18 3.5 C18 3.5, 18 3.5, 18 3.5 C18 3.78, 17.78 4, 17.5 4 C17.29 4, 17.07 4, 16.5 4 C16.22 4, 16 3.78, 16 3.5 C16 3.5, 16 3.5, 16 3.5" stroke="none" stroke-width="0" fill="#780b60"></path></g><g><path d="M19 3.5 C19 3.22, 19.22 3, 19.5 3 C19.5 3, 19.5 3, 19.5 3 C19.78 3, 20 3.22, 20 3.5 C20 3.78, 20 4.06, 20 4.5 C20 4.78, 19.78 5, 19.5 5 C19.2 5, 18.91 5, 18.5 5 C18.22 5, 18 4.78, 18 4.5 C18 4.5, 18 4.5, 18 4.5 C18 4.22, 18.22 4, 18.5 4 C18.5 4, 18.5 4, 18.5 4 C18.78 4, 19 3.78, 19 3.5 C19 3.5, 19 3.5, 19 3.5" stroke="none" stroke-width="0" fill="#780b60"></path></g><g><path d="M21 3.5 L27.5 3 L28 9.5 L21.5 10 L21 3.5 M22.5 4 L22 8.5 L26.5 9 L27 4.5 L22.5 4" stroke="none" stroke-width="0" fill="#780b60"></path></g><g><path d="M12 4.5 C12 4.22, 12.22 4, 12.5 4 C12.5 4, 12.5 4, 12.5 4 C12.78 4, 13 4.22, 13 4.5 C13 4.5, 13 4.5, 13 4.5 C13 4.78, 13.22 5, 13.5 5 C13.5 5, 13.5 5, 13.5 5 C13.78 5, 14 5.22, 14 5.5 C14 5.5, 14 5.5, 14 5.5 C14 5.78, 13.78 6, 13.5 6 C13.5 6, 13.5 6, 13.5 6 C13.22 6, 13 6.22, 13 6.5 C13 6.5, 13 6.5, 13 6.5 C13 6.78, 12.78 7, 12.5 7 C12.5 7, 12.5 7, 12.5 7 C12.22 7, 12 7.22, 12 7.5 C12 8.1, 12 8.7, 12 9.5 C12 9.78, 12.22 10, 12.5 10 C12.5 10, 12.5 10, 12.5 10 C12.78 10, 13 9.78, 13 9.5 C13 8.95, 13 8.41, 13 7.5 C13 7.22, 13.22 7, 13.5 7 C13.81 7, 14.11 7, 14.5 7 C14.78 7, 15 7.22, 15 7.5 C15 7.5, 15 7.5, 15 7.5 C15 7.78, 14.78 8, 14.5 8 C14.5 8, 14.5 8, 14.5 8 C14.22 8, 14 8.22, 14 8.5 C14 9.02, 14 9.54, 14 10.5 C14 10.78, 14.22 11, 14.5 11 C14.5 11, 14.5 11, 14.5 11 C14.78 11, 15 11.22, 15 11.5 C15 11.5, 15 11.5, 15 11.5 C15 11.78, 14.78 12, 14.5 12 C14.28 12, 14.06 12, 13.5 12 C13.22 12, 13 11.78, 13 11.5 C13 11.5, 13 11.5, 13 11.5 C13 11.22, 12.78 11, 12.5 11 C12.26 11, 12.01 11, 11.5 11 C11.22 11, 11 10.78, 11 10.5 C11 9.29, 11 8.08, 11 5.5 C11 5.22, 11.22 5, 11.5 5 C11.5 5, 11.5 5, 11.5 5 C11.78 5, 12 4.78, 12 4.5 C12 4.5, 12 4.5, 12 4.5" stroke="none" stroke-width="0" fill="#780b60"></path></g><g><path d="M15 4.5 C15 4.22, 15.22 4, 15.5 4 C15.5 4, 15.5 4, 15.5 4 C15.78 4, 16 4.22, 16 4.5 C16 4.5, 16 4.5, 16 4.5 C16 4.78, 15.78 5, 15.5 5 C15.5 5, 15.5 5, 15.5 5 C15.22 5, 15 4.78, 15 4.5 C15 4.5, 15 4.5, 15 4.5" stroke="none" stroke-width="0" fill="#780b60"></path></g><g><path d="M5 5.5 C5 5.22, 5.22 5, 5.5 5 C6.28 5, 7.06 5, 7.5 5 C7.78 5, 8 5.22, 8 5.5 C8 6.26, 8 7.02, 8 7.5 C8 7.78, 7.78 8, 7.5 8 C6.94 8, 6.38 8, 5.5 8 C5.22 8, 5 7.78, 5 7.5 C5 6.98, 5 6.45, 5 5.5" stroke="none" stroke-width="0" fill="#780b60"></path></g><g><path d="M17 5.5 C17 5.22, 17.22 5, 17.5 5 C17.5 5, 17.5 5, 17.5 5 C17.78 5, 18 5.22, 18 5.5 C18 5.79, 18 6.08, 18 6.5 C18 6.78, 17.78 7, 17.5 7 C17.5 7, 17.5 7, 17.5 7 C17.22 7, 17 7.22, 17 7.5 C17 7.5, 17 7.5, 17 7.5 C17 7.78, 16.78 8, 16.5 8 C16.5 8, 16.5 8, 16.5 8 C16.22 8, 16 7.78, 16 7.5 C16 7.24, 16 6.98, 16 6.5 C16 6.22, 16.22 6, 16.5 6 C16.5 6, 16.5 6, 16.5 6 C16.78 6, 17 5.78, 17 5.5 C17 5.5, 17 5.5, 17 5.5" stroke="none" stroke-width="0" fill="#780b60"></path></g><g><path d="M23 5.5 C23 5.22, 23.22 5, 23.5 5 C24.01 5, 24.52 5, 25.5 5 C25.78 5, 26 5.22, 26 5.5 C26 6.18, 26 6.86, 26 7.5 C26 7.78, 25.78 8, 25.5 8 C24.96 8, 24.42 8, 23.5 8 C23.22 8, 23 7.78, 23 7.5 C23 6.94, 23 6.37, 23 5.5" stroke="none" stroke-width="0" fill="#780b60"></path></g><g><path d="M19 7.5 C19 7.22, 19.22 7, 19.5 7 C19.5 7, 19.5 7, 19.5 7 C19.78 7, 20 7.22, 20 7.5 C20 7.5, 20 7.5, 20 7.5 C20 7.78, 19.78 8, 19.5 8 C19.5 8, 19.5 8, 19.5 8 C19.22 8, 19 7.78, 19 7.5 C19 7.5, 19 7.5, 19 7.5" stroke="none" stroke-width="0" fill="#780b60"></path></g><g><path d="M17 8.5 C17 8.22, 17.22 8, 17.5 8 C17.84 8, 18.19 8, 18.5 8 C18.78 8, 19 8.22, 19 8.5 C19 8.5, 19 8.5, 19 8.5 C19 8.78, 18.78 9, 18.5 9 C18.5 9, 18.5 9, 18.5 9 C18.22 9, 18 9.22, 18 9.5 C18 9.5, 18 9.5, 18 9.5 C18 9.78, 17.78 10, 17.5 10 C17.5 10, 17.5 10, 17.5 10 C17.22 10, 17 9.78, 17 9.5 C17 9.16, 17 8.82, 17 8.5" stroke="none" stroke-width="0" fill="#780b60"></path></g><g><path d="M15 9.5 C15 9.22, 15.22 9, 15.5 9 C15.5 9, 15.5 9, 15.5 9 C15.78 9, 16 9.22, 16 9.5 C16 9.5, 16 9.5, 16 9.5 C16 9.78, 15.78 10, 15.5 10 C15.5 10, 15.5 10, 15.5 10 C15.22 10, 15 9.78, 15 9.5 C15 9.5, 15 9.5, 15 9.5" stroke="none" stroke-width="0" fill="#780b60"></path></g><g><path d="M19 9.5 C19 9.22, 19.22 9, 19.5 9 C19.5 9, 19.5 9, 19.5 9 C19.78 9, 20 9.22, 20 9.5 C20 9.81, 20 10.11, 20 10.5 C20 10.78, 19.78 11, 19.5 11 C19.5 11, 19.5 11, 19.5 11 C19.22 11, 19 10.78, 19 10.5 C19 10.13, 19 9.77, 19 9.5" stroke="none" stroke-width="0" fill="#780b60"></path></g><g><path d="M3 11.5 C3 11.22, 3.22 11, 3.5 11 C3.5 11, 3.5 11, 3.5 11 C3.78 11, 4 11.22, 4 11.5 C4 11.5, 4 11.5, 4 11.5 C4 11.78, 3.78 12, 3.5 12 C3.5 12, 3.5 12, 3.5 12 C3.22 12, 3 11.78, 3 11.5 C3 11.5, 3 11.5, 3 11.5" stroke="none" stroke-width="0" fill="#780b60"></path></g><g><path d="M5 11.5 C5 11.22, 5.22 11, 5.5 11 C6.76 11, 8.03 11, 9.5 11 C9.78 11, 10 11.22, 10 11.5 C10 11.5, 10 11.5, 10 11.5 C10 11.78, 9.78 12, 9.5 12 C9.5 12, 9.5 12, 9.5 12 C9.22 12, 9 12.22, 9 12.5 C9 12.5, 9 12.5, 9 12.5 C9 12.78, 8.78 13, 8.5 13 C8.5 13, 8.5 13, 8.5 13 C8.22 13, 8 12.78, 8 12.5 C8 12.5, 8 12.5, 8 12.5 C8 12.22, 7.78 12, 7.5 12 C7.28 12, 7.06 12, 6.5 12 C6.22 12, 6 12.22, 6 12.5 C6 12.82, 6 13.15, 6 13.5 C6 13.78, 5.78 14, 5.5 14 C5.5 14, 5.5 14, 5.5 14 C5.22 14, 5 14.22, 5 14.5 C5 14.5, 5 14.5, 5 14.5 C5 14.78, 4.78 15, 4.5 15 C4.5 15, 4.5 15, 4.5 15 C4.22 15, 4 14.78, 4 14.5 C4 14.5, 4 14.5, 4 14.5 C4 14.22, 3.78 14, 3.5 14 C3.5 14, 3.5 14, 3.5 14 C3.22 14, 3 13.78, 3 13.5 C3 13.5, 3 13.5, 3 13.5 C3 13.22, 3.22 13, 3.5 13 C3.86 13, 4.22 13, 4.5 13 C4.78 13, 5 12.78, 5 12.5 C5 12.21, 5 11.92, 5 11.5" stroke="none" stroke-width="0" fill="#780b60"></path></g><g><path d="M16 11.5 C16 11.22, 16.22 11, 16.5 11 C16.86 11, 17.23 11, 17.5 11 C17.78 11, 18 11.22, 18 11.5 C18 11.5, 18 11.5, 18 11.5 C18 11.78, 17.78 12, 17.5 12 C17.22 12, 16.94 12, 16.5 12 C16.22 12, 16 11.78, 16 11.5 C16 11.5, 16 11.5, 16 11.5" stroke="none" stroke-width="0" fill="#780b60"></path></g><g><path d="M21 11.5 C21 11.22, 21.22 11, 21.5 11 C22.64 11, 23.78 11, 25.5 11 C25.78 11, 26 11.22, 26 11.5 C26 11.5, 26 11.5, 26 11.5 C26 11.78, 25.78 12, 25.5 12 C24.78 12, 24.05 12, 23.5 12 C23.22 12, 23 12.22, 23 12.5 C23 12.88, 23 13.26, 23 13.5 C23 13.78, 22.78 14, 22.5 14 C22.25 14, 22.01 14, 21.5 14 C21.22 14, 21 13.78, 21 13.5 C21 13.5, 21 13.5, 21 13.5 C21 13.22, 21.22 13, 21.5 13 C21.5 13, 21.5 13, 21.5 13 C21.78 13, 22 12.78, 22 12.5 C22 12.5, 22 12.5, 22 12.5 C22 12.22, 21.78 12, 21.5 12 C21.5 12, 21.5 12, 21.5 12 C21.22 12, 21 11.78, 21 11.5 C21 11.5, 21 11.5, 21 11.5" stroke="none" stroke-width="0" fill="#780b60"></path></g><g><path d="M10 12.5 C10 12.22, 10.22 12, 10.5 12 C10.78 12, 11.06 12, 11.5 12 C11.78 12, 12 12.22, 12 12.5 C12 12.5, 12 12.5, 12 12.5 C12 12.78, 11.78 13, 11.5 13 C11.29 13, 11.09 13, 10.5 13 C10.22 13, 10 12.78, 10 12.5 C10 12.5, 10 12.5, 10 12.5" stroke="none" stroke-width="0" fill="#780b60"></path></g><g><path d="M15 12.5 C15 12.22, 15.22 12, 15.5 12 C15.5 12, 15.5 12, 15.5 12 C15.78 12, 16 12.22, 16 12.5 C16 12.5, 16 12.5, 16 12.5 C16 12.78, 15.78 13, 15.5 13 C15.5 13, 15.5 13, 15.5 13 C15.22 13, 15 12.78, 15 12.5 C15 12.5, 15 12.5, 15 12.5" stroke="none" stroke-width="0" fill="#780b60"></path></g><g><path d="M20 12.5 C20 12.22, 20.22 12, 20.5 12 C20.5 12, 20.5 12, 20.5 12 C20.78 12, 21 12.22, 21 12.5 C21 12.5, 21 12.5, 21 12.5 C21 12.78, 20.78 13, 20.5 13 C20.5 13, 20.5 13, 20.5 13 C20.22 13, 20 12.78, 20 12.5 C20 12.5, 20 12.5, 20 12.5" stroke="none" stroke-width="0" fill="#780b60"></path></g><g><path d="M26 12.5 C26 12.22, 26.22 12, 26.5 12 C26.5 12, 26.5 12, 26.5 12 C26.78 12, 27 12.22, 27 12.5 C27 12.5, 27 12.5, 27 12.5 C27 12.78, 27.22 13, 27.5 13 C27.5 13, 27.5 13, 27.5 13 C27.78 13, 28 13.22, 28 13.5 C28 14.08, 28 14.65, 28 15.5 C28 15.78, 27.78 16, 27.5 16 C27.5 16, 27.5 16, 27.5 16 C27.22 16, 27 16.22, 27 16.5 C27 16.5, 27 16.5, 27 16.5 C27 16.78, 27.22 17, 27.5 17 C27.5 17, 27.5 17, 27.5 17 C27.78 17, 28 17.22, 28 17.5 C28 17.74, 28 17.98, 28 18.5 C28 18.78, 27.78 19, 27.5 19 C27.5 19, 27.5 19, 27.5 19 C27.22 19, 27 18.78, 27 18.5 C27 18.5, 27 18.5, 27 18.5 C27 18.22, 26.78 18, 26.5 18 C26.5 18, 26.5 18, 26.5 18 C26.22 18, 26 17.78, 26 17.5 C26 17.25, 26 17.01, 26 16.5 C26 16.22, 25.78 16, 25.5 16 C25.5 16, 25.5 16, 25.5 16 C25.22 16, 25 15.78, 25 15.5 C25 15.5, 25 15.5, 25 15.5 C25 15.22, 25.22 15, 25.5 15 C25.73 15, 25.97 15, 26.5 15 C26.78 15, 27 14.78, 27 14.5 C27 14.5, 27 14.5, 27 14.5 C27 14.22, 26.78 14, 26.5 14 C26.5 14, 26.5 14, 26.5 14 C26.22 14, 26 13.78, 26 13.5 C26 13.14, 26 12.77, 26 12.5" stroke="none" stroke-width="0" fill="#780b60"></path></g><g><path d="M7 13.5 C7 13.22, 7.22 13, 7.5 13 C7.5 13, 7.5 13, 7.5 13 C7.78 13, 8 13.22, 8 13.5 C8 13.5, 8 13.5, 8 13.5 C8 13.78, 7.78 14, 7.5 14 C7.5 14, 7.5 14, 7.5 14 C7.22 14, 7 13.78, 7 13.5 C7 13.5, 7 13.5, 7 13.5" stroke="none" stroke-width="0" fill="#780b60"></path></g><g><path d="M9 13.5 C9 13.22, 9.22 13, 9.5 13 C9.5 13, 9.5 13, 9.5 13 C9.78 13, 10 13.22, 10 13.5 C10 13.5, 10 13.5, 10 13.5 C10 13.78, 9.78 14, 9.5 14 C9.5 14, 9.5 14, 9.5 14 C9.22 14, 9 13.78, 9 13.5 C9 13.5, 9 13.5, 9 13.5" stroke="none" stroke-width="0" fill="#780b60"></path></g><g><path d="M12 13.5 C12 13.22, 12.22 13, 12.5 13 C12.85 13, 13.21 13, 13.5 13 C13.78 13, 14 13.22, 14 13.5 C14 13.5, 14 13.5, 14 13.5 C14 13.78, 13.78 14, 13.5 14 C13.5 14, 13.5 14, 13.5 14 C13.22 14, 13 14.22, 13 14.5 C13 14.5, 13 14.5, 13 14.5 C13 14.78, 12.78 15, 12.5 15 C12.5 15, 12.5 15, 12.5 15 C12.22 15, 12 14.78, 12 14.5 C12 14.19, 12 13.88, 12 13.5" stroke="none" stroke-width="0" fill="#780b60"></path></g><g><path d="M17 13.5 C17 13.22, 17.22 13, 17.5 13 C18.24 13, 18.99 13, 19.5 13 C19.78 13, 20 13.22, 20 13.5 C20 13.83, 20 14.17, 20 14.5 C20 14.78, 19.78 15, 19.5 15 C19.5 15, 19.5 15, 19.5 15 C19.22 15, 19 15.22, 19 15.5 C19 15.5, 19 15.5, 19 15.5 C19 15.78, 18.78 16, 18.5 16 C18.5 16, 18.5 16, 18.5 16 C18.22 16, 18 16.22, 18 16.5 C18 16.5, 18 16.5, 18 16.5 C18 16.78, 17.78 17, 17.5 17 C17.5 17, 17.5 17, 17.5 17 C17.22 17, 17 17.22, 17 17.5 C17 17.5, 17 17.5, 17 17.5 C17 17.78, 16.78 18, 16.5 18 C16.5 18, 16.5 18, 16.5 18 C16.22 18, 16 17.78, 16 17.5 C16 17.5, 16 17.5, 16 17.5 C16 17.22, 15.78 17, 15.5 17 C15.5 17, 15.5 17, 15.5 17 C15.22 17, 15 16.78, 15 16.5 C15 16.5, 15 16.5, 15 16.5 C15 16.22, 14.78 16, 14.5 16 C14.15 16, 13.79 16, 13.5 16 C13.22 16, 13 15.78, 13 15.5 C13 15.5, 13 15.5, 13 15.5 C13 15.22, 13.22 15, 13.5 15 C13.5 15, 13.5 15, 13.5 15 C13.78 15, 14 14.78, 14 14.5 C14 14.5, 14 14.5, 14 14.5 C14 14.22, 14.22 14, 14.5 14 C14.5 14, 14.5 14, 14.5 14 C14.78 14, 15 14.22, 15 14.5 C15 14.5, 15 14.5, 15 14.5 C15 14.78, 15.22 15, 15.5 15 C15.8 15, 16.11 15, 16.5 15 C16.78 15, 17 14.78, 17 14.5 C17 14.17, 17 13.84, 17 13.5" stroke="none" stroke-width="0" fill="#780b60"></path></g><g><path d="M24 13.5 C24 13.22, 24.22 13, 24.5 13 C24.5 13, 24.5 13, 24.5 13 C24.78 13, 25 13.22, 25 13.5 C25 13.5, 25 13.5, 25 13.5 C25 13.78, 24.78 14, 24.5 14 C24.5 14, 24.5 14, 24.5 14 C24.22 14, 24 13.78, 24 13.5 C24 13.5, 24 13.5, 24 13.5" stroke="none" stroke-width="0" fill="#780b60"></path></g><g><path d="M6 14.5 C6 14.22, 6.22 14, 6.5 14 C6.5 14, 6.5 14, 6.5 14 C6.78 14, 7 14.22, 7 14.5 C7 14.5, 7 14.5, 7 14.5 C7 14.78, 6.78 15, 6.5 15 C6.5 15, 6.5 15, 6.5 15 C6.22 15, 6 14.78, 6 14.5 C6 14.5, 6 14.5, 6 14.5" stroke="none" stroke-width="0" fill="#780b60"></path></g><g><path d="M8 14.5 C8 14.22, 8.22 14, 8.5 14 C8.5 14, 8.5 14, 8.5 14 C8.78 14, 9 14.22, 9 14.5 C9 14.5, 9 14.5, 9 14.5 C9 14.78, 9.22 15, 9.5 15 C9.5 15, 9.5 15, 9.5 15 C9.78 15, 10 14.78, 10 14.5 C10 14.5, 10 14.5, 10 14.5 C10 14.22, 10.22 14, 10.5 14 C10.5 14, 10.5 14, 10.5 14 C10.78 14, 11 14.22, 11 14.5 C11 14.72, 11 14.93, 11 15.5 C11 15.78, 10.78 16, 10.5 16 C10.11 16, 9.71 16, 9.5 16 C9.22 16, 9 16.22, 9 16.5 C9 16.5, 9 16.5, 9 16.5 C9 16.78, 8.78 17, 8.5 17 C8.23 17, 7.96 17, 7.5 17 C7.22 17, 7 16.78, 7 16.5 C7 16.5, 7 16.5, 7 16.5 C7 16.22, 7.22 16, 7.5 16 C7.5 16, 7.5 16, 7.5 16 C7.78 16, 8 15.78, 8 15.5 C8 15.3, 8 15.09, 8 14.5" stroke="none" stroke-width="0" fill="#780b60"></path></g><g><path d="M5 15.5 C5 15.22, 5.22 15, 5.5 15 C5.5 15, 5.5 15, 5.5 15 C5.78 15, 6 15.22, 6 15.5 C6 15.82, 6 16.14, 6 16.5 C6 16.78, 6.22 17, 6.5 17 C6.5 17, 6.5 17, 6.5 17 C6.78 17, 7 17.22, 7 17.5 C7 17.5, 7 17.5, 7 17.5 C7 17.78, 6.78 18, 6.5 18 C6.18 18, 5.86 18, 5.5 18 C5.22 18, 5 17.78, 5 17.5 C5 16.74, 5 15.99, 5 15.5" stroke="none" stroke-width="0" fill="#780b60"></path></g><g><path d="M20 15.5 L23.5 15 L24 15.5 L23 16.5 L25 16.5 L24 18.5 L25 20.5 L24 21.5 L25 22.5 L24 23.5 L24.5 24 L25.5 23 L28 24.5 L27.5 28 L22.5 28 L21 26.5 L24 25.5 L22.5 24 L20.5 26 L19.5 24 L15.5 24 L14.5 25 L12.5 24 L12 24.5 L13.5 26 L16.5 27 L16.5 28 L13.5 28 L11 25.5 L11.5 22 L12.5 23 L13.5 22 L15.5 23 L19 22.5 L18 20.5 L19 19.5 L18 17.5 L19.5 16 L20.5 17 L22 16.5 L20 15.5 M20.5 18 L20.5 19 L22 18.5 L20.5 18 M20.5 20 L20 22.5 L22.5 23 L23 20.5 L20.5 20 M26.5 25 L25 26.5 L25.5 27 L27 26.5 L26.5 25" stroke="none" stroke-width="0" fill="#780b60"></path></g><g><path d="M3 16.5 C3 16.22, 3.22 16, 3.5 16 C3.5 16, 3.5 16, 3.5 16 C3.78 16, 4 16.22, 4 16.5 C4 17.33, 4 18.17, 4 19.5 C4 19.78, 3.78 20, 3.5 20 C3.5 20, 3.5 20, 3.5 20 C3.22 20, 3 19.78, 3 19.5 C3 18.42, 3 17.33, 3 16.5" stroke="none" stroke-width="0" fill="#780b60"></path></g><g><path d="M12 16.5 C12 16.22, 12.22 16, 12.5 16 C12.5 16, 12.5 16, 12.5 16 C12.78 16, 13 16.22, 13 16.5 C13 16.77, 13 17.04, 13 17.5 C13 17.78, 12.78 18, 12.5 18 C12.5 18, 12.5 18, 12.5 18 C12.22 18, 12 17.78, 12 17.5 C12 17.2, 12 16.9, 12 16.5" stroke="none" stroke-width="0" fill="#780b60"></path></g><g><path d="M9 17.5 C9 17.22, 9.22 17, 9.5 17 C9.5 17, 9.5 17, 9.5 17 C9.78 17, 10 17.22, 10 17.5 C10 17.5, 10 17.5, 10 17.5 C10 17.78, 9.78 18, 9.5 18 C9.5 18, 9.5 18, 9.5 18 C9.22 18, 9 17.78, 9 17.5 C9 17.5, 9 17.5, 9 17.5" stroke="none" stroke-width="0" fill="#780b60"></path></g><g><path d="M7 18.5 C7 18.22, 7.22 18, 7.5 18 C7.5 18, 7.5 18, 7.5 18 C7.78 18, 8 18.22, 8 18.5 C8 18.79, 8 19.07, 8 19.5 C8 19.78, 7.78 20, 7.5 20 C6.82 20, 6.14 20, 5.5 20 C5.22 20, 5 19.78, 5 19.5 C5 19.5, 5 19.5, 5 19.5 C5 19.22, 5.22 19, 5.5 19 C5.74 19, 5.97 19, 6.5 19 C6.78 19, 7 18.78, 7 18.5 C7 18.5, 7 18.5, 7 18.5" stroke="none" stroke-width="0" fill="#780b60"></path></g><g><path d="M13 18.5 C13 18.22, 13.22 18, 13.5 18 C13.81 18, 14.12 18, 14.5 18 C14.78 18, 15 18.22, 15 18.5 C15 18.5, 15 18.5, 15 18.5 C15 18.78, 14.78 19, 14.5 19 C14.5 19, 14.5 19, 14.5 19 C14.22 19, 14 19.22, 14 19.5 C14 19.5, 14 19.5, 14 19.5 C14 19.78, 14.22 20, 14.5 20 C14.5 20, 14.5 20, 14.5 20 C14.78 20, 15 20.22, 15 20.5 C15 20.5, 15 20.5, 15 20.5 C15 20.78, 14.78 21, 14.5 21 C14.19 21, 13.87 21, 13.5 21 C13.22 21, 13 21.22, 13 21.5 C13 21.5, 13 21.5, 13 21.5 C13 21.78, 12.78 22, 12.5 22 C12.5 22, 12.5 22, 12.5 22 C12.22 22, 12 21.78, 12 21.5 C12 21.5, 12 21.5, 12 21.5 C12 21.22, 11.78 21, 11.5 21 C11.5 21, 11.5 21, 11.5 21 C11.22 21, 11 20.78, 11 20.5 C11 20.5, 11 20.5, 11 20.5 C11 20.22, 10.78 20, 10.5 20 C10.15 20, 9.79 20, 9.5 20 C9.22 20, 9 19.78, 9 19.5 C9 19.5, 9 19.5, 9 19.5 C9 19.22, 9.22 19, 9.5 19 C10.13 19, 10.76 19, 11.5 19 C11.78 19, 12 19.22, 12 19.5 C12 19.5, 12 19.5, 12 19.5 C12 19.78, 12.22 20, 12.5 20 C12.5 20, 12.5 20, 12.5 20 C12.78 20, 13 19.78, 13 19.5 C13 19.24, 13 18.97, 13 18.5" stroke="none" stroke-width="0" fill="#780b60"></path></g><g><path d="M15 19.5 C15 19.22, 15.22 19, 15.5 19 C16.28 19, 17.05 19, 17.5 19 C17.78 19, 18 19.22, 18 19.5 C18 19.5, 18 19.5, 18 19.5 C18 19.78, 17.78 20, 17.5 20 C17.5 20, 17.5 20, 17.5 20 C17.22 20, 17 20.22, 17 20.5 C17 20.5, 17 20.5, 17 20.5 C17 20.78, 16.78 21, 16.5 21 C16.5 21, 16.5 21, 16.5 21 C16.22 21, 16 20.78, 16 20.5 C16 20.5, 16 20.5, 16 20.5 C16 20.22, 15.78 20, 15.5 20 C15.5 20, 15.5 20, 15.5 20 C15.22 20, 15 19.78, 15 19.5 C15 19.5, 15 19.5, 15 19.5" stroke="none" stroke-width="0" fill="#780b60"></path></g><g><path d="M25 19.5 C25 19.22, 25.22 19, 25.5 19 C25.5 19, 25.5 19, 25.5 19 C25.78 19, 26 19.22, 26 19.5 C26 19.5, 26 19.5, 26 19.5 C26 19.78, 25.78 20, 25.5 20 C25.5 20, 25.5 20, 25.5 20 C25.22 20, 25 19.78, 25 19.5 C25 19.5, 25 19.5, 25 19.5" stroke="none" stroke-width="0" fill="#780b60"></path></g><g><path d="M3 21.5 L9.5 21 L10 27.5 L3.5 28 L3 21.5 M4.5 22 L4 26.5 L8.5 27 L9 22.5 L4.5 22" stroke="none" stroke-width="0" fill="#780b60"></path></g><g><path d="M15 21.5 C15 21.22, 15.22 21, 15.5 21 C15.5 21, 15.5 21, 15.5 21 C15.78 21, 16 21.22, 16 21.5 C16 21.5, 16 21.5, 16 21.5 C16 21.78, 15.78 22, 15.5 22 C15.5 22, 15.5 22, 15.5 22 C15.22 22, 15 21.78, 15 21.5 C15 21.5, 15 21.5, 15 21.5" stroke="none" stroke-width="0" fill="#780b60"></path></g><g><path d="M21 21.5 C21 21.22, 21.22 21, 21.5 21 C21.5 21, 21.5 21, 21.5 21 C21.78 21, 22 21.22, 22 21.5 C22 21.5, 22 21.5, 22 21.5 C22 21.78, 21.78 22, 21.5 22 C21.5 22, 21.5 22, 21.5 22 C21.22 22, 21 21.78, 21 21.5 C21 21.5, 21 21.5, 21 21.5" stroke="none" stroke-width="0" fill="#780b60"></path></g><g><path d="M25 21.5 C25 21.22, 25.22 21, 25.5 21 C26.27 21, 27.03 21, 27.5 21 C27.78 21, 28 21.22, 28 21.5 C28 21.5, 28 21.5, 28 21.5 C28 21.78, 27.78 22, 27.5 22 C26.78 22, 26.06 22, 25.5 22 C25.22 22, 25 21.78, 25 21.5 C25 21.5, 25 21.5, 25 21.5" stroke="none" stroke-width="0" fill="#780b60"></path></g><g><path d="M5 23.5 C5 23.22, 5.22 23, 5.5 23 C6.1 23, 6.69 23, 7.5 23 C7.78 23, 8 23.22, 8 23.5 C8 24.17, 8 24.84, 8 25.5 C8 25.78, 7.78 26, 7.5 26 C6.75 26, 6 26, 5.5 26 C5.22 26, 5 25.78, 5 25.5 C5 25.06, 5 24.62, 5 23.5" stroke="none" stroke-width="0" fill="#780b60"></path></g><g><path d="M15 25.5 C15 25.22, 15.22 25, 15.5 25 C15.5 25, 15.5 25, 15.5 25 C15.78 25, 16 25.22, 16 25.5 C16 25.5, 16 25.5, 16 25.5 C16 25.78, 15.78 26, 15.5 26 C15.5 26, 15.5 26, 15.5 26 C15.22 26, 15 25.78, 15 25.5 C15 25.5, 15 25.5, 15 25.5" stroke="none" stroke-width="0" fill="#780b60"></path></g><g><path d="M17 25.5 C17 25.22, 17.22 25, 17.5 25 C17.75 25, 17.99 25, 18.5 25 C18.78 25, 19 25.22, 19 25.5 C19 25.5, 19 25.5, 19 25.5 C19 25.78, 19.22 26, 19.5 26 C19.5 26, 19.5 26, 19.5 26 C19.78 26, 20 26.22, 20 26.5 C20 26.5, 20 26.5, 20 26.5 C20 26.78, 19.78 27, 19.5 27 C19.02 27, 18.53 27, 17.5 27 C17.22 27, 17 26.78, 17 26.5 C17 26.18, 17 25.86, 17 25.5" stroke="none" stroke-width="0" fill="#780b60"></path></g><g><path d="M11 27.5 C11 27.22, 11.22 27, 11.5 27 C11.5 27, 11.5 27, 11.5 27 C11.78 27, 12 27.22, 12 27.5 C12 27.5, 12 27.5, 12 27.5 C12 27.78, 11.78 28, 11.5 28 C11.5 28, 11.5 28, 11.5 28 C11.22 28, 11 27.78, 11 27.5 C11 27.5, 11 27.5, 11 27.5" stroke="none" stroke-width="0" fill="#780b60"></path></g></svg>