<svg xmlns="http://www.w3.org/2000/svg" viewBox="-5 -5 35 35"><rect x="-5" y="-5" width="35" height="35" fill="#ffffff"></rect><path fill="#000000" d="M8.5,-4.9a0.4,0.4 0,0,0 0,0.8a0.4,0.4 0,0,0 0,-0.8M9.5,-4.91a0.41,0.41 0,0,0 0,0.82a0.41,0.41 0,0,0 0,-0.82M12.5,-4.91a0.41,0.41 0,0,0 0,0.82a0.41,0.41 0,0,0 0,-0.82M8.5,-3.93a0.43,0.43 0,0,0 0,0.86a0.43,0.43 0,0,0 0,-0.86M11.5,-3.94a0.44,0.44 0,0,0 0,0.88a0.44,0.44 0,0,0 0,-0.88M12.5,-3.94a0.44,0.44 0,0,0 0,0.88a0.44,0.44 0,0,0 0,-0.88M13.5,-3.94a0.44,0.44 0,0,0 0,0.88a0.44,0.44 0,0,0 0,-0.88M16.5,-3.93a0.43,0.43 0,0,0 0,0.86a0.43,0.43 0,0,0 0,-0.86M19.5,-3.9a0.4,0.4 0,0,0 0,0.8a0.4,0.4 0,0,0 0,-0.8M3.5,-2.9a0.4,0.4 0,0,0 0,0.8a0.4,0.4 0,0,0 0,-0.8M6.5,-2.94a0.44,0.44 0,0,0 0,0.88a0.44,0.44 0,0,0 0,-0.88M10.5,-2.9699999999999998a0.47,0.47 0,0,0 0,0.94a0.47,0.47 0,0,0 0,-0.94M11.5,-2.9699999999999998a0.47,0.47 0,0,0 0,0.94a0.47,0.47 0,0,0 0,-0.94M12.5,-2.9699999999999998a0.47,0.47 0,0,0 0,0.94a0.47,0.47 0,0,0 0,-0.94M14.5,-2.9699999999999998a0.47,0.47 0,0,0 0,0.94a0.47,0.47 0,0,0 0,-0.94M15.5,-2.96a0.46,0.46 0,0,0 0,0.92a0.46,0.46 0,0,0 0,-0.92M17.5,-2.95a0.45,0.45 0,0,0 0,0.9a0.45,0.45 0,0,0 0,-0.9M19.5,-2.93a0.43,0.43 0,0,0 0,0.86a0.43,0.43 0,0,0 0,-0.86M21.5,-2.9a0.4,0.4 0,0,0 0,0.8a0.4,0.4 0,0,0 0,-0.8M2.5,-1.91a0.41,0.41 0,0,0 0,0.82a0.41,0.41 0,0,0 0,-0.82M3.5,-1.92a0.42,0.42 0,0,0 0,0.84a0.42,0.42 0,0,0 0,-0.84M4.5,-1.94a0.44,0.44 0,0,0 0,0.88a0.44,0.44 0,0,0 0,-0.88M5.5,-1.95a0.45,0.45 0,0,0 0,0.9a0.45,0.45 0,0,0 0,-0.9M8.5,-1.98a0.48,0.48 0,0,0 0,0.96a0.48,0.48 0,0,0 0,-0.96M9.5,-1.99a0.49,0.49 0,0,0 0,0.98a0.49,0.49 0,0,0 0,-0.98M13.5,-2a0.5,0.5 0,0,0 0,1a0.5,0.5 0,0,0 0,-1M14.5,-2a0.5,0.5 0,0,0 0,1a0.5,0.5 0,0,0 0,-1M15.5,-1.99a0.49,0.49 0,0,0 0,0.98a0.49,0.49 0,0,0 0,-0.98M19.5,-1.95a0.45,0.45 0,0,0 0,0.9a0.45,0.45 0,0,0 0,-0.9M22.5,-1.91a0.41,0.41 0,0,0 0,0.82a0.41,0.41 0,0,0 0,-0.82M9.5,-1.02a0.52,0.52 0,0,0 0,1.04a0.52,0.52 0,0,0 0,-1.04M13.5,-1.03a0.53,0.53 0,0,0 0,1.06a0.53,0.53 0,0,0 0,-1.06M14.5,-1.02a0.52,0.52 0,0,0 0,1.04a0.52,0.52 0,0,0 0,-1.04M16.5,-1.01a0.51,0.51 0,0,0 0,1.02a0.51,0.51 0,0,0 0,-1.02M0.5,0.08000000000000002a0.42,0.42 0,0,0 0,0.84a0.42,0.42 0,0,0 0,-0.84M1.5,0.07a0.43,0.43 0,0,0 0,0.86a0.43,0.43 0,0,0 0,-0.86M2.5,0.04999999999999999a0.45,0.45 0,0,0 0,0.9a0.45,0.45 0,0,0 0,-0.9M3.5,0.030000000000000027a0.47,0.47 0,0,0 0,0.94a0.47,0.47 0,0,0 0,-0.94M4.5,0.010000000000000009a0.49,0.49 0,0,0 0,0.98a0.49,0.49 0,0,0 0,-0.98M5.5,0a0.5,0.5 0,0,0 0,1a0.5,0.5 0,0,0 0,-1M6.5,-0.020000000000000018a0.52,0.52 0,0,0 0,1.04a0.52,0.52 0,0,0 0,-1.04M13.5,-0.050000000000000044a0.55,0.55 0,0,0 0,1.1a0.55,0.55 0,0,0 0,-1.1M14.5,-0.050000000000000044a0.55,0.55 0,0,0 0,1.1a0.55,0.55 0,0,0 0,-1.1M16.5,-0.040000000000000036a0.54,0.54 0,0,0 0,1.08a0.54,0.54 0,0,0 0,-1.08M18.5,-0.020000000000000018a0.52,0.52 0,0,0 0,1.04a0.52,0.52 0,0,0 0,-1.04M19.5,0a0.5,0.5 0,0,0 0,1a0.5,0.5 0,0,0 0,-1M20.5,0.010000000000000009a0.49,0.49 0,0,0 0,0.98a0.49,0.49 0,0,0 0,-0.98M21.5,0.030000000000000027a0.47,0.47 0,0,0 0,0.94a0.47,0.47 0,0,0 0,-0.94M22.5,0.04999999999999999a0.45,0.45 0,0,0 0,0.9a0.45,0.45 0,0,0 0,-0.9M23.5,0.07a0.43,0.43 0,0,0 0,0.86a0.43,0.43 0,0,0 0,-0.86M24.5,0.08000000000000002a0.42,0.42 0,0,0 0,0.84a0.42,0.42 0,0,0 0,-0.84M0.5,1.07a0.43,0.43 0,0,0 0,0.86a0.43,0.43 0,0,0 0,-0.86M6.5,0.96a0.54,0.54 0,0,0 0,1.08a0.54,0.54 0,0,0 0,-1.08M9.5,0.93a0.57,0.57 0,0,0 0,1.14a0.57,0.57 0,0,0 0,-1.14M12.5,0.92a0.58,0.58 0,0,0 0,1.16a0.58,0.58 0,0,0 0,-1.16M15.5,0.93a0.57,0.57 0,0,0 0,1.14a0.57,0.57 0,0,0 0,-1.14M16.5,0.94a0.56,0.56 0,0,0 0,1.12a0.56,0.56 0,0,0 0,-1.12M18.5,0.96a0.54,0.54 0,0,0 0,1.08a0.54,0.54 0,0,0 0,-1.08M24.5,1.07a0.43,0.43 0,0,0 0,0.86a0.43,0.43 0,0,0 0,-0.86M-1.5,2.09a0.41,0.41 0,0,0 0,0.82a0.41,0.41 0,0,0 0,-0.82M0.5,2.05a0.45,0.45 0,0,0 0,0.9a0.45,0.45 0,0,0 0,-0.9M2.5,2a0.5,0.5 0,0,0 0,1a0.5,0.5 0,0,0 0,-1M3.5,1.99a0.51,0.51 0,0,0 0,1.02a0.51,0.51 0,0,0 0,-1.02M4.5,1.97a0.53,0.53 0,0,0 0,1.06a0.53,0.53 0,0,0 0,-1.06M6.5,1.9300000000000002a0.57,0.57 0,0,0 0,1.14a0.57,0.57 0,0,0 0,-1.14M8.5,1.9100000000000001a0.59,0.59 0,0,0 0,1.18a0.59,0.59 0,0,0 0,-1.18M9.5,1.9a0.6,0.6 0,0,0 0,1.2a0.6,0.6 0,0,0 0,-1.2M10.5,1.8900000000000001a0.61,0.61 0,0,0 0,1.22a0.61,0.61 0,0,0 0,-1.22M14.5,1.8900000000000001a0.61,0.61 0,0,0 0,1.22a0.61,0.61 0,0,0 0,-1.22M18.5,1.9300000000000002a0.57,0.57 0,0,0 0,1.14a0.57,0.57 0,0,0 0,-1.14M20.5,1.97a0.53,0.53 0,0,0 0,1.06a0.53,0.53 0,0,0 0,-1.06M21.5,1.99a0.51,0.51 0,0,0 0,1.02a0.51,0.51 0,0,0 0,-1.02M22.5,2a0.5,0.5 0,0,0 0,1a0.5,0.5 0,0,0 0,-1M24.5,2.05a0.45,0.45 0,0,0 0,0.9a0.45,0.45 0,0,0 0,-0.9M26.5,2.09a0.41,0.41 0,0,0 0,0.82a0.41,0.41 0,0,0 0,-0.82M0.5,3.0300000000000002a0.47,0.47 0,0,0 0,0.94a0.47,0.47 0,0,0 0,-0.94M2.5,2.99a0.51,0.51 0,0,0 0,1.02a0.51,0.51 0,0,0 0,-1.02M3.5,2.96a0.54,0.54 0,0,0 0,1.08a0.54,0.54 0,0,0 0,-1.08M4.5,2.95a0.55,0.55 0,0,0 0,1.1a0.55,0.55 0,0,0 0,-1.1M6.5,2.91a0.59,0.59 0,0,0 0,1.18a0.59,0.59 0,0,0 0,-1.18M8.5,2.88a0.62,0.62 0,0,0 0,1.24a0.62,0.62 0,0,0 0,-1.24M9.5,2.87a0.63,0.63 0,0,0 0,1.26a0.63,0.63 0,0,0 0,-1.26M13.5,2.86a0.64,0.64 0,0,0 0,1.28a0.64,0.64 0,0,0 0,-1.28M14.5,2.87a0.63,0.63 0,0,0 0,1.26a0.63,0.63 0,0,0 0,-1.26M18.5,2.91a0.59,0.59 0,0,0 0,1.18a0.59,0.59 0,0,0 0,-1.18M20.5,2.95a0.55,0.55 0,0,0 0,1.1a0.55,0.55 0,0,0 0,-1.1M21.5,2.96a0.54,0.54 0,0,0 0,1.08a0.54,0.54 0,0,0 0,-1.08M22.5,2.99a0.51,0.51 0,0,0 0,1.02a0.51,0.51 0,0,0 0,-1.02M24.5,3.0300000000000002a0.47,0.47 0,0,0 0,0.94a0.47,0.47 0,0,0 0,-0.94M26.5,3.08a0.42,0.42 0,0,0 0,0.84a0.42,0.42 0,0,0 0,-0.84M27.5,3.1a0.4,0.4 0,0,0 0,0.8a0.4,0.4 0,0,0 0,-0.8M-1.5,4.06a0.44,0.44 0,0,0 0,0.88a0.44,0.44 0,0,0 0,-0.88M0.5,4.01a0.49,0.49 0,0,0 0,0.98a0.49,0.49 0,0,0 0,-0.98M2.5,3.9699999999999998a0.53,0.53 0,0,0 0,1.06a0.53,0.53 0,0,0 0,-1.06M3.5,3.95a0.55,0.55 0,0,0 0,1.1a0.55,0.55 0,0,0 0,-1.1M4.5,3.92a0.58,0.58 0,0,0 0,1.16a0.58,0.58 0,0,0 0,-1.16M6.5,3.89a0.61,0.61 0,0,0 0,1.22a0.61,0.61 0,0,0 0,-1.22M8.5,3.86a0.64,0.64 0,0,0 0,1.28a0.64,0.64 0,0,0 0,-1.28M10.5,3.84a0.66,0.66 0,0,0 0,1.32a0.66,0.66 0,0,0 0,-1.32M11.5,3.83a0.67,0.67 0,0,0 0,1.34a0.67,0.67 0,0,0 0,-1.34M13.5,3.83a0.67,0.67 0,0,0 0,1.34a0.67,0.67 0,0,0 0,-1.34M16.5,3.86a0.64,0.64 0,0,0 0,1.28a0.64,0.64 0,0,0 0,-1.28M18.5,3.89a0.61,0.61 0,0,0 0,1.22a0.61,0.61 0,0,0 0,-1.22M20.5,3.92a0.58,0.58 0,0,0 0,1.16a0.58,0.58 0,0,0 0,-1.16M21.5,3.95a0.55,0.55 0,0,0 0,1.1a0.55,0.55 0,0,0 0,-1.1M22.5,3.9699999999999998a0.53,0.53 0,0,0 0,1.06a0.53,0.53 0,0,0 0,-1.06M24.5,4.01a0.49,0.49 0,0,0 0,0.98a0.49,0.49 0,0,0 0,-0.98M27.5,4.09a0.41,0.41 0,0,0 0,0.82a0.41,0.41 0,0,0 0,-0.82M0.5,5a0.5,0.5 0,0,0 0,1a0.5,0.5 0,0,0 0,-1M6.5,4.87a0.63,0.63 0,0,0 0,1.26a0.63,0.63 0,0,0 0,-1.26M8.5,4.83a0.67,0.67 0,0,0 0,1.34a0.67,0.67 0,0,0 0,-1.34M10.5,4.8100000000000005a0.69,0.69 0,0,0 0,1.38a0.69,0.69 0,0,0 0,-1.38M14.5,4.8100000000000005a0.69,0.69 0,0,0 0,1.38a0.69,0.69 0,0,0 0,-1.38M15.5,4.82a0.68,0.68 0,0,0 0,1.36a0.68,0.68 0,0,0 0,-1.36M18.5,4.87a0.63,0.63 0,0,0 0,1.26a0.63,0.63 0,0,0 0,-1.26M24.5,5a0.5,0.5 0,0,0 0,1a0.5,0.5 0,0,0 0,-1M26.5,5.05a0.45,0.45 0,0,0 0,0.9a0.45,0.45 0,0,0 0,-0.9M27.5,5.07a0.43,0.43 0,0,0 0,0.86a0.43,0.43 0,0,0 0,-0.86M-2.5,6.06a0.44,0.44 0,0,0 0,0.88a0.44,0.44 0,0,0 0,-0.88M0.5,5.98a0.52,0.52 0,0,0 0,1.04a0.52,0.52 0,0,0 0,-1.04M1.5,5.96a0.54,0.54 0,0,0 0,1.08a0.54,0.54 0,0,0 0,-1.08M2.5,5.93a0.57,0.57 0,0,0 0,1.14a0.57,0.57 0,0,0 0,-1.14M3.5,5.91a0.59,0.59 0,0,0 0,1.18a0.59,0.59 0,0,0 0,-1.18M4.5,5.89a0.61,0.61 0,0,0 0,1.22a0.61,0.61 0,0,0 0,-1.22M5.5,5.87a0.63,0.63 0,0,0 0,1.26a0.63,0.63 0,0,0 0,-1.26M6.5,5.84a0.66,0.66 0,0,0 0,1.32a0.66,0.66 0,0,0 0,-1.32M8.5,5.8100000000000005a0.69,0.69 0,0,0 0,1.38a0.69,0.69 0,0,0 0,-1.38M10.5,5.78a0.72,0.72 0,0,0 0,1.44a0.72,0.72 0,0,0 0,-1.44M12.5,5.77a0.73,0.73 0,0,0 0,1.46a0.73,0.73 0,0,0 0,-1.46M14.5,5.78a0.72,0.72 0,0,0 0,1.44a0.72,0.72 0,0,0 0,-1.44M16.5,5.8100000000000005a0.69,0.69 0,0,0 0,1.38a0.69,0.69 0,0,0 0,-1.38M18.5,5.84a0.66,0.66 0,0,0 0,1.32a0.66,0.66 0,0,0 0,-1.32M19.5,5.87a0.63,0.63 0,0,0 0,1.26a0.63,0.63 0,0,0 0,-1.26M20.5,5.89a0.61,0.61 0,0,0 0,1.22a0.61,0.61 0,0,0 0,-1.22M21.5,5.91a0.59,0.59 0,0,0 0,1.18a0.59,0.59 0,0,0 0,-1.18M22.5,5.93a0.57,0.57 0,0,0 0,1.14a0.57,0.57 0,0,0 0,-1.14M23.5,5.96a0.54,0.54 0,0,0 0,1.08a0.54,0.54 0,0,0 0,-1.08M24.5,5.98a0.52,0.52 0,0,0 0,1.04a0.52,0.52 0,0,0 0,-1.04M-2.5,7.05a0.45,0.45 0,0,0 0,0.9a0.45,0.45 0,0,0 0,-0.9M-1.5,7.03a0.47,0.47 0,0,0 0,0.94a0.47,0.47 0,0,0 0,-0.94M8.5,6.79a0.71,0.71 0,0,0 0,1.42a0.71,0.71 0,0,0 0,-1.42M9.5,6.77a0.73,0.73 0,0,0 0,1.46a0.73,0.73 0,0,0 0,-1.46M10.5,6.76a0.74,0.74 0,0,0 0,1.48a0.74,0.74 0,0,0 0,-1.48M16.5,6.79a0.71,0.71 0,0,0 0,1.42a0.71,0.71 0,0,0 0,-1.42M-3.5,8.07a0.43,0.43 0,0,0 0,0.86a0.43,0.43 0,0,0 0,-0.86M-2.5,8.04a0.46,0.46 0,0,0 0,0.92a0.46,0.46 0,0,0 0,-0.92M-1.5,8.02a0.48,0.48 0,0,0 0,0.96a0.48,0.48 0,0,0 0,-0.96M0.5,7.96a0.54,0.54 0,0,0 0,1.08a0.54,0.54 0,0,0 0,-1.08M2.5,7.91a0.59,0.59 0,0,0 0,1.18a0.59,0.59 0,0,0 0,-1.18M3.5,7.88a0.62,0.62 0,0,0 0,1.24a0.62,0.62 0,0,0 0,-1.24M4.5,7.86a0.64,0.64 0,0,0 0,1.28a0.64,0.64 0,0,0 0,-1.28M5.5,7.83a0.67,0.67 0,0,0 0,1.34a0.67,0.67 0,0,0 0,-1.34M6.5,7.8100000000000005a0.69,0.69 0,0,0 0,1.38a0.69,0.69 0,0,0 0,-1.38M10.5,7.73a0.77,0.77 0,0,0 0,1.54a0.77,0.77 0,0,0 0,-1.54M11.5,7.72a0.78,0.78 0,0,0 0,1.56a0.78,0.78 0,0,0 0,-1.56M13.5,7.72a0.78,0.78 0,0,0 0,1.56a0.78,0.78 0,0,0 0,-1.56M14.5,7.73a0.77,0.77 0,0,0 0,1.54a0.77,0.77 0,0,0 0,-1.54M18.5,7.8100000000000005a0.69,0.69 0,0,0 0,1.38a0.69,0.69 0,0,0 0,-1.38M19.5,7.83a0.67,0.67 0,0,0 0,1.34a0.67,0.67 0,0,0 0,-1.34M20.5,7.86a0.64,0.64 0,0,0 0,1.28a0.64,0.64 0,0,0 0,-1.28M21.5,7.88a0.62,0.62 0,0,0 0,1.24a0.62,0.62 0,0,0 0,-1.24M22.5,7.91a0.59,0.59 0,0,0 0,1.18a0.59,0.59 0,0,0 0,-1.18M25.5,7.99a0.51,0.51 0,0,0 0,1.02a0.51,0.51 0,0,0 0,-1.02M26.5,8.02a0.48,0.48 0,0,0 0,0.96a0.48,0.48 0,0,0 0,-0.96M28.5,8.07a0.43,0.43 0,0,0 0,0.86a0.43,0.43 0,0,0 0,-0.86M-4.5,9.09a0.41,0.41 0,0,0 0,0.82a0.41,0.41 0,0,0 0,-0.82M-3.5,9.07a0.43,0.43 0,0,0 0,0.86a0.43,0.43 0,0,0 0,-0.86M2.5,8.9a0.6,0.6 0,0,0 0,1.2a0.6,0.6 0,0,0 0,-1.2M5.5,8.82a0.68,0.68 0,0,0 0,1.36a0.68,0.68 0,0,0 0,-1.36M7.5,8.77a0.73,0.73 0,0,0 0,1.46a0.73,0.73 0,0,0 0,-1.46M8.5,8.75a0.75,0.75 0,0,0 0,1.5a0.75,0.75 0,0,0 0,-1.5M12.5,8.69a0.81,0.81 0,0,0 0,1.62a0.81,0.81 0,0,0 0,-1.62M17.5,8.77a0.73,0.73 0,0,0 0,1.46a0.73,0.73 0,0,0 0,-1.46M19.5,8.82a0.68,0.68 0,0,0 0,1.36a0.68,0.68 0,0,0 0,-1.36M23.5,8.93a0.57,0.57 0,0,0 0,1.14a0.57,0.57 0,0,0 0,-1.14M26.5,9.01a0.49,0.49 0,0,0 0,0.98a0.49,0.49 0,0,0 0,-0.98M27.5,9.04a0.46,0.46 0,0,0 0,0.92a0.46,0.46 0,0,0 0,-0.92M28.5,9.07a0.43,0.43 0,0,0 0,0.86a0.43,0.43 0,0,0 0,-0.86M-3.5,10.06a0.44,0.44 0,0,0 0,0.88a0.44,0.44 0,0,0 0,-0.88M-1.5,10a0.5,0.5 0,0,0 0,1a0.5,0.5 0,0,0 0,-1M-0.5,9.98a0.52,0.52 0,0,0 0,1.04a0.52,0.52 0,0,0 0,-1.04M0.5,9.95a0.55,0.55 0,0,0 0,1.1a0.55,0.55 0,0,0 0,-1.1M1.5,9.92a0.58,0.58 0,0,0 0,1.16a0.58,0.58 0,0,0 0,-1.16M2.5,9.89a0.61,0.61 0,0,0 0,1.22a0.61,0.61 0,0,0 0,-1.22M4.5,9.84a0.66,0.66 0,0,0 0,1.32a0.66,0.66 0,0,0 0,-1.32M6.5,9.78a0.72,0.72 0,0,0 0,1.44a0.72,0.72 0,0,0 0,-1.44M9.5,9.71a0.79,0.79 0,0,0 0,1.58a0.79,0.79 0,0,0 0,-1.58M10.5,9.68a0.82,0.82 0,0,0 0,1.64a0.82,0.82 0,0,0 0,-1.64M14.5,9.68a0.82,0.82 0,0,0 0,1.64a0.82,0.82 0,0,0 0,-1.64M15.5,9.71a0.79,0.79 0,0,0 0,1.58a0.79,0.79 0,0,0 0,-1.58M16.5,9.73a0.77,0.77 0,0,0 0,1.54a0.77,0.77 0,0,0 0,-1.54M18.5,9.78a0.72,0.72 0,0,0 0,1.44a0.72,0.72 0,0,0 0,-1.44M19.5,9.81a0.69,0.69 0,0,0 0,1.38a0.69,0.69 0,0,0 0,-1.38M21.5,9.87a0.63,0.63 0,0,0 0,1.26a0.63,0.63 0,0,0 0,-1.26M23.5,9.92a0.58,0.58 0,0,0 0,1.16a0.58,0.58 0,0,0 0,-1.16M24.5,9.95a0.55,0.55 0,0,0 0,1.1a0.55,0.55 0,0,0 0,-1.1M25.5,9.98a0.52,0.52 0,0,0 0,1.04a0.52,0.52 0,0,0 0,-1.04M27.5,10.03a0.47,0.47 0,0,0 0,0.94a0.47,0.47 0,0,0 0,-0.94M-4.5,11.09a0.41,0.41 0,0,0 0,0.82a0.41,0.41 0,0,0 0,-0.82M-3.5,11.06a0.44,0.44 0,0,0 0,0.88a0.44,0.44 0,0,0 0,-0.88M-2.5,11.03a0.47,0.47 0,0,0 0,0.94a0.47,0.47 0,0,0 0,-0.94M1.5,10.92a0.58,0.58 0,0,0 0,1.16a0.58,0.58 0,0,0 0,-1.16M3.5,10.86a0.64,0.64 0,0,0 0,1.28a0.64,0.64 0,0,0 0,-1.28M5.5,10.8a0.7,0.7 0,0,0 0,1.4a0.7,0.7 0,0,0 0,-1.4M7.5,10.75a0.75,0.75 0,0,0 0,1.5a0.75,0.75 0,0,0 0,-1.5M9.5,10.69a0.81,0.81 0,0,0 0,1.62a0.81,0.81 0,0,0 0,-1.62M11.5,10.64a0.86,0.86 0,0,0 0,1.72a0.86,0.86 0,0,0 0,-1.72M14.5,10.67a0.83,0.83 0,0,0 0,1.66a0.83,0.83 0,0,0 0,-1.66M15.5,10.69a0.81,0.81 0,0,0 0,1.62a0.81,0.81 0,0,0 0,-1.62M16.5,10.72a0.78,0.78 0,0,0 0,1.56a0.78,0.78 0,0,0 0,-1.56M24.5,10.95a0.55,0.55 0,0,0 0,1.1a0.55,0.55 0,0,0 0,-1.1M25.5,10.97a0.53,0.53 0,0,0 0,1.06a0.53,0.53 0,0,0 0,-1.06M26.5,11a0.5,0.5 0,0,0 0,1a0.5,0.5 0,0,0 0,-1M29.5,11.09a0.41,0.41 0,0,0 0,0.82a0.41,0.41 0,0,0 0,-0.82M-3.5,12.06a0.44,0.44 0,0,0 0,0.88a0.44,0.44 0,0,0 0,-0.88M-1.5,12a0.5,0.5 0,0,0 0,1a0.5,0.5 0,0,0 0,-1M-0.5,11.97a0.53,0.53 0,0,0 0,1.06a0.53,0.53 0,0,0 0,-1.06M2.5,11.89a0.61,0.61 0,0,0 0,1.22a0.61,0.61 0,0,0 0,-1.22M5.5,11.8a0.7,0.7 0,0,0 0,1.4a0.7,0.7 0,0,0 0,-1.4M6.5,11.77a0.73,0.73 0,0,0 0,1.46a0.73,0.73 0,0,0 0,-1.46M7.5,11.75a0.75,0.75 0,0,0 0,1.5a0.75,0.75 0,0,0 0,-1.5M10.5,11.66a0.84,0.84 0,0,0 0,1.68a0.84,0.84 0,0,0 0,-1.68M11.5,11.63a0.87,0.87 0,0,0 0,1.74a0.87,0.87 0,0,0 0,-1.74M12.5,11.6a0.9,0.9 0,0,0 0,1.8a0.9,0.9 0,0,0 0,-1.8M13.5,11.63a0.87,0.87 0,0,0 0,1.74a0.87,0.87 0,0,0 0,-1.74M14.5,11.66a0.84,0.84 0,0,0 0,1.68a0.84,0.84 0,0,0 0,-1.68M15.5,11.69a0.81,0.81 0,0,0 0,1.62a0.81,0.81 0,0,0 0,-1.62M17.5,11.75a0.75,0.75 0,0,0 0,1.5a0.75,0.75 0,0,0 0,-1.5M18.5,11.77a0.73,0.73 0,0,0 0,1.46a0.73,0.73 0,0,0 0,-1.46M19.5,11.8a0.7,0.7 0,0,0 0,1.4a0.7,0.7 0,0,0 0,-1.4M20.5,11.83a0.67,0.67 0,0,0 0,1.34a0.67,0.67 0,0,0 0,-1.34M22.5,11.89a0.61,0.61 0,0,0 0,1.22a0.61,0.61 0,0,0 0,-1.22M23.5,11.92a0.58,0.58 0,0,0 0,1.16a0.58,0.58 0,0,0 0,-1.16M24.5,11.94a0.56,0.56 0,0,0 0,1.12a0.56,0.56 0,0,0 0,-1.12M26.5,12a0.5,0.5 0,0,0 0,1a0.5,0.5 0,0,0 0,-1M28.5,12.06a0.44,0.44 0,0,0 0,0.88a0.44,0.44 0,0,0 0,-0.88M29.5,12.09a0.41,0.41 0,0,0 0,0.82a0.41,0.41 0,0,0 0,-0.82M-3.5,13.06a0.44,0.44 0,0,0 0,0.88a0.44,0.44 0,0,0 0,-0.88M-1.5,13a0.5,0.5 0,0,0 0,1a0.5,0.5 0,0,0 0,-1M-0.5,12.97a0.53,0.53 0,0,0 0,1.06a0.53,0.53 0,0,0 0,-1.06M0.5,12.95a0.55,0.55 0,0,0 0,1.1a0.55,0.55 0,0,0 0,-1.1M2.5,12.89a0.61,0.61 0,0,0 0,1.22a0.61,0.61 0,0,0 0,-1.22M4.5,12.83a0.67,0.67 0,0,0 0,1.34a0.67,0.67 0,0,0 0,-1.34M5.5,12.8a0.7,0.7 0,0,0 0,1.4a0.7,0.7 0,0,0 0,-1.4M9.5,12.69a0.81,0.81 0,0,0 0,1.62a0.81,0.81 0,0,0 0,-1.62M12.5,12.63a0.87,0.87 0,0,0 0,1.74a0.87,0.87 0,0,0 0,-1.74M13.5,12.64a0.86,0.86 0,0,0 0,1.72a0.86,0.86 0,0,0 0,-1.72M14.5,12.67a0.83,0.83 0,0,0 0,1.66a0.83,0.83 0,0,0 0,-1.66M16.5,12.72a0.78,0.78 0,0,0 0,1.56a0.78,0.78 0,0,0 0,-1.56M19.5,12.8a0.7,0.7 0,0,0 0,1.4a0.7,0.7 0,0,0 0,-1.4M21.5,12.86a0.64,0.64 0,0,0 0,1.28a0.64,0.64 0,0,0 0,-1.28M23.5,12.92a0.58,0.58 0,0,0 0,1.16a0.58,0.58 0,0,0 0,-1.16M25.5,12.97a0.53,0.53 0,0,0 0,1.06a0.53,0.53 0,0,0 0,-1.06M26.5,13a0.5,0.5 0,0,0 0,1a0.5,0.5 0,0,0 0,-1M28.5,13.06a0.44,0.44 0,0,0 0,0.88a0.44,0.44 0,0,0 0,-0.88M-2.5,14.03a0.47,0.47 0,0,0 0,0.94a0.47,0.47 0,0,0 0,-0.94M-1.5,14a0.5,0.5 0,0,0 0,1a0.5,0.5 0,0,0 0,-1M0.5,13.95a0.55,0.55 0,0,0 0,1.1a0.55,0.55 0,0,0 0,-1.1M2.5,13.89a0.61,0.61 0,0,0 0,1.22a0.61,0.61 0,0,0 0,-1.22M3.5,13.87a0.63,0.63 0,0,0 0,1.26a0.63,0.63 0,0,0 0,-1.26M6.5,13.78a0.72,0.72 0,0,0 0,1.44a0.72,0.72 0,0,0 0,-1.44M9.5,13.71a0.79,0.79 0,0,0 0,1.58a0.79,0.79 0,0,0 0,-1.58M13.5,13.67a0.83,0.83 0,0,0 0,1.66a0.83,0.83 0,0,0 0,-1.66M15.5,13.71a0.79,0.79 0,0,0 0,1.58a0.79,0.79 0,0,0 0,-1.58M16.5,13.73a0.77,0.77 0,0,0 0,1.54a0.77,0.77 0,0,0 0,-1.54M17.5,13.76a0.74,0.74 0,0,0 0,1.48a0.74,0.74 0,0,0 0,-1.48M18.5,13.78a0.72,0.72 0,0,0 0,1.44a0.72,0.72 0,0,0 0,-1.44M19.5,13.81a0.69,0.69 0,0,0 0,1.38a0.69,0.69 0,0,0 0,-1.38M20.5,13.84a0.66,0.66 0,0,0 0,1.32a0.66,0.66 0,0,0 0,-1.32M21.5,13.87a0.63,0.63 0,0,0 0,1.26a0.63,0.63 0,0,0 0,-1.26M23.5,13.92a0.58,0.58 0,0,0 0,1.16a0.58,0.58 0,0,0 0,-1.16M24.5,13.95a0.55,0.55 0,0,0 0,1.1a0.55,0.55 0,0,0 0,-1.1M27.5,14.03a0.47,0.47 0,0,0 0,0.94a0.47,0.47 0,0,0 0,-0.94M29.5,14.09a0.41,0.41 0,0,0 0,0.82a0.41,0.41 0,0,0 0,-0.82M-3.5,15.07a0.43,0.43 0,0,0 0,0.86a0.43,0.43 0,0,0 0,-0.86M-2.5,15.04a0.46,0.46 0,0,0 0,0.92a0.46,0.46 0,0,0 0,-0.92M0.5,14.95a0.55,0.55 0,0,0 0,1.1a0.55,0.55 0,0,0 0,-1.1M4.5,14.85a0.65,0.65 0,0,0 0,1.3a0.65,0.65 0,0,0 0,-1.3M10.5,14.71a0.79,0.79 0,0,0 0,1.58a0.79,0.79 0,0,0 0,-1.58M11.5,14.69a0.81,0.81 0,0,0 0,1.62a0.81,0.81 0,0,0 0,-1.62M15.5,14.72a0.78,0.78 0,0,0 0,1.56a0.78,0.78 0,0,0 0,-1.56M16.5,14.75a0.75,0.75 0,0,0 0,1.5a0.75,0.75 0,0,0 0,-1.5M19.5,14.82a0.68,0.68 0,0,0 0,1.36a0.68,0.68 0,0,0 0,-1.36M20.5,14.85a0.65,0.65 0,0,0 0,1.3a0.65,0.65 0,0,0 0,-1.3M24.5,14.95a0.55,0.55 0,0,0 0,1.1a0.55,0.55 0,0,0 0,-1.1M27.5,15.04a0.46,0.46 0,0,0 0,0.92a0.46,0.46 0,0,0 0,-0.92M29.5,15.09a0.41,0.41 0,0,0 0,0.82a0.41,0.41 0,0,0 0,-0.82M-0.5,15.99a0.51,0.51 0,0,0 0,1.02a0.51,0.51 0,0,0 0,-1.02M0.5,15.96a0.54,0.54 0,0,0 0,1.08a0.54,0.54 0,0,0 0,-1.08M2.5,15.91a0.59,0.59 0,0,0 0,1.18a0.59,0.59 0,0,0 0,-1.18M3.5,15.88a0.62,0.62 0,0,0 0,1.24a0.62,0.62 0,0,0 0,-1.24M4.5,15.86a0.64,0.64 0,0,0 0,1.28a0.64,0.64 0,0,0 0,-1.28M6.5,15.81a0.69,0.69 0,0,0 0,1.38a0.69,0.69 0,0,0 0,-1.38M7.5,15.79a0.71,0.71 0,0,0 0,1.42a0.71,0.71 0,0,0 0,-1.42M8.5,15.76a0.74,0.74 0,0,0 0,1.48a0.74,0.74 0,0,0 0,-1.48M10.5,15.73a0.77,0.77 0,0,0 0,1.54a0.77,0.77 0,0,0 0,-1.54M12.5,15.72a0.78,0.78 0,0,0 0,1.56a0.78,0.78 0,0,0 0,-1.56M13.5,15.72a0.78,0.78 0,0,0 0,1.56a0.78,0.78 0,0,0 0,-1.56M14.5,15.73a0.77,0.77 0,0,0 0,1.54a0.77,0.77 0,0,0 0,-1.54M16.5,15.76a0.74,0.74 0,0,0 0,1.48a0.74,0.74 0,0,0 0,-1.48M17.5,15.79a0.71,0.71 0,0,0 0,1.42a0.71,0.71 0,0,0 0,-1.42M18.5,15.81a0.69,0.69 0,0,0 0,1.38a0.69,0.69 0,0,0 0,-1.38M19.5,15.83a0.67,0.67 0,0,0 0,1.34a0.67,0.67 0,0,0 0,-1.34M20.5,15.86a0.64,0.64 0,0,0 0,1.28a0.64,0.64 0,0,0 0,-1.28M22.5,15.91a0.59,0.59 0,0,0 0,1.18a0.59,0.59 0,0,0 0,-1.18M25.5,15.99a0.51,0.51 0,0,0 0,1.02a0.51,0.51 0,0,0 0,-1.02M28.5,16.07a0.43,0.43 0,0,0 0,0.86a0.43,0.43 0,0,0 0,-0.86M-3.5,17.08a0.42,0.42 0,0,0 0,0.84a0.42,0.42 0,0,0 0,-0.84M-2.5,17.05a0.45,0.45 0,0,0 0,0.9a0.45,0.45 0,0,0 0,-0.9M8.5,16.79a0.71,0.71 0,0,0 0,1.42a0.71,0.71 0,0,0 0,-1.42M9.5,16.77a0.73,0.73 0,0,0 0,1.46a0.73,0.73 0,0,0 0,-1.46M10.5,16.76a0.74,0.74 0,0,0 0,1.48a0.74,0.74 0,0,0 0,-1.48M11.5,16.75a0.75,0.75 0,0,0 0,1.5a0.75,0.75 0,0,0 0,-1.5M13.5,16.75a0.75,0.75 0,0,0 0,1.5a0.75,0.75 0,0,0 0,-1.5M15.5,16.77a0.73,0.73 0,0,0 0,1.46a0.73,0.73 0,0,0 0,-1.46M16.5,16.79a0.71,0.71 0,0,0 0,1.42a0.71,0.71 0,0,0 0,-1.42M20.5,16.87a0.63,0.63 0,0,0 0,1.26a0.63,0.63 0,0,0 0,-1.26M21.5,16.9a0.6,0.6 0,0,0 0,1.2a0.6,0.6 0,0,0 0,-1.2M25.5,17a0.5,0.5 0,0,0 0,1a0.5,0.5 0,0,0 0,-1M-1.5,18.04a0.46,0.46 0,0,0 0,0.92a0.46,0.46 0,0,0 0,-0.92M0.5,17.98a0.52,0.52 0,0,0 0,1.04a0.52,0.52 0,0,0 0,-1.04M1.5,17.96a0.54,0.54 0,0,0 0,1.08a0.54,0.54 0,0,0 0,-1.08M2.5,17.93a0.57,0.57 0,0,0 0,1.14a0.57,0.57 0,0,0 0,-1.14M3.5,17.91a0.59,0.59 0,0,0 0,1.18a0.59,0.59 0,0,0 0,-1.18M4.5,17.89a0.61,0.61 0,0,0 0,1.22a0.61,0.61 0,0,0 0,-1.22M5.5,17.87a0.63,0.63 0,0,0 0,1.26a0.63,0.63 0,0,0 0,-1.26M6.5,17.84a0.66,0.66 0,0,0 0,1.32a0.66,0.66 0,0,0 0,-1.32M9.5,17.79a0.71,0.71 0,0,0 0,1.42a0.71,0.71 0,0,0 0,-1.42M12.5,17.77a0.73,0.73 0,0,0 0,1.46a0.73,0.73 0,0,0 0,-1.46M16.5,17.81a0.69,0.69 0,0,0 0,1.38a0.69,0.69 0,0,0 0,-1.38M18.5,17.84a0.66,0.66 0,0,0 0,1.32a0.66,0.66 0,0,0 0,-1.32M20.5,17.89a0.61,0.61 0,0,0 0,1.22a0.61,0.61 0,0,0 0,-1.22M22.5,17.93a0.57,0.57 0,0,0 0,1.14a0.57,0.57 0,0,0 0,-1.14M23.5,17.96a0.54,0.54 0,0,0 0,1.08a0.54,0.54 0,0,0 0,-1.08M24.5,17.98a0.52,0.52 0,0,0 0,1.04a0.52,0.52 0,0,0 0,-1.04M26.5,18.04a0.46,0.46 0,0,0 0,0.92a0.46,0.46 0,0,0 0,-0.92M28.5,18.09a0.41,0.41 0,0,0 0,0.82a0.41,0.41 0,0,0 0,-0.82M0.5,19a0.5,0.5 0,0,0 0,1a0.5,0.5 0,0,0 0,-1M6.5,18.87a0.63,0.63 0,0,0 0,1.26a0.63,0.63 0,0,0 0,-1.26M8.5,18.83a0.67,0.67 0,0,0 0,1.34a0.67,0.67 0,0,0 0,-1.34M10.5,18.81a0.69,0.69 0,0,0 0,1.38a0.69,0.69 0,0,0 0,-1.38M11.5,18.8a0.7,0.7 0,0,0 0,1.4a0.7,0.7 0,0,0 0,-1.4M16.5,18.83a0.67,0.67 0,0,0 0,1.34a0.67,0.67 0,0,0 0,-1.34M20.5,18.91a0.59,0.59 0,0,0 0,1.18a0.59,0.59 0,0,0 0,-1.18M21.5,18.93a0.57,0.57 0,0,0 0,1.14a0.57,0.57 0,0,0 0,-1.14M25.5,19.02a0.48,0.48 0,0,0 0,0.96a0.48,0.48 0,0,0 0,-0.96M-2.5,20.09a0.41,0.41 0,0,0 0,0.82a0.41,0.41 0,0,0 0,-0.82M0.5,20.01a0.49,0.49 0,0,0 0,0.98a0.49,0.49 0,0,0 0,-0.98M2.5,19.97a0.53,0.53 0,0,0 0,1.06a0.53,0.53 0,0,0 0,-1.06M3.5,19.95a0.55,0.55 0,0,0 0,1.1a0.55,0.55 0,0,0 0,-1.1M4.5,19.92a0.58,0.58 0,0,0 0,1.16a0.58,0.58 0,0,0 0,-1.16M6.5,19.89a0.61,0.61 0,0,0 0,1.22a0.61,0.61 0,0,0 0,-1.22M8.5,19.86a0.64,0.64 0,0,0 0,1.28a0.64,0.64 0,0,0 0,-1.28M9.5,19.85a0.65,0.65 0,0,0 0,1.3a0.65,0.65 0,0,0 0,-1.3M10.5,19.84a0.66,0.66 0,0,0 0,1.32a0.66,0.66 0,0,0 0,-1.32M11.5,19.83a0.67,0.67 0,0,0 0,1.34a0.67,0.67 0,0,0 0,-1.34M12.5,19.83a0.67,0.67 0,0,0 0,1.34a0.67,0.67 0,0,0 0,-1.34M13.5,19.83a0.67,0.67 0,0,0 0,1.34a0.67,0.67 0,0,0 0,-1.34M14.5,19.84a0.66,0.66 0,0,0 0,1.32a0.66,0.66 0,0,0 0,-1.32M15.5,19.85a0.65,0.65 0,0,0 0,1.3a0.65,0.65 0,0,0 0,-1.3M16.5,19.86a0.64,0.64 0,0,0 0,1.28a0.64,0.64 0,0,0 0,-1.28M17.5,19.87a0.63,0.63 0,0,0 0,1.26a0.63,0.63 0,0,0 0,-1.26M18.5,19.89a0.61,0.61 0,0,0 0,1.22a0.61,0.61 0,0,0 0,-1.22M19.5,19.91a0.59,0.59 0,0,0 0,1.18a0.59,0.59 0,0,0 0,-1.18M20.5,19.92a0.58,0.58 0,0,0 0,1.16a0.58,0.58 0,0,0 0,-1.16M22.5,19.97a0.53,0.53 0,0,0 0,1.06a0.53,0.53 0,0,0 0,-1.06M26.5,20.06a0.44,0.44 0,0,0 0,0.88a0.44,0.44 0,0,0 0,-0.88M-1.5,21.08a0.42,0.42 0,0,0 0,0.84a0.42,0.42 0,0,0 0,-0.84M0.5,21.03a0.47,0.47 0,0,0 0,0.94a0.47,0.47 0,0,0 0,-0.94M2.5,20.99a0.51,0.51 0,0,0 0,1.02a0.51,0.51 0,0,0 0,-1.02M3.5,20.96a0.54,0.54 0,0,0 0,1.08a0.54,0.54 0,0,0 0,-1.08M4.5,20.95a0.55,0.55 0,0,0 0,1.1a0.55,0.55 0,0,0 0,-1.1M6.5,20.91a0.59,0.59 0,0,0 0,1.18a0.59,0.59 0,0,0 0,-1.18M8.5,20.88a0.62,0.62 0,0,0 0,1.24a0.62,0.62 0,0,0 0,-1.24M10.5,20.87a0.63,0.63 0,0,0 0,1.26a0.63,0.63 0,0,0 0,-1.26M11.5,20.86a0.64,0.64 0,0,0 0,1.28a0.64,0.64 0,0,0 0,-1.28M17.5,20.9a0.6,0.6 0,0,0 0,1.2a0.6,0.6 0,0,0 0,-1.2M18.5,20.91a0.59,0.59 0,0,0 0,1.18a0.59,0.59 0,0,0 0,-1.18M20.5,20.95a0.55,0.55 0,0,0 0,1.1a0.55,0.55 0,0,0 0,-1.1M21.5,20.96a0.54,0.54 0,0,0 0,1.08a0.54,0.54 0,0,0 0,-1.08M22.5,20.99a0.51,0.51 0,0,0 0,1.02a0.51,0.51 0,0,0 0,-1.02M23.5,21.01a0.49,0.49 0,0,0 0,0.98a0.49,0.49 0,0,0 0,-0.98M24.5,21.03a0.47,0.47 0,0,0 0,0.94a0.47,0.47 0,0,0 0,-0.94M26.5,21.08a0.42,0.42 0,0,0 0,0.84a0.42,0.42 0,0,0 0,-0.84M27.5,21.1a0.4,0.4 0,0,0 0,0.8a0.4,0.4 0,0,0 0,-0.8M-1.5,22.09a0.41,0.41 0,0,0 0,0.82a0.41,0.41 0,0,0 0,-0.82M0.5,22.05a0.45,0.45 0,0,0 0,0.9a0.45,0.45 0,0,0 0,-0.9M2.5,22a0.5,0.5 0,0,0 0,1a0.5,0.5 0,0,0 0,-1M3.5,21.99a0.51,0.51 0,0,0 0,1.02a0.51,0.51 0,0,0 0,-1.02M4.5,21.97a0.53,0.53 0,0,0 0,1.06a0.53,0.53 0,0,0 0,-1.06M6.5,21.93a0.57,0.57 0,0,0 0,1.14a0.57,0.57 0,0,0 0,-1.14M8.5,21.91a0.59,0.59 0,0,0 0,1.18a0.59,0.59 0,0,0 0,-1.18M9.5,21.9a0.6,0.6 0,0,0 0,1.2a0.6,0.6 0,0,0 0,-1.2M12.5,21.89a0.61,0.61 0,0,0 0,1.22a0.61,0.61 0,0,0 0,-1.22M14.5,21.89a0.61,0.61 0,0,0 0,1.22a0.61,0.61 0,0,0 0,-1.22M15.5,21.9a0.6,0.6 0,0,0 0,1.2a0.6,0.6 0,0,0 0,-1.2M17.5,21.92a0.58,0.58 0,0,0 0,1.16a0.58,0.58 0,0,0 0,-1.16M21.5,21.99a0.51,0.51 0,0,0 0,1.02a0.51,0.51 0,0,0 0,-1.02M22.5,22a0.5,0.5 0,0,0 0,1a0.5,0.5 0,0,0 0,-1M24.5,22.05a0.45,0.45 0,0,0 0,0.9a0.45,0.45 0,0,0 0,-0.9M0.5,23.07a0.43,0.43 0,0,0 0,0.86a0.43,0.43 0,0,0 0,-0.86M6.5,22.96a0.54,0.54 0,0,0 0,1.08a0.54,0.54 0,0,0 0,-1.08M9.5,22.93a0.57,0.57 0,0,0 0,1.14a0.57,0.57 0,0,0 0,-1.14M10.5,22.92a0.58,0.58 0,0,0 0,1.16a0.58,0.58 0,0,0 0,-1.16M11.5,22.92a0.58,0.58 0,0,0 0,1.16a0.58,0.58 0,0,0 0,-1.16M14.5,22.92a0.58,0.58 0,0,0 0,1.16a0.58,0.58 0,0,0 0,-1.16M15.5,22.93a0.57,0.57 0,0,0 0,1.14a0.57,0.57 0,0,0 0,-1.14M16.5,22.94a0.56,0.56 0,0,0 0,1.12a0.56,0.56 0,0,0 0,-1.12M18.5,22.96a0.54,0.54 0,0,0 0,1.08a0.54,0.54 0,0,0 0,-1.08M19.5,22.97a0.53,0.53 0,0,0 0,1.06a0.53,0.53 0,0,0 0,-1.06M20.5,22.99a0.51,0.51 0,0,0 0,1.02a0.51,0.51 0,0,0 0,-1.02M21.5,23.01a0.49,0.49 0,0,0 0,0.98a0.49,0.49 0,0,0 0,-0.98M24.5,23.07a0.43,0.43 0,0,0 0,0.86a0.43,0.43 0,0,0 0,-0.86M25.5,23.09a0.41,0.41 0,0,0 0,0.82a0.41,0.41 0,0,0 0,-0.82M0.5,24.08a0.42,0.42 0,0,0 0,0.84a0.42,0.42 0,0,0 0,-0.84M1.5,24.07a0.43,0.43 0,0,0 0,0.86a0.43,0.43 0,0,0 0,-0.86M2.5,24.05a0.45,0.45 0,0,0 0,0.9a0.45,0.45 0,0,0 0,-0.9M3.5,24.03a0.47,0.47 0,0,0 0,0.94a0.47,0.47 0,0,0 0,-0.94M4.5,24.01a0.49,0.49 0,0,0 0,0.98a0.49,0.49 0,0,0 0,-0.98M5.5,24a0.5,0.5 0,0,0 0,1a0.5,0.5 0,0,0 0,-1M6.5,23.98a0.52,0.52 0,0,0 0,1.04a0.52,0.52 0,0,0 0,-1.04M8.5,23.96a0.54,0.54 0,0,0 0,1.08a0.54,0.54 0,0,0 0,-1.08M10.5,23.95a0.55,0.55 0,0,0 0,1.1a0.55,0.55 0,0,0 0,-1.1M11.5,23.95a0.55,0.55 0,0,0 0,1.1a0.55,0.55 0,0,0 0,-1.1M12.5,23.94a0.56,0.56 0,0,0 0,1.12a0.56,0.56 0,0,0 0,-1.12M13.5,23.95a0.55,0.55 0,0,0 0,1.1a0.55,0.55 0,0,0 0,-1.1M19.5,24a0.5,0.5 0,0,0 0,1a0.5,0.5 0,0,0 0,-1M20.5,24.01a0.49,0.49 0,0,0 0,0.98a0.49,0.49 0,0,0 0,-0.98M21.5,24.03a0.47,0.47 0,0,0 0,0.94a0.47,0.47 0,0,0 0,-0.94M22.5,24.05a0.45,0.45 0,0,0 0,0.9a0.45,0.45 0,0,0 0,-0.9M23.5,24.07a0.43,0.43 0,0,0 0,0.86a0.43,0.43 0,0,0 0,-0.86M24.5,24.08a0.42,0.42 0,0,0 0,0.84a0.42,0.42 0,0,0 0,-0.84M8.5,24.99a0.51,0.51 0,0,0 0,1.02a0.51,0.51 0,0,0 0,-1.02M9.5,24.98a0.52,0.52 0,0,0 0,1.04a0.52,0.52 0,0,0 0,-1.04M10.5,24.98a0.52,0.52 0,0,0 0,1.04a0.52,0.52 0,0,0 0,-1.04M13.5,24.97a0.53,0.53 0,0,0 0,1.06a0.53,0.53 0,0,0 0,-1.06M14.5,24.98a0.52,0.52 0,0,0 0,1.04a0.52,0.52 0,0,0 0,-1.04M15.5,24.98a0.52,0.52 0,0,0 0,1.04a0.52,0.52 0,0,0 0,-1.04M16.5,24.99a0.51,0.51 0,0,0 0,1.02a0.51,0.51 0,0,0 0,-1.02M3.5,26.08a0.42,0.42 0,0,0 0,0.84a0.42,0.42 0,0,0 0,-0.84M6.5,26.04a0.46,0.46 0,0,0 0,0.92a0.46,0.46 0,0,0 0,-0.92M7.5,26.03a0.47,0.47 0,0,0 0,0.94a0.47,0.47 0,0,0 0,-0.94M8.5,26.02a0.48,0.48 0,0,0 0,0.96a0.48,0.48 0,0,0 0,-0.96M13.5,26a0.5,0.5 0,0,0 0,1a0.5,0.5 0,0,0 0,-1M17.5,26.03a0.47,0.47 0,0,0 0,0.94a0.47,0.47 0,0,0 0,-0.94M19.5,26.05a0.45,0.45 0,0,0 0,0.9a0.45,0.45 0,0,0 0,-0.9M20.5,26.06a0.44,0.44 0,0,0 0,0.88a0.44,0.44 0,0,0 0,-0.88M22.5,26.09a0.41,0.41 0,0,0 0,0.82a0.41,0.41 0,0,0 0,-0.82M3.5,27.1a0.4,0.4 0,0,0 0,0.8a0.4,0.4 0,0,0 0,-0.8M4.5,27.09a0.41,0.41 0,0,0 0,0.82a0.41,0.41 0,0,0 0,-0.82M6.5,27.06a0.44,0.44 0,0,0 0,0.88a0.44,0.44 0,0,0 0,-0.88M7.5,27.05a0.45,0.45 0,0,0 0,0.9a0.45,0.45 0,0,0 0,-0.9M8.5,27.04a0.46,0.46 0,0,0 0,0.92a0.46,0.46 0,0,0 0,-0.92M10.5,27.03a0.47,0.47 0,0,0 0,0.94a0.47,0.47 0,0,0 0,-0.94M13.5,27.03a0.47,0.47 0,0,0 0,0.94a0.47,0.47 0,0,0 0,-0.94M14.5,27.03a0.47,0.47 0,0,0 0,0.94a0.47,0.47 0,0,0 0,-0.94M16.5,27.04a0.46,0.46 0,0,0 0,0.92a0.46,0.46 0,0,0 0,-0.92M18.5,27.06a0.44,0.44 0,0,0 0,0.88a0.44,0.44 0,0,0 0,-0.88M19.5,27.07a0.43,0.43 0,0,0 0,0.86a0.43,0.43 0,0,0 0,-0.86M20.5,27.09a0.41,0.41 0,0,0 0,0.82a0.41,0.41 0,0,0 0,-0.82M6.5,28.09a0.41,0.41 0,0,0 0,0.82a0.41,0.41 0,0,0 0,-0.82M7.5,28.08a0.42,0.42 0,0,0 0,0.84a0.42,0.42 0,0,0 0,-0.84M8.5,28.07a0.43,0.43 0,0,0 0,0.86a0.43,0.43 0,0,0 0,-0.86M11.5,28.06a0.44,0.44 0,0,0 0,0.88a0.44,0.44 0,0,0 0,-0.88M14.5,28.06a0.44,0.44 0,0,0 0,0.88a0.44,0.44 0,0,0 0,-0.88M15.5,28.07a0.43,0.43 0,0,0 0,0.86a0.43,0.43 0,0,0 0,-0.86M18.5,28.09a0.41,0.41 0,0,0 0,0.82a0.41,0.41 0,0,0 0,-0.82M19.5,28.1a0.4,0.4 0,0,0 0,0.8a0.4,0.4 0,0,0 0,-0.8M8.5,29.1a0.4,0.4 0,0,0 0,0.8a0.4,0.4 0,0,0 0,-0.8M9.5,29.09a0.41,0.41 0,0,0 0,0.82a0.41,0.41 0,0,0 0,-0.82M14.5,29.09a0.41,0.41 0,0,0 0,0.82a0.41,0.41 0,0,0 0,-0.82M15.5,29.09a0.41,0.41 0,0,0 0,0.82a0.41,0.41 0,0,0 0,-0.82M16.5,29.1a0.4,0.4 0,0,0 0,0.8a0.4,0.4 0,0,0 0,-0.8"></path></svg>