<svg xmlns="http://www.w3.org/2000/svg" viewBox="-8 -8 116 116"><defs><g id="dots"><circle cx="52.30" cy="50.00" r="1"></circle><circle cx="51.33" cy="51.88" r="1"></circle><circle cx="49.23" cy="52.17" r="1"></circle><circle cx="47.78" cy="50.62" r="1"></circle><circle cx="48.22" cy="48.55" r="1"></circle><circle cx="51.97" cy="48.81" r="1"></circle><circle cx="54.50" cy="50.00" r="1"></circle><circle cx="53.97" cy="52.11" r="1"></circle><circle cx="52.51" cy="53.73" r="1"></circle><circle cx="50.47" cy="54.48" r="1"></circle><circle cx="48.31" cy="54.17" r="1"></circle><circle cx="45.60" cy="50.93" r="1"></circle><circle cx="45.68" cy="48.75" r="1"></circle><circle cx="46.77" cy="46.87" r="1"></circle><circle cx="54.12" cy="48.18" r="1"></circle><circle cx="56.70" cy="50.00" r="1"></circle><circle cx="56.34" cy="52.16" r="1"></circle><circle cx="55.31" cy="54.09" r="1"></circle><circle cx="53.70" cy="55.58" r="1"></circle><circle cx="43.42" cy="51.24" r="1"></circle><circle cx="43.37" cy="49.05" r="1"></circle><circle cx="44.03" cy="46.96" r="1"></circle><circle cx="45.33" cy="45.20" r="1"></circle><circle cx="56.24" cy="47.56" r="1"></circle><circle cx="58.90" cy="50.00" r="1"></circle><circle cx="58.63" cy="52.18" r="1"></circle><circle cx="57.83" cy="54.22" r="1"></circle><circle cx="54.89" cy="57.43" r="1"></circle><circle cx="52.92" cy="58.41" r="1"></circle><circle cx="41.24" cy="51.55" r="1"></circle><circle cx="41.12" cy="49.36" r="1"></circle><circle cx="43.89" cy="43.53" r="1"></circle><circle cx="57.36" cy="44.99" r="1"></circle><circle cx="58.36" cy="46.94" r="1"></circle><circle cx="61.10" cy="50.00" r="1"></circle><circle cx="47.65" cy="60.85" r="1"></circle><circle cx="45.56" cy="60.17" r="1"></circle><circle cx="39.64" cy="53.98" r="1"></circle><circle cx="39.19" cy="47.49" r="1"></circle><circle cx="39.89" cy="45.41" r="1"></circle><circle cx="40.99" cy="43.51" r="1"></circle><circle cx="42.45" cy="41.87" r="1"></circle><circle cx="48.30" cy="39.03" r="1"></circle><circle cx="50.49" cy="38.91" r="1"></circle><circle cx="56.62" cy="41.09" r="1"></circle><circle cx="58.24" cy="42.57" r="1"></circle><circle cx="59.55" cy="44.34" r="1"></circle><circle cx="60.47" cy="46.33" r="1"></circle><circle cx="60.99" cy="48.46" r="1"></circle><circle cx="63.30" cy="50.00" r="1"></circle><circle cx="61.70" cy="56.33" r="1"></circle><circle cx="60.49" cy="58.17" r="1"></circle><circle cx="46.73" cy="62.89" r="1"></circle><circle cx="44.65" cy="62.18" r="1"></circle><circle cx="42.72" cy="61.13" r="1"></circle><circle cx="39.50" cy="58.16" r="1"></circle><circle cx="38.30" cy="56.32" r="1"></circle><circle cx="37.42" cy="54.30" r="1"></circle><circle cx="36.88" cy="52.17" r="1"></circle><circle cx="36.88" cy="47.79" r="1"></circle><circle cx="37.43" cy="45.66" r="1"></circle><circle cx="38.31" cy="43.65" r="1"></circle><circle cx="39.52" cy="41.81" r="1"></circle><circle cx="41.01" cy="40.20" r="1"></circle><circle cx="48.93" cy="36.74" r="1"></circle><circle cx="51.12" cy="36.75" r="1"></circle><circle cx="59.03" cy="40.23" r="1"></circle><circle cx="60.51" cy="41.85" r="1"></circle><circle cx="61.71" cy="43.70" r="1"></circle><circle cx="62.59" cy="45.71" r="1"></circle><circle cx="63.12" cy="47.84" r="1"></circle><circle cx="65.34" cy="52.19" r="1"></circle><circle cx="64.88" cy="54.34" r="1"></circle><circle cx="64.12" cy="56.40" r="1"></circle><circle cx="63.07" cy="58.33" r="1"></circle><circle cx="61.76" cy="60.10" r="1"></circle><circle cx="60.21" cy="61.66" r="1"></circle><circle cx="56.54" cy="64.05" r="1"></circle><circle cx="54.48" cy="64.84" r="1"></circle><circle cx="52.34" cy="65.32" r="1"></circle><circle cx="50.15" cy="65.50" r="1"></circle><circle cx="43.73" cy="64.18" r="1"></circle><circle cx="41.79" cy="63.15" r="1"></circle><circle cx="40.01" cy="61.85" r="1"></circle><circle cx="37.09" cy="58.58" r="1"></circle><circle cx="36.01" cy="56.67" r="1"></circle><circle cx="36.78" cy="41.92" r="1"></circle><circle cx="38.05" cy="40.13" r="1"></circle><circle cx="45.24" cy="35.25" r="1"></circle><circle cx="47.37" cy="34.72" r="1"></circle><circle cx="53.92" cy="35.00" r="1"></circle><circle cx="56.00" cy="35.71" r="1"></circle><circle cx="62.74" cy="41.17" r="1"></circle><circle cx="63.86" cy="43.07" r="1"></circle><circle cx="64.70" cy="45.10" r="1"></circle><circle cx="65.25" cy="47.23" r="1"></circle><circle cx="67.56" cy="52.19" r="1"></circle><circle cx="67.16" cy="54.35" r="1"></circle><circle cx="66.48" cy="56.45" r="1"></circle><circle cx="65.56" cy="58.44" r="1"></circle><circle cx="64.39" cy="60.31" r="1"></circle><circle cx="63.00" cy="62.01" r="1"></circle><circle cx="61.41" cy="63.53" r="1"></circle><circle cx="59.65" cy="64.84" r="1"></circle><circle cx="57.73" cy="65.92" r="1"></circle><circle cx="55.70" cy="66.76" r="1"></circle><circle cx="53.58" cy="67.33" r="1"></circle><circle cx="51.40" cy="67.64" r="1"></circle><circle cx="49.20" cy="67.68" r="1"></circle><circle cx="42.82" cy="66.18" r="1"></circle><circle cx="40.87" cy="65.16" r="1"></circle><circle cx="41.73" cy="34.35" r="1"></circle><circle cx="43.73" cy="33.45" r="1"></circle><circle cx="45.83" cy="32.80" r="1"></circle><circle cx="48.00" cy="32.41" r="1"></circle><circle cx="52.38" cy="32.46" r="1"></circle><circle cx="54.54" cy="32.89" r="1"></circle><circle cx="56.63" cy="33.59" r="1"></circle><circle cx="58.61" cy="34.53" r="1"></circle><circle cx="64.94" cy="40.51" r="1"></circle><circle cx="66.00" cy="42.44" r="1"></circle><circle cx="66.82" cy="44.48" r="1"></circle><circle cx="67.37" cy="46.61" r="1"></circle><circle cx="69.90" cy="50.00" r="1"></circle><circle cx="68.82" cy="56.48" r="1"></circle><circle cx="67.99" cy="58.52" r="1"></circle><circle cx="66.94" cy="60.45" r="1"></circle><circle cx="65.68" cy="62.25" r="1"></circle><circle cx="64.23" cy="63.91" r="1"></circle><circle cx="58.93" cy="67.78" r="1"></circle><circle cx="54.81" cy="69.31" r="1"></circle><circle cx="52.65" cy="69.72" r="1"></circle><circle cx="46.08" cy="69.51" r="1"></circle><circle cx="43.96" cy="68.96" r="1"></circle><circle cx="41.90" cy="68.18" r="1"></circle><circle cx="30.12" cy="50.92" r="1"></circle><circle cx="30.14" cy="48.72" r="1"></circle><circle cx="30.40" cy="46.54" r="1"></circle><circle cx="30.91" cy="44.39" r="1"></circle><circle cx="33.77" cy="38.48" r="1"></circle><circle cx="35.14" cy="36.76" r="1"></circle><circle cx="40.26" cy="32.65" r="1"></circle><circle cx="42.24" cy="31.68" r="1"></circle><circle cx="59.25" cy="32.38" r="1"></circle><circle cx="69.82" cy="48.17" r="1"></circle><circle cx="72.10" cy="50.00" r="1"></circle><circle cx="71.12" cy="56.50" r="1"></circle><circle cx="70.37" cy="58.57" r="1"></circle><circle cx="66.95" cy="64.18" r="1"></circle><circle cx="65.45" cy="65.80" r="1"></circle><circle cx="62.02" cy="68.54" r="1"></circle><circle cx="60.12" cy="69.65" r="1"></circle><circle cx="53.89" cy="71.75" r="1"></circle><circle cx="51.71" cy="72.03" r="1"></circle><circle cx="49.51" cy="72.09" r="1"></circle><circle cx="47.32" cy="71.94" r="1"></circle><circle cx="45.15" cy="71.56" r="1"></circle><circle cx="43.04" cy="70.97" r="1"></circle><circle cx="40.99" cy="70.18" r="1"></circle><circle cx="39.02" cy="69.18" r="1"></circle><circle cx="35.45" cy="66.63" r="1"></circle><circle cx="33.87" cy="65.10" r="1"></circle><circle cx="27.93" cy="51.23" r="1"></circle><circle cx="27.92" cy="49.03" r="1"></circle><circle cx="28.13" cy="46.84" r="1"></circle><circle cx="28.55" cy="44.68" r="1"></circle><circle cx="31.06" cy="38.61" r="1"></circle><circle cx="32.29" cy="36.78" r="1"></circle><circle cx="38.80" cy="30.95" r="1"></circle><circle cx="40.75" cy="29.93" r="1"></circle><circle cx="42.79" cy="29.11" r="1"></circle><circle cx="49.26" cy="27.91" r="1"></circle><circle cx="51.46" cy="27.95" r="1"></circle><circle cx="68.13" cy="37.36" r="1"></circle><circle cx="69.29" cy="39.22" r="1"></circle><circle cx="74.30" cy="50.00" r="1"></circle><circle cx="73.41" cy="56.52" r="1"></circle><circle cx="72.72" cy="58.61" r="1"></circle><circle cx="69.58" cy="64.39" r="1"></circle><circle cx="68.20" cy="66.10" r="1"></circle><circle cx="66.67" cy="67.68" r="1"></circle><circle cx="65.00" cy="69.12" r="1"></circle><circle cx="63.21" cy="70.39" r="1"></circle><circle cx="61.32" cy="71.50" r="1"></circle><circle cx="50.77" cy="74.29" r="1"></circle><circle cx="48.57" cy="74.26" r="1"></circle><circle cx="38.11" cy="71.19" r="1"></circle><circle cx="36.24" cy="70.03" r="1"></circle><circle cx="34.48" cy="68.70" r="1"></circle><circle cx="32.86" cy="67.22" r="1"></circle><circle cx="31.37" cy="65.60" r="1"></circle><circle cx="27.05" cy="57.99" r="1"></circle><circle cx="25.75" cy="51.54" r="1"></circle><circle cx="25.71" cy="49.34" r="1"></circle><circle cx="26.78" cy="42.85" r="1"></circle><circle cx="27.52" cy="40.78" r="1"></circle><circle cx="28.44" cy="38.78" r="1"></circle><circle cx="29.55" cy="36.88" r="1"></circle><circle cx="33.82" cy="31.87" r="1"></circle><circle cx="35.52" cy="30.48" r="1"></circle><circle cx="37.34" cy="29.26" r="1"></circle><circle cx="39.27" cy="28.20" r="1"></circle><circle cx="41.29" cy="27.32" r="1"></circle><circle cx="43.37" cy="26.62" r="1"></circle><circle cx="49.89" cy="25.70" r="1"></circle><circle cx="56.41" cy="26.56" r="1"></circle><circle cx="58.50" cy="27.24" r="1"></circle><circle cx="64.30" cy="30.35" r="1"></circle><circle cx="66.02" cy="31.73" r="1"></circle><circle cx="70.33" cy="36.69" r="1"></circle><circle cx="71.45" cy="38.59" r="1"></circle><circle cx="72.40" cy="40.57" r="1"></circle><circle cx="73.16" cy="42.64" r="1"></circle><circle cx="76.50" cy="50.00" r="1"></circle><circle cx="76.41" cy="52.20" r="1"></circle><circle cx="76.14" cy="54.38" r="1"></circle><circle cx="75.68" cy="56.53" r="1"></circle><circle cx="75.05" cy="58.64" r="1"></circle><circle cx="72.15" cy="64.55" r="1"></circle><circle cx="70.87" cy="66.33" r="1"></circle><circle cx="67.88" cy="69.56" r="1"></circle><circle cx="66.20" cy="70.97" r="1"></circle><circle cx="64.40" cy="72.24" r="1"></circle><circle cx="47.63" cy="76.39" r="1"></circle><circle cx="45.45" cy="76.11" r="1"></circle><circle cx="39.15" cy="74.18" r="1"></circle><circle cx="37.19" cy="73.20" r="1"></circle><circle cx="33.53" cy="70.76" r="1"></circle><circle cx="30.32" cy="67.75" r="1"></circle><circle cx="28.92" cy="66.06" r="1"></circle><circle cx="27.66" cy="64.26" r="1"></circle><circle cx="24.84" cy="58.31" r="1"></circle><circle cx="24.23" cy="56.19" r="1"></circle><circle cx="23.81" cy="54.04" r="1"></circle><circle cx="23.56" cy="51.85" r="1"></circle><circle cx="23.50" cy="49.65" r="1"></circle><circle cx="23.62" cy="47.46" r="1"></circle><circle cx="23.92" cy="45.28" r="1"></circle><circle cx="24.41" cy="43.13" r="1"></circle><circle cx="25.06" cy="41.03" r="1"></circle><circle cx="32.38" cy="30.21" r="1"></circle><circle cx="34.08" cy="28.82" r="1"></circle><circle cx="35.89" cy="27.57" r="1"></circle><circle cx="41.86" cy="24.78" r="1"></circle><circle cx="43.97" cy="24.19" r="1"></circle><circle cx="57.04" cy="24.45" r="1"></circle><circle cx="59.13" cy="25.12" r="1"></circle><circle cx="64.98" cy="28.14" r="1"></circle><circle cx="66.74" cy="29.46" r="1"></circle><circle cx="75.27" cy="42.02" r="1"></circle><circle cx="76.46" cy="48.50" r="1"></circle><circle cx="78.70" cy="50.00" r="1"></circle><circle cx="78.62" cy="52.20" r="1"></circle><circle cx="78.36" cy="54.38" r="1"></circle><circle cx="77.94" cy="56.54" r="1"></circle><circle cx="77.36" cy="58.66" r="1"></circle><circle cx="76.62" cy="60.73" r="1"></circle><circle cx="74.67" cy="64.67" r="1"></circle><circle cx="73.47" cy="66.52" r="1"></circle><circle cx="67.39" cy="72.83" r="1"></circle><circle cx="65.59" cy="74.10" r="1"></circle><circle cx="46.69" cy="78.51" r="1"></circle><circle cx="44.52" cy="78.17" r="1"></circle><circle cx="42.37" cy="77.67" r="1"></circle><circle cx="40.28" cy="77.00" r="1"></circle><circle cx="36.27" cy="75.20" r="1"></circle><circle cx="26.51" cy="66.49" r="1"></circle><circle cx="25.31" cy="64.64" r="1"></circle><circle cx="21.63" cy="54.35" r="1"></circle><circle cx="21.38" cy="52.16" r="1"></circle><circle cx="21.30" cy="49.96" r="1"></circle><circle cx="21.39" cy="47.77" r="1"></circle><circle cx="21.64" cy="45.58" r="1"></circle><circle cx="23.40" cy="39.23" r="1"></circle><circle cx="25.35" cy="35.30" r="1"></circle><circle cx="26.55" cy="33.45" r="1"></circle><circle cx="32.64" cy="27.15" r="1"></circle><circle cx="34.44" cy="25.88" r="1"></circle><circle cx="40.35" cy="22.97" r="1"></circle><circle cx="42.44" cy="22.31" r="1"></circle><circle cx="57.66" cy="22.34" r="1"></circle><circle cx="59.76" cy="23.01" r="1"></circle><circle cx="61.79" cy="23.84" r="1"></circle><circle cx="65.65" cy="25.94" r="1"></circle><circle cx="67.45" cy="27.21" r="1"></circle><circle cx="73.51" cy="33.54" r="1"></circle><circle cx="74.70" cy="35.39" r="1"></circle><circle cx="76.64" cy="39.33" r="1"></circle><circle cx="77.38" cy="41.41" r="1"></circle><circle cx="77.96" cy="43.53" r="1"></circle><circle cx="80.90" cy="50.00" r="1"></circle><circle cx="80.20" cy="56.55" r="1"></circle><circle cx="79.66" cy="58.68" r="1"></circle><circle cx="78.96" cy="60.77" r="1"></circle><circle cx="78.12" cy="62.80" r="1"></circle><circle cx="77.14" cy="64.77" r="1"></circle><circle cx="76.02" cy="66.66" r="1"></circle><circle cx="66.78" cy="75.95" r="1"></circle><circle cx="64.89" cy="77.08" r="1"></circle><circle cx="56.68" cy="80.17" r="1"></circle><circle cx="54.52" cy="80.57" r="1"></circle><circle cx="52.34" cy="80.81" r="1"></circle><circle cx="50.14" cy="80.90" r="1"></circle><circle cx="47.94" cy="80.83" r="1"></circle><circle cx="45.75" cy="80.61" r="1"></circle><circle cx="43.58" cy="80.23" r="1"></circle><circle cx="41.45" cy="79.69" r="1"></circle><circle cx="35.35" cy="77.21" r="1"></circle><circle cx="33.45" cy="76.10" r="1"></circle><circle cx="24.13" cy="66.89" r="1"></circle><circle cx="19.45" cy="54.66" r="1"></circle><circle cx="19.20" cy="52.47" r="1"></circle><circle cx="19.75" cy="43.72" r="1"></circle><circle cx="20.94" cy="39.49" r="1"></circle><circle cx="21.76" cy="37.45" r="1"></circle><circle cx="22.73" cy="35.47" r="1"></circle><circle cx="23.83" cy="33.57" r="1"></circle><circle cx="32.99" cy="24.20" r="1"></circle><circle cx="34.87" cy="23.06" r="1"></circle><circle cx="40.92" cy="20.46" r="1"></circle><circle cx="43.05" cy="19.89" r="1"></circle><circle cx="45.21" cy="19.47" r="1"></circle><circle cx="47.39" cy="19.21" r="1"></circle><circle cx="53.98" cy="19.36" r="1"></circle><circle cx="58.28" cy="20.23" r="1"></circle><circle cx="60.38" cy="20.90" r="1"></circle><circle cx="62.43" cy="21.71" r="1"></circle><circle cx="75.72" cy="32.88" r="1"></circle><circle cx="76.87" cy="34.75" r="1"></circle><circle cx="77.89" cy="36.70" r="1"></circle><circle cx="78.77" cy="38.72" r="1"></circle><circle cx="79.50" cy="40.79" r="1"></circle><circle cx="83.10" cy="50.00" r="1"></circle><circle cx="82.44" cy="56.56" r="1"></circle><circle cx="81.94" cy="58.70" r="1"></circle><circle cx="81.29" cy="60.80" r="1"></circle><circle cx="80.50" cy="62.85" r="1"></circle><circle cx="79.58" cy="64.85" r="1"></circle><circle cx="78.53" cy="66.78" r="1"></circle><circle cx="74.64" cy="72.10" r="1"></circle><circle cx="73.12" cy="73.69" r="1"></circle><circle cx="67.97" cy="77.80" r="1"></circle><circle cx="66.08" cy="78.93" r="1"></circle><circle cx="64.13" cy="79.93" r="1"></circle><circle cx="62.11" cy="80.81" r="1"></circle><circle cx="60.03" cy="81.54" r="1"></circle><circle cx="57.92" cy="82.14" r="1"></circle><circle cx="55.76" cy="82.59" r="1"></circle><circle cx="53.59" cy="82.91" r="1"></circle><circle cx="51.39" cy="83.07" r="1"></circle><circle cx="49.19" cy="83.09" r="1"></circle><circle cx="47.00" cy="82.96" r="1"></circle><circle cx="44.81" cy="82.69" r="1"></circle><circle cx="42.66" cy="82.27" r="1"></circle><circle cx="40.53" cy="81.72" r="1"></circle><circle cx="38.44" cy="81.02" r="1"></circle><circle cx="36.41" cy="80.18" r="1"></circle><circle cx="34.43" cy="79.21" r="1"></circle><circle cx="32.53" cy="78.11" r="1"></circle><circle cx="27.31" cy="74.09" r="1.3"></circle><circle cx="25.76" cy="72.53" r="1.3"></circle><circle cx="19.73" cy="63.39" r="1"></circle><circle cx="18.91" cy="61.35" r="1"></circle><circle cx="17.27" cy="54.97" r="1"></circle><circle cx="17.02" cy="52.78" r="1"></circle><circle cx="17.91" cy="41.87" r="1"></circle><circle cx="20.16" cy="35.68" r="1"></circle><circle cx="21.18" cy="33.73" r="1"></circle><circle cx="26.47" cy="26.72" r="1.3"></circle><circle cx="33.41" cy="21.36" r="1"></circle><circle cx="35.35" cy="20.32" r="1"></circle><circle cx="41.52" cy="18.01" r="1"></circle><circle cx="43.66" cy="17.51" r="1"></circle><circle cx="45.83" cy="17.16" r="1"></circle><circle cx="52.42" cy="16.99" r="1"></circle><circle cx="54.60" cy="17.22" r="1"></circle><circle cx="72.26" cy="25.51" r="1.3"></circle><circle cx="73.84" cy="27.04" r="1.3"></circle><circle cx="77.92" cy="32.22" r="1"></circle><circle cx="79.04" cy="34.11" r="1"></circle><circle cx="83.08" cy="48.83" r="1"></circle><circle cx="85.23" cy="52.20" r="1"></circle><circle cx="85.03" cy="54.39" r="1"></circle><circle cx="84.68" cy="56.56" r="1"></circle><circle cx="84.21" cy="58.71" r="1"></circle><circle cx="83.60" cy="60.82" r="1"></circle><circle cx="82.86" cy="62.89" r="1"></circle><circle cx="81.99" cy="64.92" r="1"></circle><circle cx="81.00" cy="66.88" r="1"></circle><circle cx="75.88" cy="74.01" r="1"></circle><circle cx="74.33" cy="75.57" r="1"></circle><circle cx="67.27" cy="80.79" r="1"></circle><circle cx="65.32" cy="81.80" r="1"></circle><circle cx="63.31" cy="82.69" r="1"></circle><circle cx="61.25" cy="83.46" r="1"></circle><circle cx="46.06" cy="85.08" r="1"></circle><circle cx="43.88" cy="84.77" r="1"></circle><circle cx="41.73" cy="84.32" r="1"></circle><circle cx="39.61" cy="83.73" r="1"></circle><circle cx="37.52" cy="83.02" r="1"></circle><circle cx="35.49" cy="82.18" r="1"></circle><circle cx="33.52" cy="81.21" r="1"></circle><circle cx="26.32" cy="76.18" r="1.3"></circle><circle cx="24.74" cy="74.66" r="1.3"></circle><circle cx="23.25" cy="73.04" r="1.3"></circle><circle cx="19.44" cy="67.66" r="1"></circle><circle cx="18.40" cy="65.73" r="1"></circle><circle cx="17.48" cy="63.73" r="1"></circle><circle cx="16.69" cy="61.67" r="1"></circle><circle cx="15.49" cy="57.44" r="1"></circle><circle cx="14.87" cy="46.50" r="1"></circle><circle cx="15.16" cy="44.32" r="1"></circle><circle cx="16.14" cy="40.04" r="1"></circle><circle cx="17.64" cy="35.90" r="1"></circle><circle cx="18.58" cy="33.91" r="1"></circle><circle cx="23.52" cy="26.66" r="1.3"></circle><circle cx="25.02" cy="25.06" r="1.3"></circle><circle cx="26.63" cy="23.55" r="1.3"></circle><circle cx="33.87" cy="18.60" r="1"></circle><circle cx="35.86" cy="17.66" r="1"></circle><circle cx="53.05" cy="14.83" r="1"></circle><circle cx="55.23" cy="15.09" r="1"></circle><circle cx="57.40" cy="15.48" r="1"></circle><circle cx="65.68" cy="18.38" r="1"></circle><circle cx="67.62" cy="19.41" r="1"></circle><circle cx="73.00" cy="23.22" r="1.3"></circle><circle cx="74.62" cy="24.71" r="1.3"></circle><circle cx="76.15" cy="26.29" r="1.3"></circle><circle cx="77.58" cy="27.97" r="1.3"></circle><circle cx="81.19" cy="33.48" r="1"></circle><circle cx="82.16" cy="35.45" r="1"></circle><circle cx="84.31" cy="41.68" r="1"></circle><circle cx="84.76" cy="43.84" r="1"></circle><circle cx="87.44" cy="52.20" r="1"></circle><circle cx="87.24" cy="54.39" r="1"></circle><circle cx="86.92" cy="56.57" r="1"></circle><circle cx="86.47" cy="58.72" r="1"></circle><circle cx="83.45" cy="66.96" r="1"></circle><circle cx="82.39" cy="68.89" r="1"></circle><circle cx="81.23" cy="70.76" r="1"></circle><circle cx="72.16" cy="80.25" r="1"></circle><circle cx="70.35" cy="81.50" r="1"></circle><circle cx="68.46" cy="82.64" r="1"></circle><circle cx="66.52" cy="83.67" r="1"></circle><circle cx="47.31" cy="87.40" r="1"></circle><circle cx="45.12" cy="87.18" r="1"></circle><circle cx="42.95" cy="86.83" r="1"></circle><circle cx="40.80" cy="86.35" r="1"></circle><circle cx="34.58" cy="84.18" r="1"></circle><circle cx="32.60" cy="83.22" r="1"></circle><circle cx="27.05" cy="79.66" r="1.3"></circle><circle cx="25.35" cy="78.26" r="1.3"></circle><circle cx="22.21" cy="75.18" r="1.3"></circle><circle cx="20.78" cy="73.51" r="1.3"></circle><circle cx="16.12" cy="66.07" r="1"></circle><circle cx="15.23" cy="64.06" r="1"></circle><circle cx="13.83" cy="59.89" r="1"></circle><circle cx="13.31" cy="57.75" r="1"></circle><circle cx="12.64" cy="46.81" r="1"></circle><circle cx="12.89" cy="44.63" r="1"></circle><circle cx="16.03" cy="34.13" r="1"></circle><circle cx="17.01" cy="32.16" r="1"></circle><circle cx="20.65" cy="26.66" r="1.3"></circle><circle cx="22.07" cy="24.98" r="1.3"></circle><circle cx="25.19" cy="21.88" r="1.3"></circle><circle cx="26.88" cy="20.48" r="1.3"></circle><circle cx="32.40" cy="16.88" r="1"></circle><circle cx="34.38" cy="15.91" r="1"></circle><circle cx="36.40" cy="15.05" r="1"></circle><circle cx="38.48" cy="14.31" r="1"></circle><circle cx="53.68" cy="12.68" r="1"></circle><circle cx="55.86" cy="12.96" r="1"></circle><circle cx="58.02" cy="13.37" r="1"></circle><circle cx="66.32" cy="16.24" r="1"></circle><circle cx="73.72" cy="20.96" r="1.3"></circle><circle cx="75.39" cy="22.40" r="1.3"></circle><circle cx="78.44" cy="25.56" r="1.3"></circle><circle cx="79.83" cy="27.27" r="1.3"></circle><circle cx="83.35" cy="32.84" r="1"></circle><circle cx="84.29" cy="34.83" r="1"></circle><circle cx="86.42" cy="41.07" r="1"></circle><circle cx="86.88" cy="43.22" r="1"></circle><circle cx="89.70" cy="50.00" r="1"></circle><circle cx="84.86" cy="68.99" r="1"></circle><circle cx="83.76" cy="70.89" r="1"></circle><circle cx="82.55" cy="72.73" r="1"></circle><circle cx="81.24" cy="74.50" r="1"></circle><circle cx="75.09" cy="80.77" r="1"></circle><circle cx="73.35" cy="82.11" r="1"></circle><circle cx="71.53" cy="83.35" r="1"></circle><circle cx="69.65" cy="84.49" r="1"></circle><circle cx="59.47" cy="88.55" r="1"></circle><circle cx="57.32" cy="89.02" r="1"></circle><circle cx="50.76" cy="89.69" r="1"></circle><circle cx="48.56" cy="89.67" r="1"></circle><circle cx="39.87" cy="88.39" r="1"></circle><circle cx="35.69" cy="87.03" r="1"></circle><circle cx="33.66" cy="86.18" r="1"></circle><circle cx="27.90" cy="82.98" r="1.3"></circle><circle cx="26.11" cy="81.70" r="1.3"></circle><circle cx="24.39" cy="80.33" r="1.3"></circle><circle cx="19.72" cy="75.68" r="1.3"></circle><circle cx="18.34" cy="73.96" r="1.3"></circle><circle cx="17.07" cy="72.17" r="1.3"></circle><circle cx="13.85" cy="66.41" r="1"></circle><circle cx="13.00" cy="64.39" r="1"></circle><circle cx="11.13" cy="58.06" r="1"></circle><circle cx="10.74" cy="55.90" r="1"></circle><circle cx="10.47" cy="53.72" r="1"></circle><circle cx="10.33" cy="51.52" r="1"></circle><circle cx="10.31" cy="49.32" r="1"></circle><circle cx="10.97" cy="42.76" r="1"></circle><circle cx="11.43" cy="40.61" r="1"></circle><circle cx="13.51" cy="34.36" r="1"></circle><circle cx="14.43" cy="32.36" r="1"></circle><circle cx="17.84" cy="26.72" r="1.3"></circle><circle cx="19.18" cy="24.97" r="1.3"></circle><circle cx="25.44" cy="18.81" r="1.3"></circle><circle cx="27.20" cy="17.50" r="1.3"></circle><circle cx="32.90" cy="14.17" r="1"></circle><circle cx="34.91" cy="13.28" r="1"></circle><circle cx="36.96" cy="12.50" r="1"></circle><circle cx="39.06" cy="11.84" r="1"></circle><circle cx="41.19" cy="11.29" r="1"></circle><circle cx="43.35" cy="10.86" r="1"></circle><circle cx="56.49" cy="10.83" r="1"></circle><circle cx="58.65" cy="11.25" r="1"></circle><circle cx="72.66" cy="17.40" r="1.3"></circle><circle cx="74.43" cy="18.71" r="1.3"></circle><circle cx="80.71" cy="24.85" r="1.3"></circle><circle cx="82.06" cy="26.59" r="1.3"></circle><circle cx="85.49" cy="32.21" r="1"></circle><circle cx="86.42" cy="34.21" r="1"></circle><circle cx="91.90" cy="50.00" r="1"></circle><circle cx="89.10" cy="65.06" r="1"></circle><circle cx="88.26" cy="67.09" r="1"></circle><circle cx="87.31" cy="69.07" r="1"></circle><circle cx="86.26" cy="71.00" r="1"></circle><circle cx="83.85" cy="74.69" r="1"></circle><circle cx="82.51" cy="76.43" r="1"></circle><circle cx="81.08" cy="78.10" r="1"></circle><circle cx="77.96" cy="81.20" r="1"></circle><circle cx="76.29" cy="82.63" r="1"></circle><circle cx="74.54" cy="83.96" r="1"></circle><circle cx="72.72" cy="85.20" r="1"></circle><circle cx="70.84" cy="86.35" r="1"></circle><circle cx="68.91" cy="87.39" r="1"></circle><circle cx="62.81" cy="89.89" r="1"></circle><circle cx="60.70" cy="90.51" r="1"></circle><circle cx="58.56" cy="91.02" r="1"></circle><circle cx="56.39" cy="91.41" r="1"></circle><circle cx="49.82" cy="91.90" r="1"></circle><circle cx="38.95" cy="90.42" r="1"></circle><circle cx="36.84" cy="89.78" r="1"></circle><circle cx="34.77" cy="89.04" r="1"></circle><circle cx="32.75" cy="88.18" r="1"></circle><circle cx="26.97" cy="85.00" r="1.3"></circle><circle cx="25.16" cy="83.75" r="1.3"></circle><circle cx="15.93" cy="74.39" r="1.3"></circle><circle cx="14.70" cy="72.57" r="1.3"></circle><circle cx="11.59" cy="66.75" r="1"></circle><circle cx="10.77" cy="64.71" r="1"></circle><circle cx="8.95" cy="58.38" r="1"></circle><circle cx="8.56" cy="56.21" r="1"></circle><circle cx="8.29" cy="54.03" r="1"></circle><circle cx="8.14" cy="51.83" r="1"></circle><circle cx="8.10" cy="49.63" r="1"></circle><circle cx="8.68" cy="43.06" r="1"></circle><circle cx="9.10" cy="40.91" r="1"></circle><circle cx="9.63" cy="38.77" r="1"></circle><circle cx="10.28" cy="36.67" r="1"></circle><circle cx="11.03" cy="34.60" r="1"></circle><circle cx="11.89" cy="32.58" r="1"></circle><circle cx="15.10" cy="26.82" r="1.3"></circle><circle cx="16.36" cy="25.02" r="1.3"></circle><circle cx="25.76" cy="15.82" r="1.3"></circle><circle cx="27.59" cy="14.60" r="1.3"></circle><circle cx="33.42" cy="11.52" r="1"></circle><circle cx="35.46" cy="10.70" r="1"></circle><circle cx="37.54" cy="9.99" r="1"></circle><circle cx="39.66" cy="9.40" r="1"></circle><circle cx="41.80" cy="8.91" r="1"></circle><circle cx="43.97" cy="8.54" r="1"></circle><circle cx="57.12" cy="8.71" r="1"></circle><circle cx="59.27" cy="9.14" r="1"></circle><circle cx="73.34" cy="15.20" r="1.3"></circle><circle cx="75.13" cy="16.47" r="1.3"></circle><circle cx="82.97" cy="24.14" r="1.3"></circle><circle cx="84.28" cy="25.91" r="1.3"></circle><circle cx="85.50" cy="27.74" r="1.3"></circle><circle cx="88.55" cy="33.59" r="1"></circle><circle cx="89.36" cy="35.63" r="1"></circle><circle cx="91.87" cy="48.53" r="1"></circle><circle cx="94.10" cy="50.00" r="1"></circle><circle cx="94.05" cy="52.20" r="1"></circle><circle cx="93.88" cy="54.39" r="1"></circle><circle cx="93.61" cy="56.58" r="1"></circle><circle cx="93.22" cy="58.74" r="1"></circle><circle cx="91.44" cy="65.09" r="1"></circle><circle cx="90.63" cy="67.14" r="1"></circle><circle cx="85.15" cy="76.64" r="1"></circle><circle cx="83.77" cy="78.36" r="1"></circle><circle cx="82.32" cy="80.01" r="1"></circle><circle cx="80.78" cy="81.58" r="1"></circle><circle cx="79.17" cy="83.08" r="1"></circle><circle cx="75.73" cy="85.82" r="1"></circle><circle cx="73.91" cy="87.05" r="1"></circle><circle cx="70.10" cy="89.25" r="1"></circle><circle cx="68.12" cy="90.21" r="1"></circle><circle cx="61.92" cy="92.46" r="1"></circle><circle cx="59.79" cy="93.00" r="1"></circle><circle cx="57.63" cy="93.43" r="1"></circle><circle cx="46.68" cy="93.97" r="1"></circle><circle cx="44.49" cy="93.75" r="1"></circle><circle cx="42.31" cy="93.42" r="1"></circle><circle cx="40.16" cy="92.99" r="1"></circle><circle cx="38.02" cy="92.44" r="1"></circle><circle cx="35.92" cy="91.79" r="1"></circle><circle cx="33.86" cy="91.04" r="1"></circle><circle cx="27.92" cy="88.17" r="1.3"></circle><circle cx="26.04" cy="87.02" r="1.3"></circle><circle cx="24.23" cy="85.78" r="1.3"></circle><circle cx="19.18" cy="81.54" r="1.3"></circle><circle cx="13.54" cy="74.81" r="1.3"></circle><circle cx="12.35" cy="72.96" r="1.3"></circle><circle cx="9.34" cy="67.09" r="1"></circle><circle cx="8.54" cy="65.04" r="1"></circle><circle cx="5.96" cy="47.75" r="1"></circle><circle cx="6.12" cy="45.55" r="1"></circle><circle cx="6.40" cy="43.37" r="1"></circle><circle cx="6.79" cy="41.20" r="1"></circle><circle cx="8.58" cy="34.86" r="1"></circle><circle cx="9.39" cy="32.81" r="1"></circle><circle cx="12.40" cy="26.95" r="1.3"></circle><circle cx="13.60" cy="25.10" r="1.3"></circle><circle cx="17.72" cy="19.95" r="1.3"></circle><circle cx="19.26" cy="18.38" r="1.3"></circle><circle cx="24.32" cy="14.15" r="1.3"></circle><circle cx="26.14" cy="12.92" r="1.3"></circle><circle cx="33.96" cy="8.92" r="1"></circle><circle cx="36.03" cy="8.17" r="1"></circle><circle cx="38.13" cy="7.53" r="1"></circle><circle cx="48.98" cy="5.91" r="1"></circle><circle cx="51.18" cy="5.92" r="1"></circle><circle cx="62.03" cy="7.57" r="1"></circle><circle cx="72.13" cy="11.85" r="1.3"></circle><circle cx="74.01" cy="13.01" r="1.3"></circle><circle cx="75.82" cy="14.25" r="1.3"></circle><circle cx="80.86" cy="18.50" r="1.3"></circle><circle cx="86.49" cy="25.24" r="1.3"></circle><circle cx="87.68" cy="27.09" r="1.3"></circle><circle cx="90.68" cy="32.97" r="1"></circle><circle cx="91.48" cy="35.02" r="1"></circle><circle cx="92.17" cy="37.10" r="1"></circle><circle cx="92.76" cy="39.22" r="1"></circle><circle cx="93.25" cy="41.37" r="1"></circle><circle cx="93.62" cy="43.53" r="1"></circle><circle cx="96.30" cy="50.00" r="1"></circle><circle cx="95.83" cy="56.58" r="1"></circle><circle cx="95.47" cy="58.75" r="1"></circle><circle cx="90.12" cy="73.11" r="1"></circle><circle cx="88.98" cy="74.99" r="1"></circle><circle cx="87.74" cy="76.82" r="1"></circle><circle cx="86.43" cy="78.58" r="1"></circle><circle cx="83.55" cy="81.91" r="1"></circle><circle cx="82.00" cy="83.46" r="1"></circle><circle cx="80.37" cy="84.95" r="1"></circle><circle cx="71.30" cy="91.11" r="1"></circle><circle cx="67.30" cy="92.95" r="1"></circle><circle cx="65.24" cy="93.72" r="1"></circle><circle cx="63.14" cy="94.39" r="1"></circle><circle cx="61.02" cy="94.97" r="1"></circle><circle cx="58.87" cy="95.44" r="1"></circle><circle cx="56.70" cy="95.81" r="1"></circle><circle cx="54.52" cy="96.08" r="1"></circle><circle cx="52.33" cy="96.24" r="1"></circle><circle cx="50.13" cy="96.30" r="1"></circle><circle cx="47.93" cy="96.25" r="1"></circle><circle cx="45.73" cy="96.10" r="1"></circle><circle cx="43.55" cy="95.85" r="1"></circle><circle cx="41.38" cy="95.49" r="1"></circle><circle cx="39.23" cy="95.03" r="1"></circle><circle cx="37.10" cy="94.47" r="1"></circle><circle cx="27.00" cy="90.18" r="1.3"></circle><circle cx="25.12" cy="89.04" r="1.3"></circle><circle cx="19.82" cy="85.11" r="1.3"></circle><circle cx="18.19" cy="83.64" r="1.3"></circle><circle cx="16.63" cy="82.09" r="1.3"></circle><circle cx="15.14" cy="80.47" r="1.3"></circle><circle cx="11.16" cy="75.21" r="1.3"></circle><circle cx="10.01" cy="73.33" r="1.3"></circle><circle cx="3.93" cy="54.65" r="1"></circle><circle cx="3.77" cy="52.45" r="1"></circle><circle cx="4.13" cy="43.68" r="1"></circle><circle cx="4.49" cy="41.50" r="1"></circle><circle cx="9.75" cy="27.11" r="1.3"></circle><circle cx="10.89" cy="25.22" r="1.3"></circle><circle cx="14.80" cy="19.92" r="1.3"></circle><circle cx="16.27" cy="18.28" r="1.3"></circle><circle cx="17.82" cy="16.71" r="1.3"></circle><circle cx="19.43" cy="15.22" r="1.3"></circle><circle cx="24.69" cy="11.23" r="1.3"></circle><circle cx="26.56" cy="10.07" r="1.3"></circle><circle cx="36.61" cy="5.68" r="1"></circle><circle cx="38.73" cy="5.09" r="1"></circle><circle cx="54.01" cy="3.87" r="1"></circle><circle cx="60.52" cy="4.91" r="1"></circle><circle cx="62.65" cy="5.46" r="1"></circle><circle cx="64.75" cy="6.11" r="1"></circle><circle cx="66.82" cy="6.86" r="1"></circle><circle cx="72.78" cy="9.69" r="1.3"></circle><circle cx="74.67" cy="10.82" r="1.3"></circle><circle cx="81.63" cy="16.19" r="1.3"></circle><circle cx="83.20" cy="17.73" r="1.3"></circle><circle cx="84.69" cy="19.34" r="1.3"></circle><circle cx="88.70" cy="24.58" r="1.3"></circle><circle cx="89.86" cy="26.45" r="1.3"></circle><circle cx="94.28" cy="36.49" r="1"></circle><circle cx="94.88" cy="38.61" r="1"></circle><circle cx="95.37" cy="40.75" r="1"></circle><circle cx="95.75" cy="42.92" r="1"></circle><circle cx="96.04" cy="45.10" r="1"></circle><circle cx="96.22" cy="47.29" r="1"></circle><circle cx="98.50" cy="50.00" r="1"></circle><circle cx="98.05" cy="56.58" r="1"></circle><circle cx="97.70" cy="58.75" r="1"></circle><circle cx="97.26" cy="60.91" r="1"></circle><circle cx="96.71" cy="63.04" r="1"></circle><circle cx="92.59" cy="73.21" r="1"></circle><circle cx="91.49" cy="75.12" r="1"></circle><circle cx="83.21" cy="85.34" r="1"></circle><circle cx="81.57" cy="86.81" r="1"></circle><circle cx="72.49" cy="92.97" r="1"></circle><circle cx="66.45" cy="95.62" r="1"></circle><circle cx="55.77" cy="98.16" r="1"></circle><circle cx="53.58" cy="98.37" r="1"></circle><circle cx="51.38" cy="98.48" r="1"></circle><circle cx="49.18" cy="98.49" r="1"></circle><circle cx="46.99" cy="98.41" r="1"></circle><circle cx="44.79" cy="98.22" r="1"></circle><circle cx="42.61" cy="97.93" r="1"></circle><circle cx="40.45" cy="97.55" r="1"></circle><circle cx="26.08" cy="92.19" r="1.3"></circle><circle cx="24.19" cy="91.06" r="1.3"></circle><circle cx="18.86" cy="87.18" r="1.3"></circle><circle cx="17.20" cy="85.73" r="1.3"></circle><circle cx="15.62" cy="84.21" r="1.3"></circle><circle cx="14.10" cy="82.61" r="1.3"></circle><circle cx="12.66" cy="80.95" r="1.3"></circle><circle cx="8.81" cy="75.60" r="1.3"></circle><circle cx="7.69" cy="73.70" r="1.3"></circle><circle cx="3.44" cy="63.58" r="1"></circle><circle cx="2.87" cy="61.46" r="1"></circle><circle cx="2.40" cy="59.31" r="1"></circle><circle cx="2.03" cy="57.14" r="1"></circle><circle cx="1.75" cy="54.96" r="1"></circle><circle cx="1.58" cy="52.77" r="1"></circle><circle cx="1.87" cy="43.98" r="1"></circle><circle cx="2.20" cy="41.81" r="1"></circle><circle cx="3.75" cy="35.40" r="1"></circle><circle cx="7.14" cy="27.29" r="1.3"></circle><circle cx="8.22" cy="25.37" r="1.3"></circle><circle cx="11.95" cy="19.93" r="1.3"></circle><circle cx="13.35" cy="18.24" r="1.3"></circle><circle cx="14.83" cy="16.61" r="1.3"></circle><circle cx="16.38" cy="15.05" r="1.3"></circle><circle cx="18.00" cy="13.56" r="1.3"></circle><circle cx="19.68" cy="12.14" r="1.3"></circle><circle cx="25.10" cy="8.38" r="1.3"></circle><circle cx="27.01" cy="7.29" r="1.3"></circle><circle cx="52.45" cy="1.56" r="1"></circle><circle cx="54.64" cy="1.72" r="1"></circle><circle cx="56.83" cy="1.98" r="1"></circle><circle cx="59.00" cy="2.34" r="1"></circle><circle cx="65.38" cy="4.00" r="1"></circle><circle cx="67.45" cy="4.75" r="1"></circle><circle cx="73.43" cy="7.53" r="1.3"></circle><circle cx="75.33" cy="8.64" r="1.3"></circle><circle cx="80.71" cy="12.46" r="1.3"></circle><circle cx="82.38" cy="13.89" r="1.3"></circle><circle cx="83.98" cy="15.39" r="1.3"></circle><circle cx="85.51" cy="16.97" r="1.3"></circle><circle cx="86.98" cy="18.61" r="1.3"></circle><circle cx="92.03" cy="25.80" r="1.3"></circle><circle cx="93.09" cy="27.73" r="1.3"></circle><circle cx="97.49" cy="40.13" r="1"></circle><circle cx="97.88" cy="42.30" r="1"></circle><circle cx="98.18" cy="44.48" r="1"></circle><circle cx="98.39" cy="46.67" r="1"></circle><circle cx="98.49" cy="48.87" r="1"></circle><circle cx="99.94" cy="58.76" r="1"></circle><circle cx="99.51" cy="60.91" r="1"></circle><circle cx="98.99" cy="63.05" r="1"></circle><circle cx="95.03" cy="73.29" r="1"></circle><circle cx="93.98" cy="75.22" r="1"></circle><circle cx="90.33" cy="80.72" r="1"></circle><circle cx="88.96" cy="82.44" r="1"></circle><circle cx="87.52" cy="84.10" r="1"></circle><circle cx="86.01" cy="85.69" r="1"></circle><circle cx="84.42" cy="87.22" r="1"></circle><circle cx="77.48" cy="92.61" r="1"></circle><circle cx="75.60" cy="93.76" r="1"></circle><circle cx="73.68" cy="94.83" r="1"></circle><circle cx="35.26" cy="98.51" r="1"></circle><circle cx="33.17" cy="97.82" r="1"></circle><circle cx="27.10" cy="95.23" r="1.3"></circle><circle cx="25.16" cy="94.20" r="1.3"></circle><circle cx="19.63" cy="90.60" r="1.3"></circle><circle cx="17.90" cy="89.24" r="1.3"></circle><circle cx="16.23" cy="87.81" r="1.3"></circle><circle cx="14.62" cy="86.31" r="1.3"></circle><circle cx="13.08" cy="84.74" r="1.3"></circle><circle cx="11.60" cy="83.11" r="1.3"></circle><circle cx="10.20" cy="81.41" r="1.3"></circle><circle cx="6.46" cy="75.98" r="1.3"></circle><circle cx="5.38" cy="74.07" r="1.3"></circle><circle cx="4.38" cy="72.11" r="1.3"></circle><circle cx="1.89" cy="66.00" r="1"></circle><circle cx="1.24" cy="63.90" r="1"></circle><circle cx="0.69" cy="61.77" r="1"></circle><circle cx="0.22" cy="59.62" r="1"></circle><circle cx="1.37" cy="35.68" r="1"></circle><circle cx="2.03" cy="33.58" r="1"></circle><circle cx="4.57" cy="27.49" r="1.3"></circle><circle cx="5.59" cy="25.54" r="1.3"></circle><circle cx="9.14" cy="19.98" r="1.3"></circle><circle cx="10.48" cy="18.24" r="1.3"></circle><circle cx="11.89" cy="16.56" r="1.3"></circle><circle cx="13.38" cy="14.93" r="1.3"></circle><circle cx="14.94" cy="13.38" r="1.3"></circle><circle cx="16.56" cy="11.89" r="1.3"></circle><circle cx="18.24" cy="10.48" r="1.3"></circle><circle cx="19.99" cy="9.14" r="1.3"></circle><circle cx="25.55" cy="5.59" r="1.3"></circle><circle cx="27.50" cy="4.57" r="1.3"></circle><circle cx="59.62" cy="0.22" r="1"></circle><circle cx="66.00" cy="1.89" r="1"></circle><circle cx="72.11" cy="4.38" r="1.3"></circle><circle cx="74.07" cy="5.38" r="1.3"></circle><circle cx="75.98" cy="6.46" r="1.3"></circle><circle cx="81.42" cy="10.21" r="1.3"></circle><circle cx="83.11" cy="11.61" r="1.3"></circle><circle cx="84.75" cy="13.08" r="1.3"></circle><circle cx="86.32" cy="14.62" r="1.3"></circle><circle cx="87.82" cy="16.23" r="1.3"></circle><circle cx="89.25" cy="17.90" r="1.3"></circle><circle cx="90.60" cy="19.63" r="1.3"></circle><circle cx="94.20" cy="25.16" r="1.3"></circle><circle cx="95.23" cy="27.10" r="1.3"></circle><circle cx="97.46" cy="73.36" r="1"></circle><circle cx="96.45" cy="75.32" r="1"></circle><circle cx="91.61" cy="82.66" r="1"></circle><circle cx="90.22" cy="84.36" r="1"></circle><circle cx="88.76" cy="86.00" r="1"></circle><circle cx="87.23" cy="87.58" r="1"></circle><circle cx="85.63" cy="89.10" r="1"></circle><circle cx="80.49" cy="93.23" r="1"></circle><circle cx="78.67" cy="94.46" r="1"></circle><circle cx="76.79" cy="95.61" r="1"></circle><circle cx="32.25" cy="99.83" r="1"></circle><circle cx="26.18" cy="97.24" r="1.3"></circle><circle cx="24.24" cy="96.20" r="1.3"></circle><circle cx="16.94" cy="91.30" r="1.3"></circle><circle cx="15.26" cy="89.89" r="1.3"></circle><circle cx="13.63" cy="88.41" r="1.3"></circle><circle cx="12.06" cy="86.87" r="1.3"></circle><circle cx="10.56" cy="85.26" r="1.3"></circle><circle cx="9.13" cy="83.59" r="1.3"></circle><circle cx="3.08" cy="74.43" r="1.3"></circle><circle cx="2.10" cy="72.45" r="1.3"></circle><circle cx="2.03" cy="27.71" r="1.3"></circle><circle cx="2.99" cy="25.73" r="1.3"></circle><circle cx="9.02" cy="16.55" r="1.3"></circle><circle cx="10.44" cy="14.88" r="1.3"></circle><circle cx="11.94" cy="13.26" r="1.3"></circle><circle cx="13.50" cy="11.71" r="1.3"></circle><circle cx="15.12" cy="10.23" r="1.3"></circle><circle cx="16.80" cy="8.81" r="1.3"></circle><circle cx="24.08" cy="3.88" r="1.3"></circle><circle cx="26.02" cy="2.85" r="1.3"></circle><circle cx="72.75" cy="2.24" r="1.3"></circle><circle cx="74.71" cy="3.23" r="1.3"></circle><circle cx="83.84" cy="9.34" r="1.3"></circle><circle cx="85.50" cy="10.78" r="1.3"></circle><circle cx="87.10" cy="12.29" r="1.3"></circle><circle cx="88.63" cy="13.86" r="1.3"></circle><circle cx="90.10" cy="15.50" r="1.3"></circle><circle cx="91.50" cy="17.20" r="1.3"></circle><circle cx="96.36" cy="24.52" r="1.3"></circle><circle cx="97.38" cy="26.47" r="1.3"></circle><circle cx="99.87" cy="73.43" r="1"></circle><circle cx="98.90" cy="75.40" r="1"></circle><circle cx="92.89" cy="84.59" r="1"></circle><circle cx="91.47" cy="86.28" r="1"></circle><circle cx="89.99" cy="87.90" r="1"></circle><circle cx="88.45" cy="89.47" r="1"></circle><circle cx="86.84" cy="90.97" r="1"></circle><circle cx="85.17" cy="92.41" r="1"></circle><circle cx="83.45" cy="93.78" r="1"></circle><circle cx="81.68" cy="95.08" r="1"></circle><circle cx="79.85" cy="96.31" r="1"></circle><circle cx="77.98" cy="97.47" r="1"></circle><circle cx="76.07" cy="98.54" r="1"></circle><circle cx="25.27" cy="99.24" r="1.3"></circle><circle cx="23.32" cy="98.21" r="1.3"></circle><circle cx="21.42" cy="97.11" r="1.3"></circle><circle cx="14.29" cy="91.96" r="1.3"></circle><circle cx="12.64" cy="90.50" r="1.3"></circle><circle cx="11.06" cy="88.98" r="1.3"></circle><circle cx="9.53" cy="87.39" r="1.3"></circle><circle cx="8.07" cy="85.75" r="1.3"></circle><circle cx="2.92" cy="78.63" r="1.3"></circle><circle cx="1.81" cy="76.72" r="1.3"></circle><circle cx="0.79" cy="74.78" r="1.3"></circle><circle cx="0.43" cy="25.94" r="1.3"></circle><circle cx="1.43" cy="23.98" r="1.3"></circle><circle cx="2.51" cy="22.06" r="1.3"></circle><circle cx="3.66" cy="20.19" r="1.3"></circle><circle cx="8.99" cy="13.20" r="1.3"></circle><circle cx="10.49" cy="11.59" r="1.3"></circle><circle cx="12.06" cy="10.05" r="1.3"></circle><circle cx="13.68" cy="8.56" r="1.3"></circle><circle cx="20.73" cy="3.31" r="1.3"></circle><circle cx="22.62" cy="2.18" r="1.3"></circle><circle cx="24.55" cy="1.13" r="1.3"></circle><circle cx="26.52" cy="0.15" r="1.3"></circle><circle cx="73.38" cy="0.11" r="1.3"></circle><circle cx="75.35" cy="1.08" r="1.3"></circle><circle cx="77.29" cy="2.13" r="1.3"></circle><circle cx="79.18" cy="3.26" r="1.3"></circle><circle cx="86.24" cy="8.49" r="1.3"></circle><circle cx="87.87" cy="9.97" r="1.3"></circle><circle cx="89.43" cy="11.52" r="1.3"></circle><circle cx="90.94" cy="13.12" r="1.3"></circle><circle cx="96.28" cy="20.10" r="1.3"></circle><circle cx="97.44" cy="21.97" r="1.3"></circle><circle cx="98.52" cy="23.89" r="1.3"></circle><circle cx="99.52" cy="25.85" r="1.3"></circle><circle cx="95.52" cy="84.80" r="1"></circle><circle cx="94.15" cy="86.52" r="1"></circle><circle cx="91.22" cy="89.80" r="1"></circle><circle cx="89.66" cy="91.35" r="1"></circle><circle cx="86.37" cy="94.28" r="1"></circle><circle cx="84.65" cy="95.64" r="1"></circle><circle cx="82.87" cy="96.94" r="1"></circle><circle cx="81.04" cy="98.16" r="1"></circle><circle cx="79.17" cy="99.32" r="1"></circle><circle cx="20.50" cy="99.12" r="1.3"></circle><circle cx="18.63" cy="97.95" r="1.3"></circle><circle cx="16.81" cy="96.71" r="1.3"></circle><circle cx="10.06" cy="91.09" r="1.3"></circle><circle cx="8.51" cy="89.52" r="1.3"></circle><circle cx="2.95" cy="82.71" r="1.3"></circle><circle cx="1.73" cy="80.88" r="1.3"></circle><circle cx="0.58" cy="79.01" r="1.3"></circle><circle cx="0.98" cy="20.33" r="1.3"></circle><circle cx="2.15" cy="18.47" r="1.3"></circle><circle cx="3.40" cy="16.66" r="1.3"></circle><circle cx="9.05" cy="9.92" r="1.3"></circle><circle cx="10.62" cy="8.38" r="1.3"></circle><circle cx="17.45" cy="2.84" r="1.3"></circle><circle cx="19.28" cy="1.63" r="1.3"></circle><circle cx="21.16" cy="0.49" r="1.3"></circle><circle cx="79.83" cy="1.08" r="1.3"></circle><circle cx="81.69" cy="2.26" r="1.3"></circle><circle cx="83.50" cy="3.51" r="1.3"></circle><circle cx="90.22" cy="9.18" r="1.3"></circle><circle cx="91.75" cy="10.76" r="1.3"></circle><circle cx="97.27" cy="17.61" r="1.3"></circle><circle cx="98.47" cy="19.45" r="1.3"></circle><circle cx="99.61" cy="21.33" r="1.3"></circle><circle cx="98.13" cy="84.99" r="1"></circle><circle cx="96.80" cy="86.74" r="1"></circle><circle cx="87.57" cy="96.14" r="1"></circle><circle cx="85.84" cy="97.50" r="1"></circle><circle cx="84.06" cy="98.79" r="1"></circle><circle cx="17.70" cy="99.97" r="1.3"></circle><circle cx="15.88" cy="98.74" r="1.3"></circle><circle cx="14.10" cy="97.45" r="1.3"></circle><circle cx="12.37" cy="96.09" r="1.3"></circle><circle cx="3.15" cy="86.68" r="1.3"></circle><circle cx="1.83" cy="84.92" r="1.3"></circle><circle cx="0.57" cy="83.12" r="1.3"></circle><circle cx="0.65" cy="16.76" r="1.3"></circle><circle cx="1.92" cy="14.95" r="1.3"></circle><circle cx="3.25" cy="13.20" r="1.3"></circle><circle cx="12.49" cy="3.81" r="1.3"></circle><circle cx="14.22" cy="2.46" r="1.3"></circle><circle cx="16.00" cy="1.17" r="1.3"></circle><circle cx="82.36" cy="0.07" r="1.3"></circle><circle cx="84.18" cy="1.30" r="1.3"></circle><circle cx="85.96" cy="2.60" r="1.3"></circle><circle cx="87.69" cy="3.96" r="1.3"></circle><circle cx="96.89" cy="13.38" r="1.3"></circle><circle cx="98.22" cy="15.14" r="1.3"></circle><circle cx="99.47" cy="16.94" r="1.3"></circle><circle cx="99.42" cy="86.94" r="1"></circle><circle cx="98.07" cy="88.68" r="1"></circle><circle cx="96.66" cy="90.36" r="1"></circle><circle cx="90.45" cy="96.59" r="1"></circle><circle cx="88.77" cy="98.00" r="1"></circle><circle cx="87.03" cy="99.35" r="1"></circle><circle cx="13.16" cy="99.49" r="1.3"></circle><circle cx="11.42" cy="98.15" r="1.3"></circle><circle cx="9.73" cy="96.74" r="1.3"></circle><circle cx="3.49" cy="90.54" r="1.3"></circle><circle cx="2.07" cy="88.86" r="1.3"></circle><circle cx="0.72" cy="87.13" r="1.3"></circle><circle cx="0.44" cy="13.25" r="1.3"></circle><circle cx="1.78" cy="11.51" r="1.3"></circle><circle cx="3.18" cy="9.81" r="1.3"></circle><circle cx="9.37" cy="3.57" r="1.3"></circle><circle cx="11.05" cy="2.15" r="1.3"></circle><circle cx="12.78" cy="0.79" r="1.3"></circle><circle cx="86.65" cy="0.37" r="1.3"></circle><circle cx="88.40" cy="1.70" r="1.3"></circle><circle cx="90.10" cy="3.10" r="1.3"></circle><circle cx="96.35" cy="9.28" r="1.3"></circle><circle cx="97.78" cy="10.96" r="1.3"></circle><circle cx="99.14" cy="12.69" r="1.3"></circle><circle cx="99.34" cy="90.60" r="1"></circle><circle cx="97.91" cy="92.28" r="1"></circle><circle cx="96.43" cy="93.90" r="1"></circle><circle cx="93.30" cy="96.99" r="1"></circle><circle cx="91.66" cy="98.46" r="1"></circle><circle cx="89.96" cy="99.86" r="1"></circle><circle cx="8.76" cy="98.81" r="1.3"></circle><circle cx="7.11" cy="97.36" r="1.3"></circle><circle cx="3.95" cy="94.30" r="1.3"></circle><circle cx="2.45" cy="92.69" r="1.3"></circle><circle cx="1.01" cy="91.03" r="1.3"></circle><circle cx="0.31" cy="9.82" r="1.3"></circle><circle cx="1.73" cy="8.13" r="1.3"></circle><circle cx="3.20" cy="6.50" r="1.3"></circle><circle cx="6.30" cy="3.38" r="1.3"></circle><circle cx="7.93" cy="1.90" r="1.3"></circle><circle cx="9.61" cy="0.48" r="1.3"></circle><circle cx="90.82" cy="0.84" r="1.3"></circle><circle cx="92.49" cy="2.27" r="1.3"></circle><circle cx="94.10" cy="3.76" r="1.3"></circle><circle cx="97.18" cy="6.91" r="1.3"></circle><circle cx="98.64" cy="8.56" r="1.3"></circle><circle cx="99.16" cy="94.19" r="1"></circle><circle cx="97.66" cy="95.80" r="1"></circle><circle cx="96.11" cy="97.36" r="1"></circle><circle cx="94.51" cy="98.87" r="1"></circle><circle cx="6.13" cy="99.44" r="1.3"></circle><circle cx="4.51" cy="97.96" r="1.3"></circle><circle cx="2.94" cy="96.42" r="1.3"></circle><circle cx="1.42" cy="94.82" r="1.3"></circle><circle cx="0.27" cy="6.45" r="1.3"></circle><circle cx="1.75" cy="4.82" r="1.3"></circle><circle cx="3.28" cy="3.24" r="1.3"></circle><circle cx="4.86" cy="1.71" r="1.3"></circle><circle cx="6.49" cy="0.24" r="1.3"></circle><circle cx="94.86" cy="1.46" r="1.3"></circle><circle cx="96.45" cy="2.98" r="1.3"></circle><circle cx="97.99" cy="4.55" r="1.3"></circle><circle cx="99.48" cy="6.17" r="1.3"></circle><circle cx="98.89" cy="97.70" r="1"></circle><circle cx="97.33" cy="99.25" r="1"></circle><circle cx="1.94" cy="98.53" r="1.3"></circle><circle cx="0.40" cy="96.95" r="1.3"></circle><circle cx="0.30" cy="3.15" r="1.3"></circle><circle cx="1.84" cy="1.57" r="1.3"></circle><circle cx="3.42" cy="0.05" r="1.3"></circle><circle cx="97.22" cy="0.66" r="1.3"></circle><circle cx="98.79" cy="2.20" r="1.3"></circle></g></defs><rect x="-8" y="-8" width="116" height="116" fill="#ffffff"></rect><g style="mix-blend-mode:normal"><use href="#dots" fill="#f7158b" fill-opacity="0.75" transform="translate(-0.26,-0.84) rotate(0.64)" transform-origin="50 50"></use><use href="#dots" fill="#02d1fd" fill-opacity="0.75" transform="translate(0.40,-0.70) rotate(0.06)" transform-origin="50 50"></use><use href="#dots" fill="#1f014b" fill-opacity="0.75" transform="translate(0.07,0.61) rotate(0.77)" transform-origin="50 50"></use></g></svg>