<svg xmlns="http://www.w3.org/2000/svg" viewBox="0 0 116 116"><rect width="116" height="116" fill="#fcb9ff"></rect><g stroke="#000000" stroke-width="1.5" fill-opacity="0.3"><path fill="#7f9d1c" d="M0,0h4v20h-4z"></path><path fill="#fc5591" d="M4,0h4v16h-4z"></path><path fill="#f3af13" d="M8,0h24v4h-4v0v4h-4v0v4h-4v0v4h-12z"></path><path fill="#9abbcb" d="M32,0h12v8h0h4v4h-4v0v8h-4v-4h0h-16v-8h4v0v-4h4v0z"></path><path fill="#38f08d" d="M44,0h16v4h0h4v8h-16v-4h0h-4z"></path><path fill="#35aac0" d="M60,0h28v8h-4v0v4h-4v0v4h-12v-4h0h-4v-8h0h-4z"></path><path fill="#29d001" d="M88,0h28v4h-12v0v4h-16z"></path><path fill="#0226f8" d="M104,4h12v8h-12z"></path><path fill="#c57162" d="M84,8h8v16h-4v0v4h-4v-4h0h-4v-12h4v0z"></path><path fill="#7215e1" d="M92,8h12v4h0h12v12h-20v-4h0h-4z"></path><path fill="#d00352" d="M20,12h4v4h0h4v12h0h4v8h-4v0v4h-4v0v4h-4z"></path><path fill="#7b21cf" d="M44,12h24v4h-4v0v4h-16v0v4h-4z"></path><path fill="#c794ca" d="M4,16h4v20h-8v-16h4v0z"></path><path fill="#d783b1" d="M8,16h12v24h-8v-4h0h-4z"></path><path fill="#d944fa" d="M28,16h12v4h0h4v8h-4v0v4h-8v-4h0h-4z"></path><path fill="#e35b53" d="M64,16h16v16h-4v0v4h-4v-4h0h-8z"></path><path fill="#12daf0" d="M48,20h16v12h-4v0v4h-12v-4h0h-4v-8h4v0z"></path><path fill="#d08d78" d="M92,20h4v8h0h4v4h-16v-4h4v0v-4h4v0z"></path><path fill="#acdec6" d="M80,24h4v12h-4z"></path><path fill="#50bd3f" d="M96,24h20v4h-8v0v4h-8v-4h0h-4z"></path><path fill="#5aec79" d="M40,28h4v4h0h4v4h0h8v4h-4v0v4h-12v-4h0h-4v-8h4v0z"></path><path fill="#3a188c" d="M108,28h8v20h-8v-4h0h-4v-12h4v0z"></path><path fill="#544053" d="M32,32h4v12h-12v-4h4v0v-4h4v0z"></path><path fill="#f338c2" d="M60,32h12v24h-8v-4h0h-8v-8h0h-4v-4h4v0v-4h4v0z"></path><path fill="#843905" d="M76,32h4v4h0h8v8h-4v0v4h-4v0v8h-4v-4h0h-4v-16h4v0z"></path><path fill="#d65bc2" d="M84,32h20v4h-8v0v4h-8v-4h0h-4z"></path><path fill="#487f53" d="M0,36h12v4h-4v0v4h-8z"></path><path fill="#ee8a64" d="M96,36h8v8h-4v0v4h-8v-4h0h-4v-4h8v0z"></path><path fill="#566f9b" d="M8,40h4v8h-12v-4h8v0z"></path><path fill="#b376b0" d="M12,40h8v4h0h4v4h0h4v4h-12v0v4h-4v-4h0h-4v-4h4v0z"></path><path fill="#9f255e" d="M36,40h4v20h-4v-4h0h-4v-4h0h-4v-4h0h-4v-4h12v0z"></path><path fill="#bbf216" d="M40,44h16v4h-4v0v4h-4v0v4h-4v0v4h-4z"></path><path fill="#447678" d="M84,44h8v4h0h4v4h-4v0v8h-4v-4h0h-4v-4h0h-4v-4h4v0z"></path><path fill="#c8e3de" d="M100,44h8v4h0h8v8h-16z"></path><path fill="#b12929" d="M0,48h8v4h0h4v8h-4v0v4h-8z"></path><path fill="#0e5e80" d="M52,48h4v4h0h4v16h-4v0v4h-4v-4h0h-12v-8h4v0v-4h4v0v-4h4v0z"></path><path fill="#34daeb" d="M96,48h4v4h-4z"></path><path fill="#d64894" d="M16,52h12v12h-20v-4h4v0v-4h4v0z"></path><path fill="#5730a1" d="M28,52h4v4h0h4v4h0h4v12h-8v0v4h-4z"></path><path fill="#629e5d" d="M60,52h4v4h0h4v16h-4v0v8h-4v-8h0h-4v-4h4v0z"></path><path fill="#cc0bae" d="M72,52h4v12h0h4v8h-8v-4h0h-4v-12h4v0z"></path><path fill="#f2263a" d="M80,52h4v20h-4v-8h0h-4v-8h4v0z"></path><path fill="#42682d" d="M92,52h8v8h-8z"></path><path fill="#8796e1" d="M84,56h4v4h0h4v8h-4v0v4h-4z"></path><path fill="#cf1d3b" d="M100,56h16v8h-12v0v4h-12v-8h8v0z"></path><path fill="#31c707" d="M0,64h12v4h0h4v4h-4v0v4h-12z"></path><path fill="#7040e0" d="M12,64h4v4h-4z"></path><path fill="#b15737" d="M16,64h8v4h-4v0v4h-4z"></path><path fill="#8aad43" d="M24,64h4v8h-8v-4h4v0z"></path><path fill="#e83c29" d="M104,64h12v4h-8v0v4h-4z"></path><path fill="#db1f2a" d="M40,68h8v12h-4v-4h0h-4z"></path><path fill="#db92b6" d="M48,68h4v4h0h8v4h-8v0v4h-4z"></path><path fill="#4aed61" d="M68,68h4v4h0h12v4h-12v0v4h-8v-8h4v0z"></path><path fill="#773636" d="M88,68h4v12h-12v-4h4v0v-4h4v0z"></path><path fill="#531a1d" d="M92,68h4v8h0h4v4h0h4v4h-8v0v4h-4v-4h0h-4v-4h4v0z"></path><path fill="#98df59" d="M96,68h8v4h0h4v4h-4v0v4h-4v-4h0h-4z"></path><path fill="#fce477" d="M108,68h8v12h-12v-4h4v0z"></path><path fill="#62bf3f" d="M12,72h12v4h-4v0v4h-4v-4h0h-4z"></path><path fill="#527c0e" d="M24,72h4v4h0h4v4h-4v0v4h-8v-8h4v0z"></path><path fill="#0bbdc1" d="M32,72h4v8h-4z"></path><path fill="#af34e4" d="M36,72h4v4h0h4v4h-4v0v4h-4z"></path><path fill="#3dfea1" d="M0,76h16v8h-4v-4h0h-12z"></path><path fill="#76456c" d="M52,76h8v4h0h4v4h-4v0v4h-8z"></path><path fill="#5af2b5" d="M72,76h8v4h0h4v4h-20v-4h8v0z"></path><path fill="#07d08c" d="M0,80h12v4h0h4v4h-4v0v8h-4v-4h0h-8z"></path><path fill="#097fed" d="M16,80h4v4h0h4v4h0h4v4h-4v0v4h-8v-4h0h-4v-4h4v0z"></path><path fill="#756a58" d="M28,80h8v4h0h8v4h-4v0v4h-8v-4h0h-8v-4h4v0z"></path><path fill="#575092" d="M40,80h12v8h-8v-4h0h-4z"></path><path fill="#c91d45" d="M84,80h4v8h-4z"></path><path fill="#aecc7a" d="M104,80h12v20h-8v-16h0h-4z"></path><path fill="#b3d01a" d="M60,84h4v4h0h4v4h0h4v8h-8v0v4h-8v-12h4v0z"></path><path fill="#19cbf0" d="M64,84h16v4h-4v0v8h-4v-4h0h-4v-4h0h-4z"></path><path fill="#d5e0a8" d="M80,84h4v4h0h4v8h-12v-8h4v0z"></path><path fill="#f48214" d="M88,84h4v12h-4z"></path><path fill="#5e9c41" d="M96,84h4v4h0h4v8h-12v-8h4v0z"></path><path fill="#5a0f78" d="M100,84h8v12h-4v-8h0h-4z"></path><path fill="#5c4fb3" d="M28,88h4v4h0h4v4h-4v0v8h-4v-4h0h-4v-8h4v0z"></path><path fill="#df4044" d="M40,88h4v4h0h4v4h0h4v4h-20v-4h4v0v-4h4v0z"></path><path fill="#015742" d="M44,88h16v4h-4v0v8h-4v-4h0h-4v-4h0h-4z"></path><path fill="#ece492" d="M0,92h8v16h-8z"></path><path fill="#0f9456" d="M12,92h4v4h0h4v8h-4v0v4h-8v-12h4v0z"></path><path fill="#77c636" d="M20,96h4v4h0h4v12h-8v-4h0h-4v-4h4v0z"></path><path fill="#37eda1" d="M72,96h20v4h-4v0v4h-8v-4h0h-8z"></path><path fill="#1abc0b" d="M92,96h16v4h0h8v4h-28v-4h4v0z"></path><path fill="#1b42f7" d="M32,100h4v4h0h4v4h-4v0v4h-8v-8h4v0z"></path><path fill="#8a9ca6" d="M36,100h20v8h-4v0v4h-12v-8h0h-4z"></path><path fill="#400984" d="M64,100h8v8h0h4v4h-4v0v4h-20v-8h4v0v-4h8v0z"></path><path fill="#206097" d="M72,100h8v4h0h8v8h-12v-4h0h-4z"></path><path fill="#2d1dce" d="M88,104h28v12h-24v-4h0h-4z"></path><path fill="#028900" d="M0,108h12v8h-12z"></path><path fill="#6fa6f1" d="M12,108h4v4h-4z"></path><path fill="#415ae6" d="M16,108h4v4h0h8v4h-16v-4h4v0z"></path><path fill="#dc2cee" d="M36,108h4v4h0h12v4h-16z"></path><path fill="#5b4d72" d="M28,112h8v4h-8z"></path><path fill="#87b3f5" d="M72,112h20v4h-20z"></path></g><path fill="#000000" d="M8,8h4v4h-4zM12,8h4v4h-4zM16,8h4v4h-4zM20,8h4v4h-4zM24,8h4v4h-4zM28,8h4v4h-4zM32,8h4v4h-4zM60,8h4v4h-4zM64,8h4v4h-4zM72,8h4v4h-4zM80,8h4v4h-4zM84,8h4v4h-4zM88,8h4v4h-4zM92,8h4v4h-4zM96,8h4v4h-4zM100,8h4v4h-4zM104,8h4v4h-4zM8,12h4v4h-4zM32,12h4v4h-4zM44,12h4v4h-4zM56,12h4v4h-4zM68,12h4v4h-4zM72,12h4v4h-4zM80,12h4v4h-4zM104,12h4v4h-4zM8,16h4v4h-4zM16,16h4v4h-4zM20,16h4v4h-4zM24,16h4v4h-4zM32,16h4v4h-4zM40,16h4v4h-4zM44,16h4v4h-4zM48,16h4v4h-4zM64,16h4v4h-4zM80,16h4v4h-4zM88,16h4v4h-4zM92,16h4v4h-4zM96,16h4v4h-4zM104,16h4v4h-4zM8,20h4v4h-4zM16,20h4v4h-4zM20,20h4v4h-4zM24,20h4v4h-4zM32,20h4v4h-4zM40,20h4v4h-4zM44,20h4v4h-4zM60,20h4v4h-4zM64,20h4v4h-4zM80,20h4v4h-4zM88,20h4v4h-4zM92,20h4v4h-4zM96,20h4v4h-4zM104,20h4v4h-4zM8,24h4v4h-4zM16,24h4v4h-4zM20,24h4v4h-4zM24,24h4v4h-4zM32,24h4v4h-4zM40,24h4v4h-4zM48,24h4v4h-4zM52,24h4v4h-4zM60,24h4v4h-4zM72,24h4v4h-4zM80,24h4v4h-4zM88,24h4v4h-4zM92,24h4v4h-4zM96,24h4v4h-4zM104,24h4v4h-4zM8,28h4v4h-4zM32,28h4v4h-4zM40,28h4v4h-4zM48,28h4v4h-4zM64,28h4v4h-4zM68,28h4v4h-4zM80,28h4v4h-4zM104,28h4v4h-4zM8,32h4v4h-4zM12,32h4v4h-4zM16,32h4v4h-4zM20,32h4v4h-4zM24,32h4v4h-4zM28,32h4v4h-4zM32,32h4v4h-4zM40,32h4v4h-4zM48,32h4v4h-4zM56,32h4v4h-4zM64,32h4v4h-4zM72,32h4v4h-4zM80,32h4v4h-4zM84,32h4v4h-4zM88,32h4v4h-4zM92,32h4v4h-4zM96,32h4v4h-4zM100,32h4v4h-4zM104,32h4v4h-4zM40,36h4v4h-4zM44,36h4v4h-4zM48,36h4v4h-4zM72,36h4v4h-4zM8,40h4v4h-4zM16,40h4v4h-4zM20,40h4v4h-4zM24,40h4v4h-4zM28,40h4v4h-4zM32,40h4v4h-4zM48,40h4v4h-4zM52,40h4v4h-4zM60,40h4v4h-4zM64,40h4v4h-4zM80,40h4v4h-4zM84,40h4v4h-4zM88,40h4v4h-4zM92,40h4v4h-4zM96,40h4v4h-4zM16,44h4v4h-4zM28,44h4v4h-4zM36,44h4v4h-4zM40,44h4v4h-4zM56,44h4v4h-4zM76,44h4v4h-4zM84,44h4v4h-4zM100,44h4v4h-4zM8,48h4v4h-4zM12,48h4v4h-4zM16,48h4v4h-4zM24,48h4v4h-4zM32,48h4v4h-4zM44,48h4v4h-4zM48,48h4v4h-4zM64,48h4v4h-4zM68,48h4v4h-4zM72,48h4v4h-4zM80,48h4v4h-4zM84,48h4v4h-4zM92,48h4v4h-4zM100,48h4v4h-4zM104,48h4v4h-4zM12,52h4v4h-4zM20,52h4v4h-4zM28,52h4v4h-4zM36,52h4v4h-4zM44,52h4v4h-4zM52,52h4v4h-4zM64,52h4v4h-4zM68,52h4v4h-4zM72,52h4v4h-4zM104,52h4v4h-4zM16,56h4v4h-4zM28,56h4v4h-4zM32,56h4v4h-4zM36,56h4v4h-4zM48,56h4v4h-4zM52,56h4v4h-4zM56,56h4v4h-4zM60,56h4v4h-4zM64,56h4v4h-4zM68,56h4v4h-4zM76,56h4v4h-4zM80,56h4v4h-4zM84,56h4v4h-4zM88,56h4v4h-4zM96,56h4v4h-4zM100,56h4v4h-4zM104,56h4v4h-4zM8,60h4v4h-4zM16,60h4v4h-4zM24,60h4v4h-4zM28,60h4v4h-4zM44,60h4v4h-4zM56,60h4v4h-4zM60,60h4v4h-4zM64,60h4v4h-4zM72,60h4v4h-4zM84,60h4v4h-4zM92,60h4v4h-4zM100,60h4v4h-4zM8,64h4v4h-4zM16,64h4v4h-4zM20,64h4v4h-4zM32,64h4v4h-4zM44,64h4v4h-4zM60,64h4v4h-4zM68,64h4v4h-4zM72,64h4v4h-4zM76,64h4v4h-4zM80,64h4v4h-4zM84,64h4v4h-4zM88,64h4v4h-4zM92,64h4v4h-4zM100,64h4v4h-4zM104,64h4v4h-4zM8,68h4v4h-4zM24,68h4v4h-4zM48,68h4v4h-4zM52,68h4v4h-4zM68,68h4v4h-4zM72,68h4v4h-4zM84,68h4v4h-4zM88,68h4v4h-4zM104,68h4v4h-4zM8,72h4v4h-4zM16,72h4v4h-4zM20,72h4v4h-4zM24,72h4v4h-4zM32,72h4v4h-4zM36,72h4v4h-4zM40,72h4v4h-4zM48,72h4v4h-4zM56,72h4v4h-4zM60,72h4v4h-4zM64,72h4v4h-4zM72,72h4v4h-4zM76,72h4v4h-4zM80,72h4v4h-4zM84,72h4v4h-4zM88,72h4v4h-4zM96,72h4v4h-4zM40,76h4v4h-4zM44,76h4v4h-4zM48,76h4v4h-4zM52,76h4v4h-4zM60,76h4v4h-4zM68,76h4v4h-4zM72,76h4v4h-4zM88,76h4v4h-4zM92,76h4v4h-4zM8,80h4v4h-4zM12,80h4v4h-4zM16,80h4v4h-4zM20,80h4v4h-4zM24,80h4v4h-4zM28,80h4v4h-4zM32,80h4v4h-4zM44,80h4v4h-4zM56,80h4v4h-4zM72,80h4v4h-4zM80,80h4v4h-4zM88,80h4v4h-4zM96,80h4v4h-4zM100,80h4v4h-4zM104,80h4v4h-4zM8,84h4v4h-4zM32,84h4v4h-4zM40,84h4v4h-4zM48,84h4v4h-4zM52,84h4v4h-4zM72,84h4v4h-4zM88,84h4v4h-4zM92,84h4v4h-4zM8,88h4v4h-4zM16,88h4v4h-4zM20,88h4v4h-4zM24,88h4v4h-4zM32,88h4v4h-4zM40,88h4v4h-4zM44,88h4v4h-4zM48,88h4v4h-4zM52,88h4v4h-4zM56,88h4v4h-4zM60,88h4v4h-4zM64,88h4v4h-4zM68,88h4v4h-4zM72,88h4v4h-4zM76,88h4v4h-4zM80,88h4v4h-4zM84,88h4v4h-4zM88,88h4v4h-4zM96,88h4v4h-4zM8,92h4v4h-4zM16,92h4v4h-4zM20,92h4v4h-4zM24,92h4v4h-4zM32,92h4v4h-4zM40,92h4v4h-4zM48,92h4v4h-4zM52,92h4v4h-4zM76,92h4v4h-4zM80,92h4v4h-4zM88,92h4v4h-4zM92,92h4v4h-4zM96,92h4v4h-4zM100,92h4v4h-4zM104,92h4v4h-4zM8,96h4v4h-4zM16,96h4v4h-4zM20,96h4v4h-4zM24,96h4v4h-4zM32,96h4v4h-4zM40,96h4v4h-4zM44,96h4v4h-4zM56,96h4v4h-4zM64,96h4v4h-4zM68,96h4v4h-4zM76,96h4v4h-4zM92,96h4v4h-4zM96,96h4v4h-4zM104,96h4v4h-4zM8,100h4v4h-4zM32,100h4v4h-4zM44,100h4v4h-4zM48,100h4v4h-4zM52,100h4v4h-4zM64,100h4v4h-4zM68,100h4v4h-4zM72,100h4v4h-4zM80,100h4v4h-4zM84,100h4v4h-4zM88,100h4v4h-4zM92,100h4v4h-4zM104,100h4v4h-4zM8,104h4v4h-4zM12,104h4v4h-4zM16,104h4v4h-4zM20,104h4v4h-4zM24,104h4v4h-4zM28,104h4v4h-4zM32,104h4v4h-4zM40,104h4v4h-4zM48,104h4v4h-4zM52,104h4v4h-4zM56,104h4v4h-4zM60,104h4v4h-4zM84,104h4v4h-4zM88,104h4v4h-4zM92,104h4v4h-4zM96,104h4v4h-4zM100,104h4v4h-4zM104,104h4v4h-4z"></path></svg>