<svg xmlns="http://www.w3.org/2000/svg" viewBox="1 1 130 130"><filter id="glow">
  <feGaussianBlur stdDeviation="2"></feGaussianBlur>
  <feComposite in2="SourceGraphic" operator="over"></feComposite>
</filter><rect x="1" y="1" width="130" height="130" fill="#000000"></rect><path stroke="#40cf39" stroke-width="0.5" fill="#97ffa2" d="M8,0h8v4h-8zM9,1h6v2h-6zM10,2h4v0h-4z"></path><path stroke="#02df8a" stroke-width="0.5" fill="#97ffa2" d="M20,0h28v4h-12v4h-4v-4h-4v4h-4v-4h-4zM21,1h26v2h-12v4h-2v-4h-6v4h-2v-4h-4zM22,2h24v0h-12v4h0v-4h-8v4h0v-4h-4z"></path><path stroke="#02df8a" stroke-width="0.5" fill="#97ffa2" d="M52,0h8v4h4v8h-4v-4h-4v-4h-4zM53,1h6v4h4v6h-2v-4h-4v-4h-4zM54,2h4v4h4v4h0v-4h-4v-4h-4z"></path><path stroke="#02df8a" stroke-width="0.5" fill="#97ffa2" d="M68,0h28v4h4v-4h8v8h4v-8h12v4h-4v8h-20v-4h-4v4h-8v-4h4v-4h-4v4h-8v4h-4v8h-8v-12h4v-4h-4zM69,1h26v4h6v-4h6v8h6v-8h10v2h-4v8h-18v-4h-6v4h-6v-2h4v-6h-6v4h-8v4h-4v8h-6v-10h4v-6h-4zM70,2h24v4h8v-4h4v8h8v-8h8v0h-4v8h-16v-4h-8v4h-4v0h4v-8h-8v4h-8v4h-4v8h-4v-8h4v-8h-4z"></path><path stroke="#02df8a" stroke-width="0.5" fill="#97ffa2" d="M4,4h4v4h4v8h-8v4h-4v-12h4v0zM5,5h2v4h4v6h-8v4h-2v-10h4v-2zM6,6h0v4h4v4h-8v4h0v-8h4v-4z"></path><path stroke="#0ee427" stroke-width="0.5" fill="#97ffa2" d="M16,4h4v4h4v4h-8zM17,5h2v4h4v2h-6zM18,6h0v4h4v0h-4z"></path><path stroke="#02df8a" stroke-width="0.5" fill="#97ffa2" d="M124,4h4v4h-4zM125,5h2v2h-2zM126,6h0v0h0z"></path><path stroke="#0ee427" stroke-width="0.5" fill="#97ffa2" d="M36,8h8v4h-8zM37,9h6v2h-6zM38,10h4v0h-4z"></path><path stroke="#40cf39" stroke-width="0.5" fill="#97ffa2" d="M52,8h4v4h-4zM53,9h2v2h-2zM54,10h0v0h0z"></path><path stroke="#58dd3b" stroke-width="0.5" fill="#97ffa2" d="M128,8h4v4h-4zM129,9h2v2h-2zM130,10h0v0h0z"></path><path stroke="#0ee427" stroke-width="0.5" fill="#97ffa2" d="M80,12h4v12h-8v-4h4v0zM81,13h2v10h-6v-2h4v-2zM82,14h0v8h-4v0h4v-4z"></path><path stroke="#58dd3b" stroke-width="0.5" fill="#97ffa2" d="M16,16h28v28h-28zM20,20v20h20v-20h0zM17,17h26v26h-26zM19,19v22h22v-22h-2zM18,18h24v24h-24zM18,18v24h24v-24h-4z"></path><path stroke="#58dd3b" stroke-width="0.5" fill="#97ffa2" d="M88,16h28v28h-28zM92,20v20h20v-20h0zM89,17h26v26h-26zM91,19v22h22v-22h-2zM90,18h24v24h-24zM90,18v24h24v-24h-4z"></path><path stroke="#40cf39" stroke-width="0.5" fill="#97ffa2" d="M120,16h4v4h4v-4h4v8h-4v8h-4v-4h-4zM121,17h2v4h6v-4h2v6h-4v8h-2v-4h-4zM122,18h0v4h8v-4h0v4h-4v8h0v-4h-4z"></path><path stroke="#58dd3b" stroke-width="0.5" fill="#97ffa2" d="M8,20h4v4h-4zM9,21h2v2h-2zM10,22h0v0h0z"></path><path stroke="#58dd3b" stroke-width="0.5" fill="#97ffa2" d="M52,20h4v4h4v4h-4v4h-4v12h4v-12h8v4h-4v12h4v4h-8v-4h-8v-24h4v0zM53,21h2v4h4v2h-4v4h-4v14h6v-12h6v2h-4v14h4v2h-6v-4h-8v-22h4v-2zM54,22h0v4h4v0h-4v4h-4v16h8v-12h4v0h-4v16h4v0h-4v-4h-8v-20h4v-4z"></path><path stroke="#58dd3b" stroke-width="0.5" fill="#97ffa2" d="M64,20h4v4h-4zM65,21h2v2h-2zM66,22h0v0h0z"></path><path stroke="#0ee427" stroke-width="0.5" fill="#97ffa2" d="M24,24h12v12h-12zM25,25h10v10h-10zM26,26h8v8h-8z"></path><path stroke="#02df8a" stroke-width="0.5" fill="#97ffa2" d="M72,24h4v8h-4v4h-4v-8h4v0zM73,25h2v6h-4v4h-2v-6h4v-2zM74,26h0v4h-4v4h0v-4h4v-4z"></path><path stroke="#58dd3b" stroke-width="0.5" fill="#97ffa2" d="M96,24h12v12h-12zM97,25h10v10h-10zM98,26h8v8h-8z"></path><path stroke="#58dd3b" stroke-width="0.5" fill="#97ffa2" d="M0,28h4v4h4v4h-4v8h4v4h-4v4h-4zM1,29h2v4h4v2h-4v10h4v2h-4v4h-2zM2,30h0v4h4v0h-4v12h4v0h-4v4h0z"></path><path stroke="#40cf39" stroke-width="0.5" fill="#97ffa2" d="M80,32h4v4h-4zM81,33h2v2h-2zM82,34h0v0h0z"></path><path stroke="#58dd3b" stroke-width="0.5" fill="#97ffa2" d="M128,32h4v4h-4zM129,33h2v2h-2zM130,34h0v0h0z"></path><path stroke="#58dd3b" stroke-width="0.5" fill="#97ffa2" d="M8,36h4v8h-4zM9,37h2v6h-2zM10,38h0v4h0z"></path><path stroke="#02df8a" stroke-width="0.5" fill="#97ffa2" d="M72,36h8v4h-4v4h-4zM73,37h6v2h-4v4h-2zM74,38h4v0h-4v4h0z"></path><path stroke="#02df8a" stroke-width="0.5" fill="#97ffa2" d="M120,36h8v4h-8zM121,37h6v2h-6zM122,38h4v0h-4z"></path><path stroke="#0ee427" stroke-width="0.5" fill="#97ffa2" d="M64,40h4v4h-4zM65,41h2v2h-2zM66,42h0v0h0z"></path><path stroke="#40cf39" stroke-width="0.5" fill="#97ffa2" d="M80,40h4v8h-4zM81,41h2v6h-2zM82,42h0v4h0z"></path><path stroke="#0ee427" stroke-width="0.5" fill="#97ffa2" d="M128,40h4v4h-4zM129,41h2v2h-2zM130,42h0v0h0z"></path><path stroke="#58dd3b" stroke-width="0.5" fill="#97ffa2" d="M124,44h4v4h-4zM125,45h2v2h-2zM126,46h0v0h0z"></path><path stroke="#58dd3b" stroke-width="0.5" fill="#97ffa2" d="M12,48h8v4h-8zM13,49h6v2h-6zM14,50h4v0h-4z"></path><path stroke="#02df8a" stroke-width="0.5" fill="#97ffa2" d="M24,48h20v4h-4v4h-4v-4h-8v8h-4v4h-4v-4h-4v-4h8v0zM25,49h18v2h-4v4h-2v-4h-10v8h-4v4h-2v-4h-4v-2h8v-2zM26,50h16v0h-4v4h0v-4h-12v8h-4v4h0v-4h-4v0h8v-4z"></path><path stroke="#40cf39" stroke-width="0.5" fill="#97ffa2" d="M68,48h8v4h-8zM69,49h6v2h-6zM70,50h4v0h-4z"></path><path stroke="#40cf39" stroke-width="0.5" fill="#97ffa2" d="M88,48h20v4h-12v8h-8v-4h4v-4h-4zM89,49h18v2h-12v8h-6v-2h4v-6h-4zM90,50h16v0h-12v8h-4v0h4v-8h-4z"></path><path stroke="#02df8a" stroke-width="0.5" fill="#97ffa2" d="M116,48h8v8h-8zM117,49h6v6h-6zM118,50h4v4h-4z"></path><path stroke="#0ee427" stroke-width="0.5" fill="#97ffa2" d="M128,48h4v4h-4zM129,49h2v2h-2zM130,50h0v0h0z"></path><path stroke="#40cf39" stroke-width="0.5" fill="#97ffa2" d="M4,52h8v8h-8v4h8v4h8v16h-8v4h-4v-8h-4v8h4v4h-4v8h-4v-44h4v0zM8,72v4h4v4h4v-8h0zM5,53h6v6h-8v6h8v4h8v14h-8v4h-2v-8h-6v10h4v2h-4v8h-2v-42h4v-2zM7,71v6h4v4h6v-10h-2zM6,54h4v4h-8v8h8v4h8v12h-8v4h0v-8h-8v12h4v0h-4v8h0v-40h4v-4zM6,70v8h4v4h8v-12h-4z"></path><path stroke="#0ee427" stroke-width="0.5" fill="#97ffa2" d="M44,52h8v4h-8zM45,53h6v2h-6zM46,54h4v0h-4z"></path><path stroke="#40cf39" stroke-width="0.5" fill="#97ffa2" d="M64,52h4v4h-4zM65,53h2v2h-2zM66,54h0v0h0z"></path><path stroke="#40cf39" stroke-width="0.5" fill="#97ffa2" d="M84,52h4v4h-4zM85,53h2v2h-2zM86,54h0v0h0z"></path><path stroke="#58dd3b" stroke-width="0.5" fill="#97ffa2" d="M108,52h4v4h4v8h4v8h4v-8h-4v-4h4v-4h4v4h4v12h-4v4h4v8h-4v8h4v16h-12v-4h4v-12h-20v-4h16v-4h4v-4h-4v4h-4v-4h-4v-4h-4v-8h-4v-4h8v-4h-4zM112,68v4h4v-4h0zM109,53h2v4h4v8h4v8h6v-10h-4v-2h4v-4h2v4h4v10h-4v6h4v6h-4v10h4v14h-10v-2h4v-14h-20v-2h16v-4h4v-6h-6v4h-2v-4h-4v-4h-4v-8h-4v-2h8v-6h-4zM111,67v6h6v-6h-2zM110,54h0v4h4v8h4v8h8v-12h-4v0h4v-4h0v4h4v8h-4v8h4v4h-4v12h4v12h-8v0h4v-16h-20v0h16v-4h4v-8h-8v4h0v-4h-4v-4h-4v-8h-4v0h8v-8h-4zM110,66v8h8v-8h-4z"></path><path stroke="#02df8a" stroke-width="0.5" fill="#97ffa2" d="M32,56h4v4h-4zM33,57h2v2h-2zM34,58h0v0h0z"></path><path stroke="#0ee427" stroke-width="0.5" fill="#97ffa2" d="M40,56h4v4h-4zM41,57h2v2h-2zM42,58h0v0h0z"></path><path stroke="#0ee427" stroke-width="0.5" fill="#97ffa2" d="M52,56h8v4h-4v4h-4zM53,57h6v2h-4v4h-2zM54,58h4v0h-4v4h0z"></path><path stroke="#0ee427" stroke-width="0.5" fill="#97ffa2" d="M72,56h12v8h-4v4h-4v4h-4v4h-4v-4h-4v-4h-8v-4h4v-4h4v4h8v0zM73,57h10v6h-4v4h-4v4h-4v4h-2v-4h-4v-4h-8v-2h4v-4h2v4h10v-2zM74,58h8v4h-4v4h-4v4h-4v4h0v-4h-4v-4h-8v0h4v-4h0v4h12v-4z"></path><path stroke="#58dd3b" stroke-width="0.5" fill="#97ffa2" d="M100,56h4v4h-4zM101,57h2v2h-2zM102,58h0v0h0z"></path><path stroke="#40cf39" stroke-width="0.5" fill="#97ffa2" d="M12,60h4v4h-4zM13,61h2v2h-2zM14,62h0v0h0z"></path><path stroke="#0ee427" stroke-width="0.5" fill="#97ffa2" d="M28,60h4v4h-4zM29,61h2v2h-2zM30,62h0v0h0z"></path><path stroke="#40cf39" stroke-width="0.5" fill="#97ffa2" d="M36,60h4v4h4v-4h4v8h-8v4h-8v-4h4v0zM37,61h2v4h6v-4h2v6h-8v4h-6v-2h4v-2zM38,62h0v4h8v-4h0v4h-8v4h-4v0h4v-4z"></path><path stroke="#58dd3b" stroke-width="0.5" fill="#97ffa2" d="M24,64h4v8h4v4h-8zM25,65h2v8h4v2h-6zM26,66h0v8h4v0h-4z"></path><path stroke="#0ee427" stroke-width="0.5" fill="#97ffa2" d="M84,64h16v4h-4v4h4v-4h4v8h-4v8h4v4h-4v4h4v4h-4v4h4v-4h4v4h8v-4h4v8h-4v4h4v4h12v4h-8v4h-4v-4h-4v4h4v8h-4v4h-12v-8h-4v4h-4v-12h-4v-4h-4v-4h12v-4h-4v-4h-4v4h-4v4h-4v-8h-20v4h-8v-4h-4v4h4v4h8v4h8v4h-4v8h4v4h4v4h-8v-4h-8v-4h4v-4h-4v4h-4v-4h-4v-4h4v-4h-4v-4h-4v-16h4v4h4v-4h8v4h16v-8h-4v-4h4v-4h-4v-8h4v-4h4v4h8v-4h-8zM84,76v4h8v-4h0zM84,84v12h12v-12h0zM108,104v4h-4v4h8v-8h0zM108,124v4h4v-4h0zM85,65h14v2h-4v6h6v-4h2v6h-4v10h4v2h-4v6h4v2h-4v6h6v-4h2v4h10v-4h2v6h-4v6h4v4h12v2h-8v4h-2v-4h-6v6h4v6h-4v4h-10v-8h-6v4h-2v-12h-4v-4h-4v-2h12v-6h-4v-4h-6v4h-4v4h-2v-8h-22v4h-6v-4h-6v6h4v4h8v4h8v2h-4v10h4v4h4v2h-6v-4h-8v-2h4v-6h-6v4h-2v-4h-4v-2h4v-6h-4v-4h-4v-14h2v4h6v-4h6v4h18v-10h-4v-2h4v-6h-4v-6h4v-4h2v4h10v-6h-8zM83,75v6h10v-6h-2zM83,83v14h14v-14h-2zM107,103v4h-4v6h10v-10h-2zM107,123v6h6v-6h-2zM86,66h12v0h-4v8h8v-4h0v4h-4v12h4v0h-4v8h4v0h-4v8h8v-4h0v4h12v-4h0v4h-4v8h4v4h12v0h-8v4h0v-4h-8v8h4v4h-4v4h-8v-8h-8v4h0v-12h-4v-4h-4v0h12v-8h-4v-4h-8v4h-4v4h0v-8h-24v4h-4v-4h-8v8h4v4h8v4h8v0h-4v12h4v4h4v0h-4v-4h-8v0h4v-8h-8v4h0v-4h-4v0h4v-8h-4v-4h-4v-12h0v4h8v-4h4v4h20v-12h-4v0h4v-8h-4v-4h4v-4h0v4h12v-8h-8zM82,74v8h12v-8h-4zM82,82v16h16v-16h-4zM106,102v4h-4v8h12v-12h-4zM106,122v8h8v-8h-4z"></path><path stroke="#40cf39" stroke-width="0.5" fill="#97ffa2" d="M52,68h4v8h-4zM53,69h2v6h-2zM54,70h0v4h0z"></path><path stroke="#40cf39" stroke-width="0.5" fill="#97ffa2" d="M40,72h4v4h-4zM41,73h2v2h-2zM42,74h0v0h0z"></path><path stroke="#02df8a" stroke-width="0.5" fill="#97ffa2" d="M32,76h4v8h-12v-4h8v0zM33,77h2v6h-10v-2h8v-2zM34,78h0v4h-8v0h8v-4z"></path><path stroke="#40cf39" stroke-width="0.5" fill="#97ffa2" d="M56,76h8v4h-4v4h4v4h-8v4h-4v-4h-4v-4h-8v-4h12v4h4v0zM57,77h6v2h-4v6h4v2h-8v4h-2v-4h-4v-4h-8v-2h10v4h6v-2zM58,78h4v0h-4v8h4v0h-8v4h0v-4h-4v-4h-8v0h8v4h8v-4z"></path><path stroke="#0ee427" stroke-width="0.5" fill="#97ffa2" d="M64,80h12v4h-4v4h-4v-4h-4zM65,81h10v2h-4v4h-2v-4h-4zM66,82h8v0h-4v4h0v-4h-4z"></path><path stroke="#40cf39" stroke-width="0.5" fill="#97ffa2" d="M104,80h4v4h-4zM105,81h2v2h-2zM106,82h0v0h0z"></path><path stroke="#58dd3b" stroke-width="0.5" fill="#97ffa2" d="M16,88h28v28h-28zM20,92v20h20v-20h0zM17,89h26v26h-26zM19,91v22h22v-22h-2zM18,90h24v24h-24zM18,90v24h24v-24h-4z"></path><path stroke="#0ee427" stroke-width="0.5" fill="#97ffa2" d="M64,88h4v4h-4zM65,89h2v2h-2zM66,90h0v0h0z"></path><path stroke="#02df8a" stroke-width="0.5" fill="#97ffa2" d="M88,88h4v4h-4zM89,89h2v2h-2zM90,90h0v0h0z"></path><path stroke="#58dd3b" stroke-width="0.5" fill="#97ffa2" d="M8,96h4v20h-4v8h-4v8h-4v-20h4v-4h-4v-4h8v0zM9,97h2v18h-4v8h-4v8h-2v-18h4v-6h-4v-2h8v-2zM10,98h0v16h-4v8h-4v8h0v-16h4v-8h-4v0h8v-4z"></path><path stroke="#58dd3b" stroke-width="0.5" fill="#97ffa2" d="M24,96h12v12h-12zM25,97h10v10h-10zM26,98h8v8h-8z"></path><path stroke="#02df8a" stroke-width="0.5" fill="#97ffa2" d="M64,104h4v4h-4zM65,105h2v2h-2zM66,106h0v0h0z"></path><path stroke="#02df8a" stroke-width="0.5" fill="#97ffa2" d="M72,104h8v4h4v4h-12zM73,105h6v4h4v2h-10zM74,106h4v4h4v0h-8z"></path><path stroke="#40cf39" stroke-width="0.5" fill="#97ffa2" d="M48,112h4v4h-4zM49,113h2v2h-2zM50,114h0v0h0z"></path><path stroke="#02df8a" stroke-width="0.5" fill="#97ffa2" d="M80,116h8v8h-8zM81,117h6v6h-6zM82,118h4v4h-4z"></path><path stroke="#58dd3b" stroke-width="0.5" fill="#97ffa2" d="M16,120h4v4h12v-4h4v8h-12v4h-16v-4h4v-4h4v0zM17,121h2v4h14v-4h2v6h-12v4h-14v-2h4v-4h4v-2zM18,122h0v4h16v-4h0v4h-12v4h-12v0h4v-4h4v-4z"></path><path stroke="#58dd3b" stroke-width="0.5" fill="#97ffa2" d="M40,120h8v4h-8zM41,121h6v2h-6zM42,122h4v0h-4z"></path><path stroke="#58dd3b" stroke-width="0.5" fill="#97ffa2" d="M72,120h4v4h-4zM73,121h2v2h-2zM74,122h0v0h0z"></path><path stroke="#0ee427" stroke-width="0.5" fill="#97ffa2" d="M128,120h4v4h-4zM129,121h2v2h-2zM130,122h0v0h0z"></path><path stroke="#0ee427" stroke-width="0.5" fill="#97ffa2" d="M52,124h4v4h4v4h-8zM53,125h2v4h4v2h-6zM54,126h0v4h4v0h-4z"></path><path stroke="#02df8a" stroke-width="0.5" fill="#97ffa2" d="M76,124h4v4h-4zM77,125h2v2h-2zM78,126h0v0h0z"></path><path stroke="#02df8a" stroke-width="0.5" fill="#97ffa2" d="M88,124h4v4h-4zM89,125h2v2h-2zM90,126h0v0h0z"></path><path stroke="#58dd3b" stroke-width="0.5" fill="#97ffa2" d="M36,128h4v4h-4zM37,129h2v2h-2zM38,130h0v0h0z"></path><path stroke="#0ee427" stroke-width="0.5" fill="#97ffa2" d="M44,128h4v4h-4zM45,129h2v2h-2zM46,130h0v0h0z"></path><path stroke="#0ee427" stroke-width="0.5" fill="#97ffa2" d="M80,128h4v4h-4zM81,129h2v2h-2zM82,130h0v0h0z"></path><path stroke="#40cf39" stroke-width="0.5" fill="#97ffa2" d="M92,128h4v4h-4zM93,129h2v2h-2zM94,130h0v0h0z"></path><path stroke="#02df8a" stroke-width="0.5" fill="#97ffa2" d="M120,128h4v4h-4zM121,129h2v2h-2zM122,130h0v0h0z"></path><path stroke="#02df8a" stroke-width="0.5" fill="#97ffa2" d="M128,128h4v4h-4zM129,129h2v2h-2zM130,130h0v0h0z"></path></svg>