<svg xmlns="http://www.w3.org/2000/svg" viewBox="0 0 580 580"><rect width="580" height="580" fill="#000000"></rect><path fill="#ad1010" d="M302,42h36v16h-36zM42,62h16v116h-16zM202,82h16v116h-16zM302,102h16v36h-16zM362,162h16v36h-16zM402,202h96v16h-96zM142,222h16v16h-16zM282,222h16v16h-16zM382,222h16v16h-16zM502,222h16v36h-16zM122,242h16v16h-16zM222,242h36v16h-36zM402,242h16v16h-16zM182,262h16v36h-16zM242,282h16v16h-16zM122,302h16v16h-16zM362,302h16v156h-16zM462,302h16v36h-16zM302,322h16v16h-16zM442,322h16v156h-16zM522,322h16v36h-16zM122,342h16v36h-16zM242,362h16v36h-16zM382,362h36v16h-36zM202,382h36v16h-36zM462,382h16v16h-16zM42,402h136v16h-136zM502,462h36v16h-36zM282,482h16v16h-16zM322,482h36v36h-36zM522,482h16v56h-16zM362,502h16v16h-16zM402,502h56v16h-56zM482,522h36v16h-36z"></path><path fill="#172fce" d="M42,42h136v16h-136zM162,62h16v116h-16zM222,62h16v56h-16zM402,62h16v116h-16zM522,62h16v116h-16zM82,82h56v56h-56zM442,82h56v56h-56zM242,122h36v16h-36zM362,122h16v16h-16zM322,142h36v16h-36zM62,162h96v16h-96zM322,162h16v16h-16zM422,162h96v16h-96zM42,202h16v16h-16zM82,202h96v16h-96zM262,202h16v16h-16zM82,222h16v36h-16zM162,242h16v16h-16zM322,242h56v36h-56zM462,242h16v16h-16zM522,242h16v56h-16zM102,262h16v16h-16zM142,262h16v56h-16zM162,282h16v16h-16zM282,282h76v16h-76zM42,302h16v76h-16zM422,302h16v76h-16zM102,322h16v16h-16zM162,322h16v16h-16zM342,322h16v36h-16zM382,322h36v16h-36zM162,362h56v16h-56zM282,362h56v16h-56zM262,382h16v16h-16zM222,402h16v16h-16zM282,402h16v16h-16zM402,402h16v16h-16zM482,402h56v16h-56zM462,422h16v16h-16zM82,442h56v56h-56zM382,462h36v16h-36zM462,462h16v76h-16zM222,482h16v36h-16zM282,522h36v16h-36z"></path><path fill="#b39906" d="M362,42h16v36h-16zM402,42h136v16h-136zM282,62h16v16h-16zM342,62h16v16h-16zM242,82h16v16h-16zM322,82h16v36h-16zM242,142h16v76h-16zM282,162h16v16h-16zM222,182h16v16h-16zM302,202h36v16h-36zM182,222h36v16h-36zM422,222h16v36h-16zM42,242h36v16h-36zM62,262h16v16h-16zM222,262h16v16h-16zM262,262h16v36h-16zM82,282h16v56h-16zM382,282h76v16h-76zM482,282h36v16h-36zM222,302h16v36h-16zM282,302h56v16h-56zM502,302h16v36h-16zM242,342h36v16h-36zM82,362h36v16h-36zM482,362h16v16h-16zM302,382h16v16h-16zM342,382h16v16h-16zM42,422h16v116h-16zM162,422h16v116h-16zM202,422h16v76h-16zM242,422h36v56h-36zM222,442h16v16h-16zM282,442h76v16h-76zM382,442h56v16h-56zM482,442h16v56h-16zM382,482h16v16h-16zM242,502h36v36h-36zM62,522h96v16h-96zM202,522h16v16h-16zM422,522h36v16h-36z"></path><path fill="#ffffff" d="M2,2h576v36h-576zM2,42h36v536h-36zM182,42h116v16h-116zM342,42h16v16h-16zM382,42h16v176h-16zM542,42h36v536h-36zM62,62h96v16h-96zM182,62h36v16h-36zM242,62h36v16h-36zM302,62h36v16h-36zM422,62h96v16h-96zM62,82h16v76h-16zM142,82h16v76h-16zM182,82h16v136h-16zM262,82h56v16h-56zM342,82h36v36h-36zM422,82h16v76h-16zM502,82h16v76h-16zM242,102h56v16h-56zM222,122h16v56h-16zM282,122h16v36h-16zM322,122h36v16h-36zM82,142h56v16h-56zM262,142h16v56h-16zM302,142h16v56h-16zM362,142h16v16h-16zM442,142h56v16h-56zM342,162h16v76h-16zM42,182h136v16h-136zM282,182h16v36h-16zM322,182h16v16h-16zM402,182h136v16h-136zM62,202h16v36h-16zM202,202h36v16h-36zM362,202h16v36h-16zM502,202h36v16h-36zM42,222h16v16h-16zM102,222h36v16h-36zM162,222h16v16h-16zM222,222h56v16h-56zM302,222h36v16h-36zM402,222h16v16h-16zM442,222h56v16h-56zM522,222h16v16h-16zM102,242h16v16h-16zM142,242h16v16h-16zM182,242h36v16h-36zM262,242h56v16h-56zM382,242h16v36h-16zM442,242h16v36h-16zM482,242h16v36h-16zM42,262h16v36h-16zM82,262h16v16h-16zM122,262h16v36h-16zM162,262h16v16h-16zM202,262h16v96h-16zM242,262h16v16h-16zM282,262h36v16h-36zM402,262h36v16h-36zM462,262h16v36h-16zM502,262h16v16h-16zM62,282h16v116h-16zM102,282h16v36h-16zM222,282h16v16h-16zM362,282h16v16h-16zM162,302h36v16h-36zM242,302h36v36h-36zM342,302h16v16h-16zM382,302h36v16h-36zM442,302h16v16h-16zM482,302h16v56h-16zM522,302h16v16h-16zM122,322h36v16h-36zM182,322h16v36h-16zM282,322h16v36h-16zM322,322h16v36h-16zM82,342h36v16h-36zM142,342h36v16h-36zM222,342h16v36h-16zM302,342h16v16h-16zM382,342h36v16h-36zM462,342h16v36h-16zM502,342h16v56h-16zM142,362h16v36h-16zM262,362h16v16h-16zM342,362h16v16h-16zM522,362h16v36h-16zM42,382h16v16h-16zM82,382h56v16h-56zM162,382h36v16h-36zM282,382h16v16h-16zM322,382h16v56h-16zM382,382h56v16h-56zM482,382h16v16h-16zM182,402h36v16h-36zM242,402h36v16h-36zM302,402h16v36h-16zM342,402h16v36h-16zM382,402h16v36h-16zM422,402h16v36h-16zM462,402h16v16h-16zM62,422h96v16h-96zM182,422h16v156h-16zM222,422h16v16h-16zM282,422h16v16h-16zM402,422h16v16h-16zM482,422h56v16h-56zM62,442h16v76h-16zM142,442h16v76h-16zM462,442h16v16h-16zM502,442h36v16h-36zM222,462h16v16h-16zM282,462h96v16h-96zM422,462h16v36h-16zM242,482h36v16h-36zM302,482h16v36h-16zM362,482h16v16h-16zM402,482h16v16h-16zM442,482h16v16h-16zM502,482h16v36h-16zM82,502h56v16h-56zM202,502h16v16h-16zM282,502h16v16h-16zM382,502h16v76h-16zM482,502h16v16h-16zM222,522h16v56h-16zM322,522h56v56h-56zM402,522h16v56h-16zM42,542h136v36h-136zM202,542h16v36h-16zM242,542h76v36h-76zM422,542h116v36h-116z"></path></svg>