<svg xmlns="http://www.w3.org/2000/svg" viewBox="-2 -2 29 29"><rect x="-2" y="-2" width="29" height="29" fill="#ffffff"></rect><g fill="#000000"><circle cx="3.5" cy="3.5" r="1.5"></circle><circle cx="3.5" cy="0.5" r="0.5"></circle><circle cx="0.5" cy="3.5" r="0.5"></circle><circle cx="6.5" cy="3.5" r="0.5"></circle><circle cx="3.5" cy="6.5" r="0.5"></circle><path fill="none" stroke-width="0.1" stroke="#000000" d="M7.415,1.25a0.98,1.5 60,0,1 -7.83,4.5a0.98,1.5 60,0,1 7.83,-4.5M7.415,5.75a1.5,0.98 30,0,1 -7.83,-4.5a1.5,0.98 30,0,1 7.83,4.5M3.5,-1a0.98,1.5 0,0,1 0,9a0.98,1.5 0,0,1 0,-9"></path></g><g fill="#000000"><circle cx="21.5" cy="3.5" r="1.5"></circle><circle cx="21.5" cy="0.5" r="0.5"></circle><circle cx="18.5" cy="3.5" r="0.5"></circle><circle cx="24.5" cy="3.5" r="0.5"></circle><circle cx="21.5" cy="6.5" r="0.5"></circle><path fill="none" stroke-width="0.1" stroke="#000000" d="M25.415,1.25a0.98,1.5 60,0,1 -7.83,4.5a0.98,1.5 60,0,1 7.83,-4.5M25.415,5.75a1.5,0.98 30,0,1 -7.83,-4.5a1.5,0.98 30,0,1 7.83,4.5M21.5,-1a0.98,1.5 0,0,1 0,9a0.98,1.5 0,0,1 0,-9"></path></g><g fill="#000000"><circle cx="3.5" cy="21.5" r="1.5"></circle><circle cx="3.5" cy="18.5" r="0.5"></circle><circle cx="0.5" cy="21.5" r="0.5"></circle><circle cx="6.5" cy="21.5" r="0.5"></circle><circle cx="3.5" cy="24.5" r="0.5"></circle><path fill="none" stroke-width="0.1" stroke="#000000" d="M7.415,19.25a0.98,1.5 60,0,1 -7.83,4.5a0.98,1.5 60,0,1 7.83,-4.5M7.415,23.75a1.5,0.98 30,0,1 -7.83,-4.5a1.5,0.98 30,0,1 7.83,4.5M3.5,17a0.98,1.5 0,0,1 0,9a0.98,1.5 0,0,1 0,-9"></path></g><g stroke="#000000"><path fill="none" stroke-width="0.1" d="M8,2.55a1,.35 -2.7,0,1 3,0a1,.35 -2.7,0,1 -3,0M9.5,1a.35,1 -2.7,0,1 0,3a.35,1 -2.7,0,1 0,-3M4.5,8.5a1.4,.35 36.21,0,1 2,2a1.4,.35 36.21,0,1 -2,-2M6.5,8.5a.35,1.4 36.21,0,1 -2,2a.35,1.4 36.21,0,1 2,-2M14,11.55a1,.35 -5.8,0,1 3,0a1,.35 -5.8,0,1 -3,0M15.5,10a.35,1 -5.8,0,1 0,3a.35,1 -5.8,0,1 0,-3M12,13.55a1,.35 -3.43,0,1 3,0a1,.35 -3.43,0,1 -3,0M13.5,12a.35,1 -3.43,0,1 0,3a.35,1 -3.43,0,1 0,-3M18.5,12.5a1.4,.35 47.47,0,1 2,2a1.4,.35 47.47,0,1 -2,-2M20.5,12.5a.35,1.4 47.47,0,1 -2,2a.35,1.4 47.47,0,1 2,-2M15,14.55a1,.35 6.04,0,1 3,0a1,.35 6.04,0,1 -3,0M16.5,13a.35,1 6.04,0,1 0,3a.35,1 6.04,0,1 0,-3M20.5,16.5a1.4,.35 41.27,0,1 2,2a1.4,.35 41.27,0,1 -2,-2M22.5,16.5a.35,1.4 41.27,0,1 -2,2a.35,1.4 41.27,0,1 2,-2M8.5,17.5a1.4,.35 46.63,0,1 2,2a1.4,.35 46.63,0,1 -2,-2M10.5,17.5a.35,1.4 46.63,0,1 -2,2a.35,1.4 46.63,0,1 2,-2M10,20.55a1,.35 4.47,0,1 3,0a1,.35 4.47,0,1 -3,0M11.5,19a.35,1 4.47,0,1 0,3a.35,1 4.47,0,1 0,-3M21,21.55a1,.35 5.17,0,1 3,0a1,.35 5.17,0,1 -3,0M22.5,20a.35,1 5.17,0,1 0,3a.35,1 5.17,0,1 0,-3"></path></g><g fill="#000000"><circle cx="13.5" cy="0.5" r="0.46"></circle><circle cx="14.5" cy="0.5" r="0.42"></circle><circle cx="16.5" cy="0.5" r="0.32"></circle><circle cx="9.5" cy="1.5" r="0.2"></circle><circle cx="8.5" cy="2.5" r="0.2"></circle><circle cx="9.5" cy="2.5" r="0.32"></circle><circle cx="10.5" cy="2.5" r="0.2"></circle><circle cx="9.5" cy="3.5" r="0.2"></circle><circle cx="12.5" cy="1.5" r="0.43"></circle><circle cx="15.5" cy="1.5" r="0.41"></circle><circle cx="16.5" cy="1.5" r="0.37"></circle><circle cx="14.5" cy="2.5" r="0.49"></circle><circle cx="8.5" cy="3.5" r="0.37"></circle><circle cx="13.5" cy="3.5" r="0.37"></circle><circle cx="14.5" cy="3.5" r="0.44"></circle><circle cx="8.5" cy="4.5" r="0.44"></circle><circle cx="10.5" cy="4.5" r="0.33"></circle><circle cx="11.5" cy="4.5" r="0.47"></circle><circle cx="13.5" cy="4.5" r="0.3"></circle><circle cx="16.5" cy="4.5" r="0.34"></circle><circle cx="8.5" cy="5.5" r="0.35"></circle><circle cx="10.5" cy="5.5" r="0.46"></circle><circle cx="14.5" cy="5.5" r="0.47"></circle><circle cx="15.5" cy="5.5" r="0.43"></circle><circle cx="8.5" cy="6.5" r="0.42"></circle><circle cx="10.5" cy="6.5" r="0.42"></circle><circle cx="12.5" cy="6.5" r="0.43"></circle><circle cx="14.5" cy="6.5" r="0.36"></circle><circle cx="16.5" cy="6.5" r="0.46"></circle><circle cx="8.5" cy="7.5" r="0.3"></circle><circle cx="9.5" cy="7.5" r="0.49"></circle><circle cx="10.5" cy="7.5" r="0.41"></circle><circle cx="16.5" cy="7.5" r="0.34"></circle><circle cx="0.5" cy="8.5" r="0.44"></circle><circle cx="2.5" cy="8.5" r="0.36"></circle><circle cx="3.5" cy="8.5" r="0.43"></circle><circle cx="4.5" cy="8.5" r="0.2"></circle><circle cx="6.5" cy="8.5" r="0.2"></circle><circle cx="5.5" cy="9.5" r="0.39"></circle><circle cx="4.5" cy="10.5" r="0.2"></circle><circle cx="6.5" cy="10.5" r="0.2"></circle><circle cx="5.5" cy="8.5" r="0.49"></circle><circle cx="10.5" cy="8.5" r="0.3"></circle><circle cx="11.5" cy="8.5" r="0.38"></circle><circle cx="13.5" cy="8.5" r="0.35"></circle><circle cx="14.5" cy="8.5" r="0.32"></circle><circle cx="18.5" cy="8.5" r="0.31"></circle><circle cx="19.5" cy="8.5" r="0.31"></circle><circle cx="20.5" cy="8.5" r="0.45"></circle><circle cx="21.5" cy="8.5" r="0.31"></circle><circle cx="22.5" cy="8.5" r="0.42"></circle><circle cx="2.5" cy="9.5" r="0.41"></circle><circle cx="7.5" cy="9.5" r="0.44"></circle><circle cx="8.5" cy="9.5" r="0.44"></circle><circle cx="12.5" cy="9.5" r="0.44"></circle><circle cx="17.5" cy="9.5" r="0.46"></circle><circle cx="19.5" cy="9.5" r="0.37"></circle><circle cx="23.5" cy="9.5" r="0.47"></circle><circle cx="0.5" cy="10.5" r="0.4"></circle><circle cx="1.5" cy="10.5" r="0.49"></circle><circle cx="2.5" cy="10.5" r="0.42"></circle><circle cx="9.5" cy="10.5" r="0.42"></circle><circle cx="10.5" cy="10.5" r="0.45"></circle><circle cx="15.5" cy="10.5" r="0.2"></circle><circle cx="14.5" cy="11.5" r="0.2"></circle><circle cx="15.5" cy="11.5" r="0.43"></circle><circle cx="16.5" cy="11.5" r="0.2"></circle><circle cx="15.5" cy="12.5" r="0.2"></circle><circle cx="14.5" cy="10.5" r="0.45"></circle><circle cx="16.5" cy="10.5" r="0.3"></circle><circle cx="18.5" cy="10.5" r="0.49"></circle><circle cx="19.5" cy="10.5" r="0.38"></circle><circle cx="21.5" cy="10.5" r="0.31"></circle><circle cx="23.5" cy="10.5" r="0.46"></circle><circle cx="24.5" cy="10.5" r="0.3"></circle><circle cx="1.5" cy="11.5" r="0.32"></circle><circle cx="3.5" cy="11.5" r="0.41"></circle><circle cx="5.5" cy="11.5" r="0.4"></circle><circle cx="7.5" cy="11.5" r="0.35"></circle><circle cx="9.5" cy="11.5" r="0.37"></circle><circle cx="11.5" cy="11.5" r="0.47"></circle><circle cx="24.5" cy="11.5" r="0.48"></circle><circle cx="2.5" cy="12.5" r="0.4"></circle><circle cx="5.5" cy="12.5" r="0.49"></circle><circle cx="6.5" cy="12.5" r="0.45"></circle><circle cx="7.5" cy="12.5" r="0.34"></circle><circle cx="10.5" cy="12.5" r="0.45"></circle><circle cx="11.5" cy="12.5" r="0.39"></circle><circle cx="13.5" cy="12.5" r="0.2"></circle><circle cx="12.5" cy="13.5" r="0.2"></circle><circle cx="13.5" cy="13.5" r="0.48"></circle><circle cx="14.5" cy="13.5" r="0.2"></circle><circle cx="13.5" cy="14.5" r="0.2"></circle><circle cx="12.5" cy="12.5" r="0.4"></circle><circle cx="14.5" cy="12.5" r="0.38"></circle><circle cx="17.5" cy="12.5" r="0.43"></circle><circle cx="18.5" cy="12.5" r="0.2"></circle><circle cx="20.5" cy="12.5" r="0.2"></circle><circle cx="19.5" cy="13.5" r="0.32"></circle><circle cx="18.5" cy="14.5" r="0.2"></circle><circle cx="20.5" cy="14.5" r="0.2"></circle><circle cx="19.5" cy="12.5" r="0.44"></circle><circle cx="22.5" cy="12.5" r="0.39"></circle><circle cx="23.5" cy="12.5" r="0.39"></circle><circle cx="24.5" cy="12.5" r="0.45"></circle><circle cx="0.5" cy="13.5" r="0.47"></circle><circle cx="2.5" cy="13.5" r="0.33"></circle><circle cx="4.5" cy="13.5" r="0.4"></circle><circle cx="5.5" cy="13.5" r="0.47"></circle><circle cx="9.5" cy="13.5" r="0.36"></circle><circle cx="16.5" cy="13.5" r="0.2"></circle><circle cx="15.5" cy="14.5" r="0.2"></circle><circle cx="16.5" cy="14.5" r="0.3"></circle><circle cx="17.5" cy="14.5" r="0.2"></circle><circle cx="16.5" cy="15.5" r="0.2"></circle><circle cx="21.5" cy="13.5" r="0.33"></circle><circle cx="23.5" cy="13.5" r="0.41"></circle><circle cx="0.5" cy="14.5" r="0.46"></circle><circle cx="2.5" cy="14.5" r="0.33"></circle><circle cx="3.5" cy="14.5" r="0.3"></circle><circle cx="6.5" cy="14.5" r="0.43"></circle><circle cx="9.5" cy="14.5" r="0.43"></circle><circle cx="19.5" cy="14.5" r="0.35"></circle><circle cx="21.5" cy="14.5" r="0.39"></circle><circle cx="23.5" cy="14.5" r="0.34"></circle><circle cx="24.5" cy="14.5" r="0.36"></circle><circle cx="0.5" cy="15.5" r="0.32"></circle><circle cx="4.5" cy="15.5" r="0.47"></circle><circle cx="10.5" cy="15.5" r="0.31"></circle><circle cx="11.5" cy="15.5" r="0.44"></circle><circle cx="15.5" cy="15.5" r="0.34"></circle><circle cx="19.5" cy="15.5" r="0.38"></circle><circle cx="20.5" cy="15.5" r="0.49"></circle><circle cx="24.5" cy="15.5" r="0.46"></circle><circle cx="0.5" cy="16.5" r="0.3"></circle><circle cx="2.5" cy="16.5" r="0.39"></circle><circle cx="3.5" cy="16.5" r="0.36"></circle><circle cx="4.5" cy="16.5" r="0.36"></circle><circle cx="6.5" cy="16.5" r="0.32"></circle><circle cx="7.5" cy="16.5" r="0.43"></circle><circle cx="8.5" cy="16.5" r="0.39"></circle><circle cx="10.5" cy="16.5" r="0.32"></circle><circle cx="12.5" cy="16.5" r="0.48"></circle><circle cx="13.5" cy="16.5" r="0.47"></circle><circle cx="14.5" cy="16.5" r="0.49"></circle><circle cx="16.5" cy="16.5" r="0.37"></circle><circle cx="17.5" cy="16.5" r="0.35"></circle><circle cx="18.5" cy="16.5" r="0.31"></circle><circle cx="19.5" cy="16.5" r="0.37"></circle><circle cx="20.5" cy="16.5" r="0.2"></circle><circle cx="22.5" cy="16.5" r="0.2"></circle><circle cx="21.5" cy="17.5" r="0.44"></circle><circle cx="20.5" cy="18.5" r="0.2"></circle><circle cx="22.5" cy="18.5" r="0.2"></circle><circle cx="8.5" cy="17.5" r="0.2"></circle><circle cx="10.5" cy="17.5" r="0.2"></circle><circle cx="9.5" cy="18.5" r="0.36"></circle><circle cx="8.5" cy="19.5" r="0.2"></circle><circle cx="10.5" cy="19.5" r="0.2"></circle><circle cx="9.5" cy="17.5" r="0.45"></circle><circle cx="11.5" cy="17.5" r="0.48"></circle><circle cx="13.5" cy="17.5" r="0.44"></circle><circle cx="15.5" cy="17.5" r="0.35"></circle><circle cx="16.5" cy="17.5" r="0.4"></circle><circle cx="20.5" cy="17.5" r="0.4"></circle><circle cx="12.5" cy="18.5" r="0.3"></circle><circle cx="16.5" cy="18.5" r="0.37"></circle><circle cx="18.5" cy="18.5" r="0.33"></circle><circle cx="23.5" cy="18.5" r="0.4"></circle><circle cx="24.5" cy="18.5" r="0.44"></circle><circle cx="11.5" cy="19.5" r="0.2"></circle><circle cx="10.5" cy="20.5" r="0.2"></circle><circle cx="11.5" cy="20.5" r="0.44"></circle><circle cx="12.5" cy="20.5" r="0.2"></circle><circle cx="11.5" cy="21.5" r="0.2"></circle><circle cx="16.5" cy="19.5" r="0.42"></circle><circle cx="20.5" cy="19.5" r="0.48"></circle><circle cx="21.5" cy="19.5" r="0.41"></circle><circle cx="8.5" cy="20.5" r="0.43"></circle><circle cx="9.5" cy="20.5" r="0.46"></circle><circle cx="13.5" cy="20.5" r="0.36"></circle><circle cx="14.5" cy="20.5" r="0.41"></circle><circle cx="15.5" cy="20.5" r="0.43"></circle><circle cx="16.5" cy="20.5" r="0.37"></circle><circle cx="17.5" cy="20.5" r="0.39"></circle><circle cx="18.5" cy="20.5" r="0.36"></circle><circle cx="19.5" cy="20.5" r="0.35"></circle><circle cx="20.5" cy="20.5" r="0.41"></circle><circle cx="22.5" cy="20.5" r="0.2"></circle><circle cx="21.5" cy="21.5" r="0.2"></circle><circle cx="22.5" cy="21.5" r="0.31"></circle><circle cx="23.5" cy="21.5" r="0.2"></circle><circle cx="22.5" cy="22.5" r="0.2"></circle><circle cx="8.5" cy="21.5" r="0.43"></circle><circle cx="10.5" cy="21.5" r="0.36"></circle><circle cx="17.5" cy="21.5" r="0.31"></circle><circle cx="18.5" cy="21.5" r="0.46"></circle><circle cx="20.5" cy="21.5" r="0.49"></circle><circle cx="24.5" cy="21.5" r="0.45"></circle><circle cx="8.5" cy="22.5" r="0.31"></circle><circle cx="9.5" cy="22.5" r="0.36"></circle><circle cx="12.5" cy="22.5" r="0.46"></circle><circle cx="14.5" cy="22.5" r="0.47"></circle><circle cx="15.5" cy="22.5" r="0.34"></circle><circle cx="17.5" cy="22.5" r="0.36"></circle><circle cx="21.5" cy="22.5" r="0.32"></circle><circle cx="24.5" cy="22.5" r="0.4"></circle><circle cx="9.5" cy="23.5" r="0.34"></circle><circle cx="10.5" cy="23.5" r="0.42"></circle><circle cx="11.5" cy="23.5" r="0.39"></circle><circle cx="14.5" cy="23.5" r="0.33"></circle><circle cx="15.5" cy="23.5" r="0.42"></circle><circle cx="16.5" cy="23.5" r="0.46"></circle><circle cx="18.5" cy="23.5" r="0.32"></circle><circle cx="19.5" cy="23.5" r="0.42"></circle><circle cx="20.5" cy="23.5" r="0.49"></circle><circle cx="21.5" cy="23.5" r="0.3"></circle><circle cx="24.5" cy="23.5" r="0.3"></circle><circle cx="8.5" cy="24.5" r="0.43"></circle><circle cx="10.5" cy="24.5" r="0.43"></circle><circle cx="11.5" cy="24.5" r="0.3"></circle><circle cx="12.5" cy="24.5" r="0.34"></circle><circle cx="13.5" cy="24.5" r="0.3"></circle><circle cx="19.5" cy="24.5" r="0.41"></circle><circle cx="20.5" cy="24.5" r="0.33"></circle><circle cx="21.5" cy="24.5" r="0.48"></circle><circle cx="22.5" cy="24.5" r="0.41"></circle><circle cx="23.5" cy="24.5" r="0.44"></circle><circle cx="24.5" cy="24.5" r="0.34"></circle></g></svg>