<svg xmlns="http://www.w3.org/2000/svg" viewBox="0 0 580 580"><rect width="580" height="580" fill="#000000"></rect><path fill="#99521f" d="M41,41h18v138h-18zM361,61h18v78h-18zM81,81h18v58h-18zM221,81h18v18h-18zM261,81h18v18h-18zM321,81h18v58h-18zM441,81h18v58h-18zM221,121h58v18h-58zM41,201h18v18h-18zM121,201h18v18h-18zM181,201h18v18h-18zM521,201h18v18h-18zM141,221h18v18h-18zM281,221h18v158h-18zM301,221h58v18h-58zM381,221h18v18h-18zM441,221h18v18h-18zM61,241h38v18h-38zM141,241h38v18h-38zM321,241h18v38h-18zM341,241h18v18h-18zM421,241h18v18h-18zM461,241h38v18h-38zM61,261h18v18h-18zM181,261h18v18h-18zM341,261h18v18h-18zM481,261h18v38h-18zM501,261h18v18h-18zM461,281h18v18h-18zM181,301h18v18h-18zM221,321h58v18h-58zM461,321h38v18h-38zM61,361h18v18h-18zM121,361h18v18h-18zM201,381h18v38h-18zM221,401h18v18h-18zM261,401h18v18h-18zM401,401h18v18h-18zM161,421h18v118h-18zM461,421h78v18h-78zM381,441h58v18h-58zM101,461h38v18h-38zM381,461h58v18h-58zM501,461h38v18h-38zM101,481h38v18h-38zM221,481h18v18h-18zM401,481h18v18h-18zM501,481h18v18h-18zM281,501h18v38h-18zM61,521h98v18h-98zM221,521h58v18h-58zM341,521h18v18h-18zM481,521h18v18h-18zM501,521h38v18h-38z"></path><path fill="#573100" d="M61,41h118v18h-118zM341,41h38v18h-38zM161,61h18v118h-18zM281,61h18v58h-18zM521,61h18v118h-18zM101,81h38v18h-38zM461,81h38v18h-38zM101,101h38v18h-38zM341,121h18v18h-18zM461,121h38v18h-38zM221,141h38v18h-38zM301,141h18v18h-18zM241,161h18v18h-18zM281,161h18v38h-18zM421,161h98v18h-98zM381,201h98v18h-98zM221,221h18v18h-18zM461,221h18v18h-18zM501,221h18v18h-18zM261,241h18v18h-18zM221,261h38v18h-38zM381,261h38v18h-38zM61,301h18v18h-18zM101,301h58v18h-58zM341,301h38v18h-38zM501,301h18v18h-18zM81,321h18v18h-18zM301,321h18v18h-18zM421,321h18v18h-18zM481,341h18v38h-18zM501,341h18v18h-18zM321,381h18v18h-18zM41,401h18v138h-18zM81,441h18v58h-18zM101,441h38v18h-38zM201,441h18v18h-18zM241,441h18v58h-18zM461,441h38v18h-38zM481,461h18v18h-18zM261,481h18v18h-18zM321,481h18v58h-18zM341,481h38v18h-38zM381,501h18v18h-18z"></path><path fill="#c45104" d="M201,41h18v18h-18zM221,41h18v18h-18zM401,41h18v138h-18zM421,41h118v18h-118zM301,61h38v18h-38zM201,101h18v118h-18zM221,101h58v18h-58zM301,101h18v18h-18zM461,101h38v18h-38zM101,121h38v18h-38zM61,161h98v18h-98zM321,161h18v18h-18zM361,161h18v18h-18zM221,181h18v18h-18zM261,181h18v18h-18zM161,201h18v18h-18zM221,201h58v18h-58zM341,201h18v18h-18zM61,221h18v18h-18zM101,221h18v18h-18zM221,241h18v18h-18zM381,241h18v18h-18zM41,261h18v18h-18zM101,261h38v18h-38zM61,281h18v18h-18zM101,281h18v18h-18zM141,281h38v18h-38zM201,281h18v38h-18zM221,281h58v18h-58zM381,281h38v18h-38zM501,281h38v18h-38zM41,301h18v18h-18zM441,301h18v158h-18zM101,321h78v18h-78zM341,321h18v18h-18zM141,341h18v18h-18zM341,341h18v18h-18zM381,341h58v18h-58zM41,361h18v18h-18zM161,361h18v18h-18zM221,361h38v18h-38zM341,361h98v18h-98zM461,361h18v18h-18zM241,381h18v38h-18zM261,381h18v18h-18zM361,381h18v78h-18zM61,401h118v18h-118zM281,421h18v38h-18zM261,441h18v18h-18zM221,461h18v18h-18zM261,461h18v18h-18zM301,461h58v18h-58zM461,481h18v18h-18zM221,501h18v18h-18zM341,501h18v18h-18zM421,501h98v18h-98zM201,521h18v18h-18z"></path><path fill="#f5d5a6" d="M21,1h558v18h-558zM381,41h18v18h-18zM21,61h18v18h-18zM141,81h18v18h-18zM381,81h18v18h-18zM501,81h18v18h-18zM181,101h18v18h-18zM381,101h18v18h-18zM21,121h18v18h-18zM141,121h18v18h-18zM381,121h18v18h-18zM501,121h18v18h-18zM541,121h38v18h-38zM21,141h18v18h-18zM261,141h18v18h-18zM321,141h18v18h-18zM421,141h98v18h-98zM181,161h18v18h-18zM221,161h18v18h-18zM141,201h18v18h-18zM281,201h18v18h-18zM301,201h38v18h-38zM501,201h18v18h-18zM81,221h18v18h-18zM121,221h18v38h-18zM161,221h18v18h-18zM541,221h38v18h-38zM181,241h38v18h-38zM501,241h18v18h-18zM21,261h18v18h-18zM201,261h18v18h-18zM421,261h18v18h-18zM181,281h18v18h-18zM521,301h18v118h-18zM361,321h18v38h-18zM21,341h118v18h-118zM161,341h18v18h-18zM181,341h98v18h-98zM301,341h18v18h-18zM541,341h38v18h-38zM81,361h18v38h-18zM501,361h18v18h-18zM221,381h18v18h-18zM461,381h58v18h-58zM21,401h18v18h-18zM381,401h18v18h-18zM421,401h18v18h-18zM541,401h38v18h-38zM181,421h98v18h-98zM21,441h18v18h-18zM61,461h18v18h-18zM361,461h18v18h-18zM441,461h18v38h-18zM481,481h18v18h-18zM521,481h18v38h-18zM21,501h18v18h-18zM261,501h18v18h-18zM301,501h18v18h-18zM361,501h18v78h-18zM401,501h18v78h-18zM381,521h18v18h-18zM421,541h158v18h-158z"></path><path fill="#f1caca" d="M1,1h18v578h-18zM181,41h18v18h-18zM241,41h18v58h-18zM261,41h78v18h-78zM541,41h38v18h-38zM61,61h98v18h-98zM261,61h18v18h-18zM341,61h18v18h-18zM381,61h18v18h-18zM541,61h38v18h-38zM21,81h18v18h-18zM421,81h18v18h-18zM541,81h38v18h-38zM21,101h18v18h-18zM141,101h18v18h-18zM341,101h18v18h-18zM421,101h18v18h-18zM541,101h38v18h-38zM181,121h18v18h-18zM301,121h18v18h-18zM421,121h18v18h-18zM541,141h38v18h-38zM261,161h18v18h-18zM301,161h18v18h-18zM541,161h38v18h-38zM301,181h278v18h-278zM21,201h18v18h-18zM61,201h58v18h-58zM541,201h38v18h-38zM21,221h38v18h-38zM181,221h38v18h-38zM541,241h38v18h-38zM261,261h18v18h-18zM121,281h18v18h-18zM301,281h58v18h-58zM421,281h18v18h-18zM21,301h18v18h-18zM461,301h38v18h-38zM21,321h58v18h-58zM461,341h18v18h-18zM101,361h18v18h-18zM181,361h38v18h-38zM301,361h18v18h-18zM101,381h98v18h-98zM301,381h18v18h-18zM181,401h18v18h-18zM301,401h58v18h-58zM61,421h98v18h-98zM301,421h58v18h-58zM541,421h38v18h-38zM141,441h18v18h-18zM181,441h18v18h-18zM301,441h58v18h-58zM141,461h18v18h-18zM181,461h38v18h-38zM461,461h18v18h-18zM141,481h18v18h-18zM181,481h38v18h-38zM301,481h18v18h-18zM541,481h38v18h-38zM61,501h98v18h-98zM181,501h38v18h-38zM21,521h18v18h-18zM181,521h18v18h-18zM21,541h338v18h-338zM381,561h18v18h-18zM421,561h158v18h-158z"></path><path fill="#f5e7ba" d="M21,21h558v18h-558zM21,41h18v18h-18zM181,61h58v18h-58zM421,61h98v18h-98zM61,81h18v18h-18zM181,81h38v18h-38zM301,81h18v18h-18zM341,81h18v18h-18zM61,101h18v18h-18zM501,101h18v18h-18zM61,121h18v18h-18zM281,121h18v38h-18zM61,141h98v18h-98zM181,141h18v18h-18zM341,141h58v18h-58zM21,161h18v18h-18zM341,161h18v18h-18zM381,161h18v18h-18zM21,181h178v18h-178zM241,181h18v18h-18zM361,201h18v98h-18zM481,201h18v38h-18zM241,221h18v38h-18zM261,221h18v18h-18zM401,221h18v38h-18zM421,221h18v18h-18zM521,221h18v58h-18zM21,241h38v18h-38zM101,241h18v18h-18zM301,241h18v18h-18zM441,241h18v58h-18zM81,261h18v58h-18zM141,261h38v18h-38zM301,261h18v18h-18zM461,261h18v18h-18zM541,261h38v18h-38zM21,281h38v18h-38zM541,281h38v18h-38zM161,301h18v18h-18zM221,301h58v18h-58zM301,301h38v18h-38zM381,301h58v18h-58zM541,301h38v18h-38zM181,321h38v18h-38zM321,321h18v58h-18zM381,321h38v18h-38zM501,321h18v18h-18zM541,321h38v18h-38zM21,361h18v18h-18zM141,361h18v18h-18zM261,361h18v18h-18zM541,361h38v18h-38zM21,381h58v18h-58zM281,381h18v38h-18zM341,381h18v18h-18zM381,381h58v18h-58zM541,381h38v18h-38zM461,401h58v18h-58zM21,421h18v18h-18zM381,421h58v18h-58zM61,441h18v18h-18zM221,441h18v18h-18zM501,441h78v18h-78zM21,461h18v18h-18zM281,461h18v38h-18zM541,461h38v18h-38zM21,481h18v18h-18zM61,481h18v18h-18zM381,481h18v18h-18zM421,481h18v18h-18zM241,501h18v18h-18zM541,501h38v18h-38zM301,521h18v18h-18zM421,521h58v18h-58zM541,521h38v18h-38zM381,541h18v18h-18zM21,561h338v18h-338z"></path></svg>